<svg width="29" height="33" viewBox="0 0 29 33" fill="none" xmlns="http://www.w3.org/2000/svg">
<path d="M6.19094 10.1019C6.02132 11.7741 5.90229 14.7333 6.97057 15.9928C6.97057 15.9928 6.46768 12.7421 10.9759 8.6636C12.791 7.02174 13.2106 4.78858 12.5768 3.11372C12.2167 2.16491 11.5591 1.3811 10.9878 0.833816C10.6545 0.512044 10.9104 -0.0187418 11.3954 0.00050949C14.3295 0.121518 19.0847 0.875068 21.1052 5.56139C21.9919 7.61853 22.0574 9.74442 21.6348 11.9061C21.367 13.2867 20.4148 16.3559 22.5871 16.7326C24.1374 17.0022 24.8873 15.8636 25.2235 15.044C25.3634 14.703 25.8484 14.6178 26.1103 14.89C28.7289 17.643 28.9521 20.8854 28.4105 23.6769C27.3631 29.0727 21.4503 33 15.5763 33C8.23822 33 2.39691 29.1195 0.88228 22.0955C0.272261 19.2601 0.581734 13.6497 5.3131 9.68942C5.66424 9.3924 6.23855 9.65641 6.19094 10.1019Z" fill="url(#paint0_radial_559_2639)"/>
<path d="M19.4853 17.7305C15.4451 13.895 17.2541 9.51871 18.2452 7.77473C18.3786 7.54526 18.023 7.32891 17.743 7.46987C16.0051 8.34185 12.4449 10.394 10.787 13.282C8.54243 17.1863 8.70244 19.0974 10.0314 21.4315C10.8315 22.8378 9.90251 23.1361 9.43582 23.1886C8.98246 23.241 8.56466 23.0181 8.2313 22.7854C7.2723 22.1063 6.58891 21.2436 6.25785 20.294C6.18673 20.0907 5.82671 20.035 5.66225 20.2022C4.41773 21.4708 3.77325 23.5065 3.74214 24.9456C3.64435 29.3941 8.62688 33 14.6539 33C22.2499 33 27.7836 26.8044 23.4189 21.6249C22.1521 20.1169 20.961 19.1302 19.4853 17.7305Z" fill="url(#paint1_radial_559_2639)"/>
<path d="M11.1445 27.4492V26.5938C11.1445 26.0977 11.2461 25.668 11.4492 25.3047C11.6562 24.9414 11.9199 24.6562 12.2402 24.4492C12.5605 24.2422 12.916 24.0645 13.3066 23.916C13.6973 23.7676 14.0879 23.6484 14.4785 23.5586C14.873 23.4648 15.2305 23.3711 15.5508 23.2773C16.2773 23.0586 16.6406 22.748 16.6406 22.3457C16.6406 21.9082 16.5273 21.6094 16.3008 21.4492C16.0742 21.2891 15.6914 21.209 15.1523 21.209H14.7363C13.9824 21.209 13.4863 21.4492 13.248 21.9297C13.0723 22.2969 12.8086 22.4805 12.457 22.4805H11.7598C11.5684 22.4805 11.4199 22.4121 11.3145 22.2754C11.209 22.1387 11.1562 21.9902 11.1562 21.8301C11.1562 21.3848 11.3262 20.9844 11.666 20.6289C12.0098 20.2695 12.4355 20 12.9434 19.8203C13.4512 19.6406 13.9805 19.5508 14.5312 19.5508H15.3223C17.0371 19.5508 18.123 20.0273 18.5801 20.9805C18.7598 21.3555 18.8496 21.791 18.8496 22.2871C18.8496 22.7832 18.748 23.2051 18.5449 23.5527C18.3418 23.9004 18.0801 24.1777 17.7598 24.3848C17.4395 24.5879 17.082 24.7637 16.6875 24.9121C16.2969 25.0605 15.9062 25.1836 15.5156 25.2812C15.125 25.375 14.7695 25.4648 14.4492 25.5508C13.7188 25.7539 13.3535 26.0176 13.3535 26.3418H18.2168C18.377 26.3418 18.5098 26.3965 18.6152 26.5059C18.7246 26.6152 18.7793 26.7461 18.7793 26.8984V27.4492C18.7793 27.6016 18.7227 27.7324 18.6094 27.8418C18.5 27.9473 18.3691 28 18.2168 28H11.7129C11.5605 28 11.4277 27.9473 11.3145 27.8418C11.2012 27.7324 11.1445 27.6016 11.1445 27.4492Z" fill="#727688"/>
<defs>
<radialGradient id="paint0_radial_559_2639" cx="0" cy="0" r="1" gradientUnits="userSpaceOnUse" gradientTransform="translate(14.1229 33.0855) rotate(-179.77) scale(21.0048 31.8528)">
<stop offset="0.314" stop-color="#DFDFDF"/>
<stop offset="0.662" stop-color="#B0B0B0"/>
<stop offset="0.972" stop-color="#686868"/>
</radialGradient>
<radialGradient id="paint1_radial_559_2639" cx="0" cy="0" r="1" gradientUnits="userSpaceOnUse" gradientTransform="translate(15.0717 10.0722) rotate(90.7847) scale(24.2122 24.7038)">
<stop offset="0.214" stop-color="#E2E2E2"/>
<stop offset="0.328" stop-color="#E1E1E1"/>
<stop offset="0.487" stop-color="#E1E1E1"/>
<stop offset="0.680733" stop-color="#F3F1F1"/>
<stop offset="0.793" stop-color="white"/>
<stop offset="0.832824" stop-color="white" stop-opacity="0.804"/>
<stop offset="0.871262" stop-color="white" stop-opacity="0.529"/>
<stop offset="0.91" stop-color="#DFDFDF" stop-opacity="0.209"/>
<stop offset="0.941" stop-color="#DFDFDF" stop-opacity="0"/>
</radialGradient>
</defs>
</svg>
