<svg width="29" height="33" viewBox="0 0 29 33" fill="none" xmlns="http://www.w3.org/2000/svg">
<path d="M5.89992 10.1019C5.7303 11.7741 5.61128 14.7333 6.67955 15.9928C6.67955 15.9928 6.17666 12.7421 10.6849 8.6636C12.5 7.02174 12.9196 4.78858 12.2858 3.11372C11.9257 2.16491 11.2681 1.3811 10.6968 0.833816C10.3635 0.512044 10.6194 -0.0187418 11.1044 0.00050949C14.0385 0.121518 18.7936 0.875068 20.8141 5.56139C21.7009 7.61853 21.7664 9.74442 21.3438 11.9061C21.076 13.2867 20.1238 16.3559 22.296 16.7326C23.8464 17.0022 24.5963 15.8636 24.9325 15.044C25.0724 14.703 25.5574 14.6178 25.8193 14.89C28.4379 17.643 28.6611 20.8854 28.1195 23.6769C27.0721 29.0727 21.1593 33 15.2853 33C7.9472 33 2.1059 29.1195 0.591264 22.0955C-0.0187551 19.2601 0.290719 13.6497 5.02209 9.68942C5.37322 9.3924 5.94753 9.65641 5.89992 10.1019Z" fill="url(#paint0_radial_559_1582)"/>
<path d="M19.1943 17.7305C15.1541 13.895 16.9631 9.51871 17.9542 7.77473C18.0876 7.54526 17.732 7.32891 17.452 7.46987C15.7141 8.34185 12.1539 10.394 10.496 13.282C8.25142 17.1863 8.41143 19.0974 9.7404 21.4315C10.5404 22.8378 9.6115 23.1361 9.1448 23.1886C8.69144 23.241 8.27364 23.0181 7.94029 22.7854C6.98128 22.1063 6.29789 21.2436 5.96683 20.294C5.89572 20.0907 5.53569 20.035 5.37124 20.2022C4.12672 21.4708 3.48224 23.5065 3.45112 24.9457C3.35334 29.3941 8.33586 33 14.3629 33C21.9589 33 27.4926 26.8044 23.1279 21.6249C21.8611 20.1169 20.67 19.1302 19.1943 17.7305Z" fill="url(#paint1_radial_559_1582)"/>
<path d="M12.3769 20.7402C12.33 20.6738 12.3066 20.5957 12.3066 20.5059C12.3066 20.416 12.371 20.3164 12.4999 20.207L13.9296 18.9766C14.1367 18.793 14.4238 18.6992 14.791 18.6953H15.6523C15.8124 18.6953 15.9472 18.75 16.0566 18.8594C16.166 18.9688 16.2207 19.0996 16.2207 19.252V26.5469C16.2207 26.6992 16.164 26.8301 16.0507 26.9395C15.9374 27.0449 15.8046 27.0977 15.6523 27.0977H14.5624C14.4101 27.0977 14.2792 27.0469 14.1699 26.9453C14.0644 26.8398 14.0117 26.7109 14.0117 26.5586V20.8926L13.3378 21.3848C13.2597 21.4395 13.1699 21.457 13.0683 21.4375C12.9667 21.418 12.8847 21.373 12.8222 21.3027L12.3769 20.7402Z" fill="#E64037"/>
<defs>
<radialGradient id="paint0_radial_559_1582" cx="0" cy="0" r="1" gradientUnits="userSpaceOnUse" gradientTransform="translate(13.8319 33.0855) rotate(-179.77) scale(21.0048 31.8528)">
<stop offset="0.314" stop-color="#FFA800"/>
<stop offset="0.662" stop-color="#FF9A4F"/>
<stop offset="0.972" stop-color="#F46F36"/>
</radialGradient>
<radialGradient id="paint1_radial_559_1582" cx="0" cy="0" r="1" gradientUnits="userSpaceOnUse" gradientTransform="translate(14.7807 10.0722) rotate(90.7847) scale(24.2122 24.7038)">
<stop offset="0.214" stop-color="#FFF176"/>
<stop offset="0.328" stop-color="#FFF27D"/>
<stop offset="0.487" stop-color="#FFF48F"/>
<stop offset="0.672" stop-color="#FFF7AD"/>
<stop offset="0.793" stop-color="#FFF9C4"/>
<stop offset="0.822" stop-color="#FFF8BD" stop-opacity="0.804"/>
<stop offset="0.863" stop-color="#FFF6AB" stop-opacity="0.529"/>
<stop offset="0.91" stop-color="#FFF38D" stop-opacity="0.209"/>
<stop offset="0.941" stop-color="#FFF176" stop-opacity="0"/>
</radialGradient>
</defs>
</svg>
