<svg width="29" height="33" viewBox="0 0 29 33" fill="none" xmlns="http://www.w3.org/2000/svg">
<path d="M6.19094 10.1019C6.02132 11.7741 5.90229 14.7333 6.97057 15.9928C6.97057 15.9928 6.46768 12.7421 10.9759 8.6636C12.791 7.02174 13.2106 4.78858 12.5768 3.11372C12.2167 2.16491 11.5591 1.3811 10.9878 0.833816C10.6545 0.512044 10.9104 -0.0187418 11.3954 0.00050949C14.3295 0.121518 19.0847 0.875068 21.1052 5.56139C21.9919 7.61853 22.0574 9.74442 21.6348 11.9061C21.367 13.2867 20.4148 16.3559 22.5871 16.7326C24.1374 17.0022 24.8873 15.8636 25.2235 15.044C25.3634 14.703 25.8484 14.6178 26.1103 14.89C28.7289 17.643 28.9521 20.8854 28.4105 23.6769C27.3631 29.0727 21.4503 33 15.5763 33C8.23822 33 2.39691 29.1195 0.88228 22.0955C0.272261 19.2601 0.581734 13.6497 5.3131 9.68942C5.66424 9.3924 6.23855 9.65641 6.19094 10.1019Z" fill="url(#paint0_radial_559_1591)"/>
<path d="M19.4853 17.7305C15.4451 13.895 17.2541 9.51871 18.2452 7.77473C18.3786 7.54526 18.023 7.32891 17.743 7.46987C16.0051 8.34185 12.4449 10.394 10.787 13.282C8.54243 17.1863 8.70244 19.0974 10.0314 21.4315C10.8315 22.8378 9.90251 23.1361 9.43582 23.1886C8.98246 23.241 8.56466 23.0181 8.2313 22.7854C7.2723 22.1063 6.58891 21.2436 6.25785 20.294C6.18673 20.0907 5.82671 20.035 5.66225 20.2022C4.41773 21.4708 3.77325 23.5065 3.74214 24.9456C3.64435 29.3941 8.62688 33 14.6539 33C22.2499 33 27.7836 26.8044 23.4189 21.6249C22.1521 20.1169 20.961 19.1302 19.4853 17.7305Z" fill="url(#paint1_radial_559_1591)"/>
<path d="M10.5699 26.709C10.5699 26.4746 10.6382 26.3086 10.7749 26.2109C10.9117 26.1094 11.0445 26.0586 11.1734 26.0586H11.8648C12.2281 26.0586 12.5132 26.2812 12.7203 26.7266C12.9273 27.1719 13.4039 27.3945 14.1499 27.3945H14.9878C15.4683 27.3945 15.8199 27.3262 16.0425 27.1895C16.2652 27.0527 16.3765 26.8203 16.3765 26.4922C16.3765 26.1641 16.2652 25.9316 16.0425 25.7949C15.8199 25.6582 15.4683 25.5898 14.9878 25.5898H13.9331C13.7808 25.5898 13.6499 25.5371 13.5406 25.4316C13.4312 25.3223 13.3765 25.1914 13.3765 25.0391V24.5586C13.3765 24.4141 13.4292 24.2871 13.5347 24.1777C13.6402 24.0645 13.7652 24.0078 13.9097 24.0078H14.771C15.2906 24.0078 15.6675 23.9395 15.9019 23.8027C16.1402 23.666 16.2593 23.4336 16.2593 23.1055C16.2593 22.7773 16.1402 22.5469 15.9019 22.4141C15.6675 22.2773 15.2906 22.209 14.771 22.209H14.3374C13.5874 22.209 13.0914 22.4492 12.8492 22.9297C12.6734 23.2969 12.4097 23.4805 12.0581 23.4805H11.3609C11.1734 23.4805 11.0269 23.4121 10.9214 23.2754C10.816 23.1387 10.7632 22.9902 10.7632 22.8301C10.7632 22.3848 10.9331 21.9844 11.273 21.6289C11.6128 21.2695 12.0367 21 12.5445 20.8203C13.0523 20.6406 13.5816 20.5508 14.1324 20.5508H14.941C17.2925 20.5508 18.4683 21.4062 18.4683 23.1172C18.4683 23.832 18.2007 24.3926 17.6656 24.7988C18.2789 25.1855 18.5855 25.75 18.5855 26.4922C18.5855 27.3945 18.2964 28.0469 17.7183 28.4492C17.1441 28.8477 16.3023 29.0469 15.1929 29.0469H13.9449C13.0699 29.0469 12.2886 28.832 11.6011 28.4023C10.9136 27.9688 10.5699 27.4043 10.5699 26.709Z" fill="#863D1E"/>
<defs>
<radialGradient id="paint0_radial_559_1591" cx="0" cy="0" r="1" gradientUnits="userSpaceOnUse" gradientTransform="translate(14.1229 33.0855) rotate(-179.77) scale(21.0048 31.8528)">
<stop offset="0.314" stop-color="#E7D2C0"/>
<stop offset="0.662" stop-color="#D38F47"/>
<stop offset="0.972" stop-color="#863D1E"/>
</radialGradient>
<radialGradient id="paint1_radial_559_1591" cx="0" cy="0" r="1" gradientUnits="userSpaceOnUse" gradientTransform="translate(15.0717 10.0722) rotate(90.7847) scale(24.2122 24.7038)">
<stop offset="0.214" stop-color="#F8C085"/>
<stop offset="0.385987" stop-color="#F5C086"/>
<stop offset="0.626305" stop-color="#F0C597"/>
<stop offset="0.713692" stop-color="#F0C597"/>
<stop offset="0.793" stop-color="#F5DBC4"/>
<stop offset="0.832824" stop-color="#FFECDC" stop-opacity="0.804"/>
<stop offset="0.871262" stop-color="#FFECDC" stop-opacity="0.529"/>
<stop offset="0.91" stop-color="#E7D2C0" stop-opacity="0.209"/>
<stop offset="0.941" stop-color="#E7D2C0"/>
</radialGradient>
</defs>
</svg>
