<svg width="34" height="34" viewBox="0 0 34 34" fill="none" xmlns="http://www.w3.org/2000/svg">
<path fill-rule="evenodd" clip-rule="evenodd" d="M2.32 1.01099C1.9914 0.895657 1.63043 0.915581 1.31652 1.06638C1.00261 1.21719 0.76146 1.48651 0.646124 1.81512C0.530788 2.14372 0.550713 2.50468 0.701516 2.81859C0.852319 3.13251 1.12165 3.37366 1.45025 3.48899L1.907 3.64824C3.076 4.05949 3.84425 4.33074 4.4095 4.60899C4.93975 4.86974 5.1725 5.08149 5.3265 5.30549C5.484 5.53649 5.6065 5.85499 5.6765 6.49024C5.7465 7.15524 5.75 8.02149 5.75 9.31649V13.87C5.75 19.0185 5.86025 20.716 7.3775 22.3155C8.893 23.915 11.3325 23.915 16.215 23.915H25.4935C28.2252 23.915 29.592 23.915 30.5562 23.1275C31.5222 22.34 31.7988 21.003 32.35 18.329L33.225 14.0852C33.8323 11.0402 34.135 9.51949 33.358 8.50974C32.581 7.49999 29.928 7.49999 26.9792 7.49999H8.361C8.35355 7.06865 8.32845 6.63778 8.28575 6.20849C8.19125 5.33874 7.98825 4.54599 7.49475 3.82499C6.99775 3.09699 6.33625 2.63149 5.5645 2.25174C4.8435 1.89824 3.9265 1.57624 2.8485 1.19649L2.32 1.01099ZM14.92 12.5312C14.862 12.1878 14.6699 11.8814 14.386 11.6796C14.1021 11.4778 13.7497 11.397 13.4062 11.455C13.0628 11.513 12.7565 11.7051 12.5546 11.989C12.3528 12.2729 12.272 12.6253 12.33 12.9687L13.2557 18.4252C13.3153 18.767 13.5078 19.0713 13.7911 19.2716C14.0744 19.4719 14.4254 19.5518 14.7675 19.494C15.1096 19.4362 15.4149 19.2453 15.6166 18.963C15.8183 18.6808 15.9001 18.3301 15.844 17.9877L14.92 12.5312ZM24.3945 11.4567C24.2246 11.4279 24.0506 11.4328 23.8825 11.4712C23.7145 11.5096 23.5556 11.5807 23.4151 11.6804C23.2745 11.7802 23.155 11.9067 23.0633 12.0527C22.9716 12.1987 22.9096 12.3613 22.8807 12.5312L21.9567 17.9877C21.9271 18.1581 21.9313 18.3326 21.9693 18.5013C22.0073 18.6701 22.0782 18.8296 22.178 18.9708C22.2779 19.112 22.4046 19.2321 22.551 19.3241C22.6974 19.4162 22.8605 19.4784 23.031 19.5073C23.2015 19.5361 23.376 19.5309 23.5445 19.4921C23.713 19.4532 23.8722 19.3815 24.0129 19.2809C24.1536 19.1804 24.273 19.053 24.3643 18.9062C24.4557 18.7593 24.517 18.5959 24.545 18.4252L25.469 12.9687C25.5268 12.6258 25.4461 12.2739 25.2446 11.9904C25.0431 11.7069 24.7374 11.515 24.3945 11.4567ZM10.125 28.5C10.8212 28.5 11.4889 28.7766 11.9812 29.2688C12.4734 29.7611 12.75 30.4288 12.75 31.125C12.75 31.8212 12.4734 32.4889 11.9812 32.9811C11.4889 33.4734 10.8212 33.75 10.125 33.75C9.42881 33.75 8.76113 33.4734 8.26884 32.9811C7.77656 32.4889 7.5 31.8212 7.5 31.125C7.5 30.4288 7.77656 29.7611 8.26884 29.2688C8.76113 28.7766 9.42881 28.5 10.125 28.5ZM25.875 28.5C26.5712 28.5 27.2389 28.7766 27.7312 29.2688C28.2234 29.7611 28.5 30.4288 28.5 31.125C28.5 31.8212 28.2234 32.4889 27.7312 32.9811C27.2389 33.4734 26.5712 33.75 25.875 33.75C25.1788 33.75 24.5111 33.4734 24.0188 32.9811C23.5266 32.4889 23.25 31.8212 23.25 31.125C23.25 30.4288 23.5266 29.7611 24.0188 29.2688C24.5111 28.7766 25.1788 28.5 25.875 28.5Z" fill="#1B6ED4"/>
</svg>
