<svg width="29" height="25" viewBox="0 0 29 25" fill="none" xmlns="http://www.w3.org/2000/svg">
<path fill-rule="evenodd" clip-rule="evenodd" d="M11.4987 1.95628C12.855 -0.309971 16.1432 -0.309971 17.5012 1.95628L27.989 19.451C29.3872 21.7838 27.7072 24.75 24.986 24.75H4.01397C1.29272 24.75 -0.387284 21.7838 1.01097 19.451L11.4987 1.95628ZM14.5 7.25003C14.8481 7.25003 15.1819 7.38831 15.428 7.63445C15.6742 7.88059 15.8125 8.21443 15.8125 8.56253V13.8125C15.8125 14.1606 15.6742 14.4945 15.428 14.7406C15.1819 14.9867 14.8481 15.125 14.5 15.125C14.1519 15.125 13.818 14.9867 13.5719 14.7406C13.3257 14.4945 13.1875 14.1606 13.1875 13.8125V8.56253C13.1875 8.21443 13.3257 7.88059 13.5719 7.63445C13.818 7.38831 14.1519 7.25003 14.5 7.25003ZM16.25 18.625C16.25 19.0892 16.0656 19.5343 15.7374 19.8625C15.4092 20.1907 14.9641 20.375 14.5 20.375C14.0358 20.375 13.5907 20.1907 13.2625 19.8625C12.9343 19.5343 12.75 19.0892 12.75 18.625C12.75 18.1609 12.9343 17.7158 13.2625 17.3876C13.5907 17.0594 14.0358 16.875 14.5 16.875C14.9641 16.875 15.4092 17.0594 15.7374 17.3876C16.0656 17.7158 16.25 18.1609 16.25 18.625Z" fill="#E64037"/>
</svg>
