<svg width="15" height="20" viewBox="0 0 15 20" fill="none" xmlns="http://www.w3.org/2000/svg">
<path d="M2.91663 5.41666C2.91663 4.93043 3.10978 4.46412 3.4536 4.1203C3.79741 3.77648 4.26373 3.58333 4.74996 3.58333H10.25C10.7362 3.58333 11.2025 3.77648 11.5463 4.1203C11.8901 4.46412 12.0833 4.93043 12.0833 5.41666V6.33333C12.0833 6.81956 11.8901 7.28587 11.5463 7.62969C11.2025 7.97351 10.7362 8.16666 10.25 8.16666H4.74996C4.26373 8.16666 3.79741 7.97351 3.4536 7.62969C3.10978 7.28587 2.91663 6.81956 2.91663 6.33333V5.41666ZM4.74996 4.95833C4.6284 4.95833 4.51182 5.00662 4.42587 5.09257C4.33991 5.17853 4.29163 5.2951 4.29163 5.41666V6.33333C4.29163 6.45489 4.33991 6.57147 4.42587 6.65742C4.51182 6.74337 4.6284 6.79166 4.74996 6.79166H10.25C10.3715 6.79166 10.4881 6.74337 10.5741 6.65742C10.66 6.57147 10.7083 6.45489 10.7083 6.33333V5.41666C10.7083 5.2951 10.66 5.17853 10.5741 5.09257C10.4881 5.00662 10.3715 4.95833 10.25 4.95833H4.74996ZM4.06246 12.2917C4.36635 12.2917 4.6578 12.1709 4.87269 11.9561C5.08757 11.7412 5.20829 11.4497 5.20829 11.1458C5.20829 10.8419 5.08757 10.5505 4.87269 10.3356C4.6578 10.1207 4.36635 10 4.06246 10C3.75857 10 3.46712 10.1207 3.25223 10.3356C3.03735 10.5505 2.91663 10.8419 2.91663 11.1458C2.91663 11.4497 3.03735 11.7412 3.25223 11.9561C3.46712 12.1709 3.75857 12.2917 4.06246 12.2917ZM5.20829 14.8125C5.20829 15.1164 5.08757 15.4078 4.87269 15.6227C4.6578 15.8376 4.36635 15.9583 4.06246 15.9583C3.75857 15.9583 3.46712 15.8376 3.25223 15.6227C3.03735 15.4078 2.91663 15.1164 2.91663 14.8125C2.91663 14.5086 3.03735 14.2172 3.25223 14.0023C3.46712 13.7874 3.75857 13.6667 4.06246 13.6667C4.36635 13.6667 4.6578 13.7874 4.87269 14.0023C5.08757 14.2172 5.20829 14.5086 5.20829 14.8125ZM10.9375 12.2917C11.2414 12.2917 11.5328 12.1709 11.7477 11.9561C11.9626 11.7412 12.0833 11.4497 12.0833 11.1458C12.0833 10.8419 11.9626 10.5505 11.7477 10.3356C11.5328 10.1207 11.2414 10 10.9375 10C10.6336 10 10.3421 10.1207 10.1272 10.3356C9.91235 10.5505 9.79163 10.8419 9.79163 11.1458C9.79163 11.4497 9.91235 11.7412 10.1272 11.9561C10.3421 12.1709 10.6336 12.2917 10.9375 12.2917ZM12.0833 14.8125C12.0833 15.1164 11.9626 15.4078 11.7477 15.6227C11.5328 15.8376 11.2414 15.9583 10.9375 15.9583C10.6336 15.9583 10.3421 15.8376 10.1272 15.6227C9.91235 15.4078 9.79163 15.1164 9.79163 14.8125C9.79163 14.5086 9.91235 14.2172 10.1272 14.0023C10.3421 13.7874 10.6336 13.6667 10.9375 13.6667C11.2414 13.6667 11.5328 13.7874 11.7477 14.0023C11.9626 14.2172 12.0833 14.5086 12.0833 14.8125ZM7.49996 12.2917C7.80385 12.2917 8.0953 12.1709 8.31019 11.9561C8.52507 11.7412 8.64579 11.4497 8.64579 11.1458C8.64579 10.8419 8.52507 10.5505 8.31019 10.3356C8.0953 10.1207 7.80385 10 7.49996 10C7.19607 10 6.90462 10.1207 6.68973 10.3356C6.47485 10.5505 6.35413 10.8419 6.35413 11.1458C6.35413 11.4497 6.47485 11.7412 6.68973 11.9561C6.90462 12.1709 7.19607 12.2917 7.49996 12.2917ZM8.64579 14.8125C8.64579 15.1164 8.52507 15.4078 8.31019 15.6227C8.0953 15.8376 7.80385 15.9583 7.49996 15.9583C7.19607 15.9583 6.90462 15.8376 6.68973 15.6227C6.47485 15.4078 6.35413 15.1164 6.35413 14.8125C6.35413 14.5086 6.47485 14.2172 6.68973 14.0023C6.90462 13.7874 7.19607 13.6667 7.49996 13.6667C7.80385 13.6667 8.0953 13.7874 8.31019 14.0023C8.52507 14.2172 8.64579 14.5086 8.64579 14.8125ZM3.14579 0.833328C2.35567 0.833328 1.59791 1.1472 1.0392 1.70591C0.480501 2.26461 0.166626 3.02237 0.166626 3.81249V16.1875C0.166626 16.5787 0.243685 16.9661 0.393402 17.3276C0.543119 17.689 0.762562 18.0174 1.0392 18.2941C1.31584 18.5707 1.64427 18.7902 2.00572 18.9399C2.36716 19.0896 2.75456 19.1667 3.14579 19.1667H11.8541C12.2454 19.1667 12.6328 19.0896 12.9942 18.9399C13.3557 18.7902 13.6841 18.5707 13.9607 18.2941C14.2374 18.0174 14.4568 17.689 14.6065 17.3276C14.7562 16.9661 14.8333 16.5787 14.8333 16.1875V3.81249C14.8333 3.02237 14.5194 2.26461 13.9607 1.70591C13.402 1.1472 12.6443 0.833328 11.8541 0.833328H3.14579ZM1.54163 3.81249C1.54163 2.927 2.26029 2.20833 3.14579 2.20833H11.8541C12.7396 2.20833 13.4583 2.927 13.4583 3.81249V16.1875C13.4583 16.6129 13.2893 17.021 12.9884 17.3218C12.6876 17.6227 12.2796 17.7917 11.8541 17.7917H3.14579C2.72034 17.7917 2.31232 17.6227 2.01148 17.3218C1.71064 17.021 1.54163 16.6129 1.54163 16.1875V3.81249Z" fill="white"/>
</svg>
