<svg width="28" height="28" viewBox="0 0 28 28" fill="none" xmlns="http://www.w3.org/2000/svg">
<path d="M21.4704 3.54375L18.7781 2.1082C16.4142 0.849023 15.2323 0.21875 13.9615 0.21875C12.6908 0.21875 11.5088 0.847656 9.145 2.1082L8.71288 2.33926L20.7246 9.31055L26.1308 6.5625C25.2612 5.56172 23.8585 4.81387 21.4704 3.54102M27.0838 8.37266L21.7019 11.107V15.2578C21.7019 15.5298 21.5956 15.7906 21.4062 15.9829C21.2169 16.1752 20.9601 16.2832 20.6923 16.2832C20.4245 16.2832 20.1677 16.1752 19.9784 15.9829C19.7891 15.7906 19.6827 15.5298 19.6827 15.2578V12.1324L14.9712 14.525V27.4312C15.9377 27.1865 17.0375 26.6014 18.7781 25.673L21.4704 24.2375C24.366 22.6939 25.8144 21.9229 26.6194 20.5352C27.4231 19.1488 27.4231 17.4221 27.4231 13.9727V13.8127C27.4231 11.2246 27.4231 9.60586 27.0838 8.37266ZM12.9519 27.4312V14.525L0.839231 8.37266C0.5 9.60586 0.5 11.2246 0.5 13.81V13.9699C0.5 17.4221 0.5 19.1488 1.30365 20.5352C2.10865 21.9229 3.55712 22.6953 6.45269 24.2389L9.145 25.673C10.8856 26.6014 11.9854 27.1865 12.9519 27.4312ZM1.79231 6.56387L13.9615 12.7436L18.5533 10.4125L6.59135 3.46992L6.45269 3.54375C4.06596 4.81523 2.66192 5.56309 1.79231 6.56523" fill="#1B6ED4"/>
</svg>
