<svg width="17" height="17" viewBox="0 0 17 17" fill="none" xmlns="http://www.w3.org/2000/svg">
<g clip-path="url(#clip0_325_7690)">
<path d="M13.9933 6.49989C13.6552 5.54441 13.0806 4.69016 12.323 4.01683C11.5655 3.34351 10.6497 2.87306 9.66114 2.64939C8.67259 2.42572 7.6435 2.45612 6.66987 2.73774C5.69625 3.01936 4.80983 3.54303 4.09333 4.25989L1 7.16655M15.6667 9.83322L12.5733 12.7399C11.8568 13.4567 10.9704 13.9804 9.99679 14.262C9.02317 14.5437 7.99407 14.5741 7.00552 14.3504C6.01698 14.1267 5.1012 13.6563 4.34364 12.9829C3.58609 12.3096 3.01144 11.4554 2.67333 10.4999" stroke="#1B6ED4" stroke-width="1.5" stroke-linecap="round" stroke-linejoin="round"/>
<path d="M15.9722 13.8322V9.83295H11.8055" stroke="#1B6ED4" stroke-width="2" stroke-linecap="round" stroke-linejoin="round"/>
<path d="M0.694458 3.1676V7.16681H4.86112" stroke="#1B6ED4" stroke-width="2" stroke-linecap="round" stroke-linejoin="round"/>
</g>
<defs>
<clipPath id="clip0_325_7690">
<rect width="16.6667" height="15.9968" fill="white" transform="translate(0 0.501465)"/>
</clipPath>
</defs>
</svg>
