<svg width="32" height="22" viewBox="0 0 32 22" fill="none" xmlns="http://www.w3.org/2000/svg">
<g clip-path="url(#clip0_707_1366)">
<g filter="url(#filter0_d_707_1366)">
<path d="M28.0658 17.9231H3.85562C3.76227 17.9231 3.67275 17.886 3.60675 17.82C3.54074 17.754 3.50366 17.6645 3.50366 17.5711V3.85464C3.50366 3.7613 3.54074 3.67178 3.60675 3.60577C3.67275 3.53977 3.76227 3.50269 3.85562 3.50269H28.0658C28.1592 3.50269 28.2487 3.53977 28.3147 3.60577C28.3807 3.67178 28.4178 3.7613 28.4178 3.85464V17.5711C28.4178 17.6645 28.3807 17.754 28.3147 17.82C28.2487 17.886 28.1592 17.9231 28.0658 17.9231Z" fill="#CDE1F9"/>
</g>
<path d="M8.99666 7.16602C9.51677 7.27136 9.94342 7.48463 10.3096 7.79162C10.4134 7.87863 10.4257 8.0353 10.338 8.13849L9.89106 8.66398C9.80796 8.76169 9.66381 8.77822 9.55988 8.70299C9.15758 8.41174 8.74066 8.27287 8.2619 8.27287C7.71197 8.27287 7.36569 8.50711 7.36569 8.92467C7.36569 9.35239 7.62027 9.52554 8.66929 9.85144C9.95251 10.2588 10.6858 10.7986 10.6858 12.0411C10.6858 13.0264 10.0627 13.7827 8.98175 14.0665C8.87509 14.0946 8.80166 14.1925 8.80166 14.3027V15.4722C8.80166 15.5373 8.7758 15.5997 8.72978 15.6458C8.68375 15.6918 8.62132 15.7177 8.55622 15.7177H7.87587C7.81078 15.7177 7.74835 15.6918 7.70232 15.6458C7.65629 15.5997 7.63043 15.5373 7.63043 15.4722V14.3898C7.63043 14.2678 7.54088 14.1631 7.4199 14.1472C6.6521 14.0464 6.05543 13.7555 5.60835 13.3823C5.50189 13.2935 5.41356 13.2198 5.50692 13.1172L6.11781 12.446C6.25233 12.2982 6.3173 12.3718 6.418 12.4497C6.85545 12.788 7.35215 12.9781 7.93595 12.9781C8.59792 12.9781 8.99514 12.6726 8.99514 12.1633C8.99514 11.6745 8.75068 11.4504 7.77302 11.1449C6.24539 10.6764 5.70558 10.045 5.70558 9.04688C5.70558 8.06707 6.40323 7.37724 7.43955 7.15673C7.55149 7.13292 7.63043 7.16049 7.63043 7.04606V5.73238C7.63043 5.59683 7.74032 5.62489 7.87587 5.62489H8.55622C8.62132 5.62489 8.68375 5.65075 8.72978 5.69678C8.7758 5.74281 8.80166 5.80524 8.80166 5.87033V6.92654C8.80158 6.98282 8.82095 7.03739 8.85648 7.08103C8.89201 7.12467 8.94153 7.15469 8.99666 7.16602ZM18.5117 18.3631H13.5159C13.1271 18.3631 12.812 18.048 12.812 17.6592V3.669C12.812 3.28023 13.1271 2.96509 13.5159 2.96509H18.5117C18.9005 2.96509 19.2156 3.28023 19.2156 3.669V17.6592C19.2156 18.048 18.9005 18.3631 18.5117 18.3631Z" fill="white"/>
</g>
<defs>
<filter id="filter0_d_707_1366" x="1.71595" y="3.50269" width="28.4895" height="17.9958" filterUnits="userSpaceOnUse" color-interpolation-filters="sRGB">
<feFlood flood-opacity="0" result="BackgroundImageFix"/>
<feColorMatrix in="SourceAlpha" type="matrix" values="0 0 0 0 0 0 0 0 0 0 0 0 0 0 0 0 0 0 127 0" result="hardAlpha"/>
<feOffset dy="1.78771"/>
<feGaussianBlur stdDeviation="0.893855"/>
<feComposite in2="hardAlpha" operator="out"/>
<feColorMatrix type="matrix" values="0 0 0 0 0.188235 0 0 0 0 0.482353 0 0 0 0 0.964706 0 0 0 0.1 0"/>
<feBlend mode="normal" in2="BackgroundImageFix" result="effect1_dropShadow_707_1366"/>
<feBlend mode="normal" in="SourceGraphic" in2="effect1_dropShadow_707_1366" result="shape"/>
</filter>
<clipPath id="clip0_707_1366">
<rect width="30.3911" height="20.5587" fill="white" transform="translate(0.708984 0.541992)"/>
</clipPath>
</defs>
</svg>
