<svg width="21" height="22" viewBox="0 0 21 22" fill="none" xmlns="http://www.w3.org/2000/svg">
<path d="M16.25 6.33336C16.25 8.08336 15.6667 10.4167 12.8667 11.35C13.6833 9.3667 13.8 7.38336 13.2167 5.5167C12.4 3.0667 9.71667 1.20003 7.85 0.150028C7.38333 -0.199972 6.56667 0.266695 6.68333 0.966695C6.68333 2.25003 6.33333 4.1167 4.35 6.10003C1.78333 8.6667 0.5 11.35 0.5 13.9167C0.5 17.3 2.83333 21.5 7.5 21.5C2.83333 16.8334 6.33333 12.75 6.33333 12.75C7.26667 19.6334 12.1667 21.5 14.5 21.5C16.4833 21.5 20.3333 20.1 20.3333 14.0334C20.3333 10.4167 18.8167 7.61669 17.5333 5.98336C17.1833 5.40003 16.3667 5.75003 16.25 6.33336Z" fill="#E64037"/>
</svg>
