<svg width="31" height="28" viewBox="0 0 31 28" fill="none" xmlns="http://www.w3.org/2000/svg">
<path d="M0 3.5C0 1.56953 1.5197 0 3.38889 0H11.8611V7C11.8611 7.96797 12.6183 8.75 13.5556 8.75H20.3333V15.75H11.4375C10.7332 15.75 10.1667 16.3352 10.1667 17.0625C10.1667 17.7898 10.7332 18.375 11.4375 18.375H20.3333V24.5C20.3333 26.4305 18.8136 28 16.9444 28H3.38889C1.5197 28 0 26.4305 0 24.5V3.5ZM20.3333 18.375V15.75H26.1633L24.0982 13.6172C23.6004 13.1031 23.6004 12.2719 24.0982 11.7633C24.5959 11.2547 25.4008 11.2492 25.8932 11.7633L30.1293 16.1383C30.6271 16.6523 30.6271 17.4836 30.1293 17.9922L25.8932 22.3672C25.3955 22.8813 24.5906 22.8813 24.0982 22.3672C23.6057 21.8531 23.6004 21.0219 24.0982 20.5133L26.1633 18.3805H20.3333V18.375ZM20.3333 7H13.5556V0L20.3333 7Z" fill="#1B6ED4"/>
</svg>
