<svg width="16" height="22" viewBox="0 0 16 22" fill="none" xmlns="http://www.w3.org/2000/svg">
<path d="M3.41659 10.0834V5.50008C3.41659 2.75008 5.24992 0.916748 7.99992 0.916748C10.7499 0.916748 12.5833 2.75008 12.5833 5.50008V10.0834M7.99992 13.7501V17.4167M7.99992 21.0834C9.70172 21.0834 11.3338 20.4074 12.5372 19.204C13.7405 18.0007 14.4166 16.3686 14.4166 14.6667C14.4166 12.9649 13.7405 11.3328 12.5372 10.1295C11.3338 8.92612 9.70172 8.25008 7.99992 8.25008C6.29811 8.25008 4.66601 8.92612 3.46265 10.1295C2.25929 11.3328 1.58325 12.9649 1.58325 14.6667C1.58325 16.3686 2.25929 18.0007 3.46265 19.204C4.66601 20.4074 6.29811 21.0834 7.99992 21.0834ZM7.99992 14.6667C8.24303 14.6667 8.47619 14.5702 8.6481 14.3983C8.82001 14.2264 8.91659 13.9932 8.91659 13.7501C8.91659 13.507 8.82001 13.2738 8.6481 13.1019C8.47619 12.93 8.24303 12.8334 7.99992 12.8334C7.7568 12.8334 7.52365 12.93 7.35174 13.1019C7.17983 13.2738 7.08325 13.507 7.08325 13.7501C7.08325 13.9932 7.17983 14.2264 7.35174 14.3983C7.52365 14.5702 7.7568 14.6667 7.99992 14.6667Z" stroke="#1B6ED4" stroke-width="1.83333"/>
</svg>
