<svg width="23" height="27" viewBox="0 0 23 27" fill="none" xmlns="http://www.w3.org/2000/svg">
<path d="M22.3563 8.38117C22.8813 7.83743 22.8813 6.97492 22.3563 6.43117L17.3875 1.27492C17.2611 1.13553 17.1079 1.02293 16.9372 0.943806C16.7664 0.864679 16.5815 0.820631 16.3934 0.814276C16.2053 0.80792 16.0179 0.839386 15.8421 0.906807C15.6664 0.974228 15.506 1.07623 15.3705 1.20677C15.2349 1.33732 15.1269 1.49374 15.0529 1.66679C14.9789 1.83983 14.9404 2.02596 14.9397 2.21416C14.9389 2.40236 14.976 2.58879 15.0486 2.76241C15.1212 2.93604 15.228 3.09331 15.3625 3.22493L18.0363 5.99992H1.65625C1.28329 5.99992 0.925604 6.14808 0.661881 6.41181C0.398158 6.67553 0.25 7.03321 0.25 7.40617C0.25 7.77913 0.398158 8.13682 0.661881 8.40054C0.925604 8.66426 1.28329 8.81242 1.65625 8.81242H18.0363L15.3625 11.5874C15.228 11.719 15.1212 11.8763 15.0486 12.0499C14.976 12.2236 14.9389 12.41 14.9397 12.5982C14.9404 12.7864 14.9789 12.9725 15.0529 13.1456C15.1269 13.3186 15.2349 13.475 15.3705 13.6056C15.506 13.7361 15.6664 13.8381 15.8421 13.9055C16.0179 13.973 16.2053 14.0044 16.3934 13.9981C16.5815 13.9917 16.7664 13.9477 16.9372 13.8685C17.1079 13.7894 17.2611 13.6768 17.3875 13.5374L22.3563 8.38117ZM0.6625 18.5999C0.399155 18.8636 0.251237 19.221 0.251237 19.5937C0.251237 19.9663 0.399155 20.3238 0.6625 20.5874L5.81875 25.7437C6.08533 25.9921 6.43792 26.1273 6.80223 26.1209C7.16654 26.1144 7.51414 25.9669 7.77179 25.7092C8.02944 25.4516 8.17703 25.104 8.18345 24.7397C8.18988 24.3753 8.05465 24.0228 7.80625 23.7562L5.05 20.9999H21.3438C21.7167 20.9999 22.0744 20.8518 22.3381 20.588C22.6018 20.3243 22.75 19.9666 22.75 19.5937C22.75 19.2207 22.6018 18.863 22.3381 18.5993C22.0744 18.3356 21.7167 18.1874 21.3438 18.1874H5.05L7.80625 15.4312C8.05465 15.1646 8.18988 14.812 8.18345 14.4477C8.17703 14.0834 8.02944 13.7358 7.77179 13.4781C7.51414 13.2205 7.16654 13.0729 6.80223 13.0665C6.43792 13.06 6.08533 13.1953 5.81875 13.4437L0.6625 18.5999Z" fill="#00806C"/>
</svg>
