<svg width="173" height="173" viewBox="0 0 173 173" fill="none" xmlns="http://www.w3.org/2000/svg">
<path fill-rule="evenodd" clip-rule="evenodd" d="M107.675 2.19241C109.279 2.12643 110.877 2.19287 112.47 2.39172C112.891 2.94485 112.957 3.54277 112.67 4.1855C111.04 4.63574 109.375 4.70215 107.675 4.38481C107.175 3.6562 107.175 2.9254 107.675 2.19241Z" fill="#25509C"/>
<path fill-rule="evenodd" clip-rule="evenodd" d="M116.066 2.19241C117.67 2.12643 119.268 2.19287 120.86 2.39172C121.281 2.94485 121.348 3.54277 121.06 4.1855C119.43 4.63574 117.766 4.70215 116.066 4.38481C115.566 3.6562 115.566 2.9254 116.066 2.19241Z" fill="#28519D"/>
<path fill-rule="evenodd" clip-rule="evenodd" d="M124.456 2.19239C125.927 2.1265 127.392 2.19294 128.851 2.3917C129.917 3.18894 129.917 3.98617 128.851 4.78341C127.519 5.04917 126.187 5.04917 124.856 4.78341C123.983 4.02699 123.85 3.16333 124.456 2.19239Z" fill="#2F559F"/>
<path fill-rule="evenodd" clip-rule="evenodd" d="M132.447 4.18549C134.147 4.27506 135.611 4.93943 136.842 6.17857C137.333 7.29666 136.933 7.96103 135.643 8.17166C134.726 7.71385 133.793 7.24878 132.846 6.7765C131.974 6.02008 131.841 5.15644 132.447 4.18549Z" fill="#27509C"/>
<path fill-rule="evenodd" clip-rule="evenodd" d="M137.641 17.7385C137.398 19.9087 137.664 21.9018 138.44 23.7178C157.766 34.637 166.889 51.2463 165.808 73.5449C164.14 94.7052 160.744 115.566 155.62 136.128C158.476 135.874 160.807 136.804 162.612 138.918C162.679 139.45 162.745 139.981 162.812 140.513C162.065 149.415 161.332 158.317 160.614 167.22C160.588 168.708 160.255 170.103 159.616 171.406C138.707 171.671 117.797 171.671 96.8881 171.406C96.1114 170.547 95.9116 169.551 96.2887 168.416C98.8134 157.135 101.344 145.841 103.88 134.533C104.346 133.006 105.345 132.009 106.877 131.544C108.479 131.401 110.077 131.468 111.671 131.743C111.352 124.077 109.288 116.902 105.478 110.218C102.456 105.941 99.859 101.423 97.6871 96.6648C70.5193 96.3327 43.3507 96.1334 16.1814 96.0668C11.2956 94.5138 8.16594 91.2583 6.79221 86.3007C6.40055 62.9007 6.53371 39.515 7.19175 16.144C8.99435 11.4239 12.3904 8.56709 17.38 7.57374C54.0044 7.30798 90.6285 7.30798 127.253 7.57374C132.789 8.91154 136.251 12.2998 137.641 17.7385Z" fill="#234E9C"/>
<path fill-rule="evenodd" clip-rule="evenodd" d="M138.44 9.76612C139.226 9.6707 139.959 9.80355 140.637 10.1647C141.914 11.43 142.246 12.8916 141.636 14.5495C140.454 14.9919 139.589 14.5933 139.039 13.3537C138.306 12.1903 138.106 10.9944 138.44 9.76612Z" fill="#2D539E"/>
<path fill-rule="evenodd" clip-rule="evenodd" d="M17.38 10.5634C41.7518 10.5634 66.1236 10.5634 90.4955 10.5634C90.7891 13.4145 91.5882 16.072 92.8927 18.5357C89.8266 18.4694 86.7634 18.5358 83.7033 18.735C81.3896 19.783 80.324 21.5768 80.507 24.1164C80.3368 26.5014 81.2693 28.2952 83.3038 29.4977C90.0947 29.697 96.8869 29.7634 103.68 29.697C103.628 30.0463 103.761 30.3121 104.08 30.4942C107.616 32.3137 111.345 33.7088 115.267 34.6797C120.138 36.351 123.401 39.6063 125.056 44.4458C125.589 49.7566 123.658 53.9421 119.262 57.0023C112.806 60.7122 106.014 61.3763 98.8858 58.9954C96.4398 58.0523 94.0426 56.9895 91.6941 55.8064C87.4078 52.7267 83.0129 49.8037 78.5093 47.0369C66.0234 42.2287 54.0372 43.2918 42.5509 50.2258C37.1546 50.2932 31.8275 50.4925 26.5694 50.8237C25.5039 51.621 25.5039 52.4182 26.5694 53.2154C30.0949 53.5463 33.6907 53.7456 37.3569 53.8134C36.2038 54.782 35.1384 55.8451 34.1606 57.0023C28.4981 57.0697 22.9045 57.269 17.38 57.6002C16.5062 58.3106 16.373 59.174 16.9805 60.1912C21.5066 60.3905 26.0347 60.4571 30.5648 60.3905C29.7772 62.2262 28.7784 63.9534 27.5682 65.5726C26.8653 66.9713 26.3992 68.4327 26.1698 69.9574C20.5763 69.9574 14.9828 69.9574 9.38923 69.9574C9.32263 52.4178 9.38923 34.8785 9.589 17.3399C10.9028 13.5686 13.4998 11.3097 17.38 10.5634Z" fill="#A8D0F6"/>
<path fill-rule="evenodd" clip-rule="evenodd" d="M17.3799 10.5634C53.8042 10.0987 90.2952 10.0322 126.853 10.3641C130.992 11.2887 133.655 13.7468 134.844 17.7385C134.844 35.1448 134.844 52.5509 134.844 69.9574C126.986 69.9574 119.129 69.9574 111.271 69.9574C109.666 67.0897 107.668 64.4987 105.278 62.1843C102.037 60.505 99.1737 60.9701 96.6882 63.5795C95.605 65.1612 94.8727 66.8888 94.4907 68.7615C94.1296 69.0441 93.9965 69.4428 94.0912 69.9574C71.4506 69.9574 48.8103 69.9574 26.1697 69.9574C26.3991 68.4327 26.8652 66.9713 27.5681 65.5726C28.7783 63.9534 29.7771 62.2262 30.5646 60.3906C37.0918 60.4571 43.6175 60.3906 50.142 60.1912C50.6746 59.394 50.6746 58.5968 50.142 57.7995C39.2221 57.6002 28.3014 57.5337 17.3799 57.6002C22.9044 57.269 28.4979 57.0697 34.1605 57.0023C35.1383 55.8451 36.2037 54.782 37.3568 53.8134C33.6906 53.7456 30.0948 53.5463 26.5693 53.2154C38.8225 53.282 51.0749 53.2154 63.3268 53.0161C63.8593 52.3516 63.8593 51.6875 63.3268 51.023C51.0749 50.8237 38.8225 50.7572 26.5693 50.8237C31.8273 50.4925 37.1545 50.2932 42.5508 50.2258C54.0371 43.2919 66.0232 42.2287 78.5092 47.0369C83.0128 49.8037 87.4077 52.7267 91.694 55.8064C94.0425 56.9895 96.4397 58.0523 98.8857 58.9954C106.013 61.3763 112.806 60.7122 119.262 57.0023C123.658 53.9421 125.589 49.7566 125.055 44.4459C123.401 39.6064 120.138 36.351 115.267 34.6797C111.345 33.7089 107.616 32.3137 104.08 30.4942C103.761 30.3121 103.628 30.0464 103.68 29.697C110.873 29.7634 118.065 29.697 125.255 29.4977C126.487 29.1844 127.352 28.4536 127.852 27.3053C128.119 25.1794 128.119 23.0534 127.852 20.9274C127.078 19.8887 126.079 19.1579 124.856 18.735C114.202 18.5357 103.548 18.4693 92.8926 18.5357C91.5881 16.072 90.789 13.4146 90.4954 10.5634C66.1235 10.5634 41.7517 10.5634 17.3799 10.5634Z" fill="#8BBFF1"/>
<path fill-rule="evenodd" clip-rule="evenodd" d="M141.636 17.3399C143.221 17.6278 143.886 18.6244 143.634 20.3295C143.808 22.4202 142.942 23.151 141.037 22.5219C140.629 20.6767 140.828 18.9494 141.636 17.3399Z" fill="#2B539E"/>
<path fill-rule="evenodd" clip-rule="evenodd" d="M21.7748 18.5357C26.5711 18.4693 31.3656 18.5358 36.1582 18.735C38.0271 19.4031 39.5587 20.5325 40.7529 22.1233C41.3969 27.5434 41.53 32.9911 41.1524 38.4666C40.5531 41.1903 38.8884 42.8514 36.1582 43.4493C31.2306 43.7152 26.3029 43.7152 21.3753 43.4493C19.2037 42.7442 17.6722 41.349 16.7806 39.2638C16.5142 33.816 16.5142 28.3683 16.7806 22.9205C18.0382 20.9312 19.7029 19.4696 21.7748 18.5357Z" fill="#214E9C"/>
<path fill-rule="evenodd" clip-rule="evenodd" d="M92.8926 18.5357C103.548 18.4693 114.202 18.5357 124.856 18.735C126.079 19.1579 127.078 19.8887 127.852 20.9274C128.119 23.0534 128.119 25.1793 127.852 27.3053C127.352 28.4536 126.487 29.1844 125.255 29.4977C118.065 29.697 110.873 29.7634 103.68 29.697C96.8868 29.7634 90.0946 29.697 83.3037 29.4977C81.2692 28.2952 80.3367 26.5014 80.5069 24.1164C80.3239 21.5768 81.3895 19.783 83.7032 18.735C86.7633 18.5358 89.8266 18.4694 92.8926 18.5357Z" fill="#204D9B"/>
<path fill-rule="evenodd" clip-rule="evenodd" d="M137.641 17.7385C137.926 19.6909 138.192 21.6839 138.44 23.7177C137.664 21.9017 137.398 19.9087 137.641 17.7385Z" fill="#607FB7"/>
<path fill-rule="evenodd" clip-rule="evenodd" d="M19.3776 37.6693C19.3776 37.005 19.3776 36.3406 19.3776 35.6763C20.7927 35.8009 22.1245 35.668 23.3729 35.2776C23.7708 35.3118 24.1038 35.1789 24.3718 34.879C24.6904 34.1779 24.6239 33.5136 24.172 32.8859C22.468 32.5118 20.7367 32.3789 18.978 32.4873C18.978 31.5572 18.978 30.6271 18.978 29.697C20.7145 29.763 22.4458 29.6966 24.172 29.4977C24.7047 28.7005 24.7047 27.9032 24.172 27.106C22.5794 26.9072 20.9812 26.8407 19.3776 26.9067C18.9151 24.7539 19.5809 23.093 21.3753 21.924C23.8643 21.4747 26.3947 21.2754 28.9665 21.326C31.2305 21.3925 33.4946 21.4589 35.7586 21.5253C38.2073 22.4905 39.1395 24.2843 38.5554 26.9067C37.0844 26.8408 35.6194 26.9072 34.1605 27.106C33.2822 27.7717 33.149 28.5689 33.7609 29.4977C35.3536 29.6965 36.9517 29.763 38.5554 29.697C38.5554 30.6271 38.5554 31.5572 38.5554 32.4873C36.9517 32.4213 35.3536 32.4878 33.7609 32.6866C33.2282 33.4839 33.2282 34.2811 33.7609 35.0783C35.3536 35.2772 36.9517 35.3436 38.5554 35.2776C39.0119 37.8525 38.0797 39.6463 35.7586 40.659C31.0973 40.9249 26.4361 40.9249 21.7748 40.659C20.4494 40.069 19.6504 39.0724 19.3776 37.6693Z" fill="#ECEDFD"/>
<path fill-rule="evenodd" clip-rule="evenodd" d="M84.1027 21.7247C87.701 21.6583 91.2968 21.7247 94.8903 21.924C96.1528 23.7803 97.6179 25.4412 99.2852 26.9067C94.2226 26.9731 89.1617 26.9066 84.1027 26.7074C83.4854 25.9811 83.219 25.1174 83.3037 24.1164C83.3704 23.452 83.4367 22.7876 83.5034 22.1233C83.6564 21.9016 83.8562 21.7688 84.1027 21.7247Z" fill="#EDEEFE"/>
<path fill-rule="evenodd" clip-rule="evenodd" d="M84.1028 21.7247C97.4865 21.2606 110.937 21.1941 124.456 21.5254C124.953 22.2706 125.219 23.1343 125.255 24.1164C125.242 25.0168 125.109 25.8804 124.856 26.7074C116.333 26.9067 107.81 26.9731 99.2852 26.9067C97.618 25.4412 96.1529 23.7803 94.8903 21.924C91.2969 21.7247 87.701 21.6583 84.1028 21.7247Z" fill="#D8D9F7"/>
<path fill-rule="evenodd" clip-rule="evenodd" d="M143.234 30.0956C142.836 30.0614 142.504 30.1943 142.236 30.4942C139.905 34.9959 139.372 39.6464 140.637 44.4458C142.56 48.8633 143.825 53.4474 144.433 58.1981C144.358 63.0633 143.492 67.7801 141.836 72.3491C141.758 74.3095 141.558 76.236 141.237 78.129C141.436 80.3633 141.703 82.6884 142.036 85.1048C140.679 89.8368 137.683 91.2981 133.046 89.4896C126.561 88.7039 120.235 87.0429 114.068 84.5069C111.955 83.2186 110.024 81.6907 108.275 79.9228C107.078 77.4015 106.079 74.8105 105.278 72.1498C103.695 69.306 101.431 67.2468 98.4861 65.9712C99.745 63.9183 101.476 63.4531 103.68 64.576C106.163 67.4517 108.494 70.4413 110.672 73.5449C118.075 81.5655 127.131 84.7544 137.841 83.1117C137.974 64.244 138.107 45.3758 138.24 26.5081C140.108 27.4684 141.773 28.6642 143.234 30.0956Z" fill="#DADBF8"/>
<path fill-rule="evenodd" clip-rule="evenodd" d="M143.234 30.0956C150.414 34.9363 155.808 41.3143 159.416 49.2293C162.088 55.93 163.354 62.9058 163.211 70.1567C162.618 77.6718 161.953 85.179 161.214 92.6786C160.767 94.1913 160.501 95.7858 160.415 97.462C160.194 98.7802 160.061 100.109 160.015 101.448C159.451 102.532 159.184 103.728 159.216 105.036C157.492 115.361 155.362 125.592 152.823 135.729C140.034 134.577 127.249 133.381 114.468 132.142C114.415 124.332 112.484 117.024 108.674 110.218C104.34 104.167 100.877 97.6561 98.2864 90.6855C96.4126 84.4224 95.8133 78.0445 96.4885 71.5518C97.0574 70.7486 97.3235 69.8186 97.2876 68.7615C97.5928 67.7578 97.9924 66.8278 98.4862 65.9712C101.431 67.2468 103.695 69.306 105.278 72.1498C106.079 74.8105 107.078 77.4015 108.275 79.9228C110.024 81.6907 111.955 83.2186 114.068 84.5069C120.235 87.0429 126.561 88.7039 133.046 89.4896C137.683 91.2981 140.679 89.8368 142.036 85.1048C141.703 82.6884 141.437 80.3633 141.237 78.129C141.558 76.236 141.758 74.3095 141.836 72.3491C143.492 67.7801 144.358 63.0633 144.433 58.1981C143.825 53.4474 142.56 48.8633 140.637 44.4458C139.372 39.6464 139.905 34.9959 142.236 30.4942C142.504 30.1943 142.837 30.0614 143.234 30.0956Z" fill="#EFEFFE"/>
<path fill-rule="evenodd" clip-rule="evenodd" d="M23.3729 35.2776C22.1244 35.6681 20.7926 35.801 19.3775 35.6763C19.3775 36.3406 19.3775 37.005 19.3775 37.6694C18.9934 36.966 18.8602 36.1687 18.978 35.2776C20.4429 35.2776 21.9079 35.2776 23.3729 35.2776Z" fill="#B1BDE2"/>
<path fill-rule="evenodd" clip-rule="evenodd" d="M165.209 46.4389C166.169 46.3963 166.902 46.7949 167.407 47.6348C167.739 48.6313 168.073 49.6279 168.405 50.6244C168.123 51.7099 167.457 52.1085 166.408 51.8203C164.882 50.2605 164.483 48.4667 165.209 46.4389Z" fill="#2E559F"/>
<path fill-rule="evenodd" clip-rule="evenodd" d="M16.5808 50.8237C18.596 50.6934 20.5937 50.8261 22.5738 51.2223C23.072 51.837 23.072 52.4349 22.5738 53.0161C20.7093 53.282 18.8448 53.282 16.9803 53.0161C16.6183 52.3389 16.4851 51.6078 16.5808 50.8237Z" fill="#204D9B"/>
<path fill-rule="evenodd" clip-rule="evenodd" d="M26.5693 50.8237C38.8226 50.7572 51.075 50.8237 63.3269 51.023C63.8594 51.6875 63.8594 52.3516 63.3269 53.0161C51.075 53.2154 38.8226 53.282 26.5693 53.2154C25.5039 52.4182 25.5039 51.621 26.5693 50.8237Z" fill="#1B4A99"/>
<path fill-rule="evenodd" clip-rule="evenodd" d="M167.207 54.8099C168.123 54.7079 168.988 54.8406 169.804 55.2085C170.406 56.7416 170.473 58.2695 170.004 59.7926C169.124 60.1215 168.392 59.9222 167.806 59.1947C167.432 57.7541 167.232 56.2928 167.207 54.8099Z" fill="#2D549F"/>
<path fill-rule="evenodd" clip-rule="evenodd" d="M17.3799 57.6002C28.3014 57.5337 39.2221 57.6002 50.142 57.7995C50.6746 58.5968 50.6746 59.394 50.142 60.1912C43.6175 60.3905 37.0918 60.4571 30.5646 60.3905C26.0346 60.4571 21.5065 60.3905 16.9803 60.1912C16.3729 59.174 16.5061 58.3106 17.3799 57.6002Z" fill="#224F9C"/>
<path fill-rule="evenodd" clip-rule="evenodd" d="M54.1375 57.6002C57.2036 57.5341 60.2668 57.6002 63.3269 57.7995C63.8595 58.5968 63.8595 59.394 63.3269 60.1912C60.2636 60.4571 57.2008 60.4571 54.1375 60.1912C53.6309 59.329 53.6309 58.4652 54.1375 57.6002Z" fill="#224F9D"/>
<path fill-rule="evenodd" clip-rule="evenodd" d="M168.805 62.7823C169.509 62.7253 170.175 62.8584 170.803 63.1809C171.321 64.861 171.321 66.5221 170.803 68.1636C170.03 68.4757 169.431 68.2764 169.005 67.5657C168.805 65.9768 168.739 64.3823 168.805 62.7823Z" fill="#264F9C"/>
<path fill-rule="evenodd" clip-rule="evenodd" d="M94.4908 68.7615C94.4908 69.2929 94.4908 69.8246 94.4908 70.356C66.056 70.4887 37.689 70.3556 9.38916 69.9574C14.9827 69.9574 20.5762 69.9574 26.1698 69.9574C48.8104 69.9574 71.4506 69.9574 94.0912 69.9574C93.9965 69.4428 94.1296 69.0442 94.4908 68.7615Z" fill="#3A69AF"/>
<path fill-rule="evenodd" clip-rule="evenodd" d="M134.844 17.7385C135.243 35.21 135.376 52.749 135.244 70.356C127.183 70.4875 119.193 70.3548 111.271 69.9574C119.129 69.9574 126.987 69.9574 134.844 69.9574C134.844 52.5509 134.844 35.1448 134.844 17.7385Z" fill="#4977BA"/>
<path fill-rule="evenodd" clip-rule="evenodd" d="M97.2876 68.7615C97.3236 69.8187 97.0575 70.7486 96.4886 71.5519C96.4526 70.4947 96.7187 69.5647 97.2876 68.7615Z" fill="#8CA3D2"/>
<path fill-rule="evenodd" clip-rule="evenodd" d="M169.204 71.1532C169.861 71.0679 170.461 71.2011 171.002 71.5518C171.269 73.0136 171.269 74.4749 171.002 75.9366C170.445 76.7446 169.779 76.8774 169.005 76.3353C168.698 74.5734 168.764 72.8462 169.204 71.1532Z" fill="#254F9C"/>
<path fill-rule="evenodd" clip-rule="evenodd" d="M24.971 81.1187C24.4383 78.4611 24.4383 75.8039 24.971 73.1463C19.9102 73.1463 14.8494 73.1463 9.78857 73.1463C9.78857 75.8039 9.78857 78.4611 9.78857 81.1187C9.39255 78.4029 9.25938 75.6126 9.38903 72.7477C37.4911 72.615 65.5921 72.7477 93.6916 73.1463C93.165 75.7493 93.165 78.3403 93.6916 80.9194C70.7853 81.1187 47.8781 81.1852 24.971 81.1187Z" fill="#D9DAF7"/>
<path fill-rule="evenodd" clip-rule="evenodd" d="M24.971 81.1187C19.9102 81.1187 14.8494 81.1187 9.78857 81.1187C9.78857 78.4611 9.78857 75.8039 9.78857 73.1463C14.8494 73.1463 19.9102 73.1463 24.971 73.1463C24.4383 75.8039 24.4383 78.4611 24.971 81.1187Z" fill="#EFEFFE"/>
<path fill-rule="evenodd" clip-rule="evenodd" d="M114.068 72.7477C121.127 72.7477 128.185 72.7477 135.244 72.7477C135.244 75.538 135.244 78.3284 135.244 81.1187C127.139 81.4782 120.147 78.9538 114.268 73.5449C114.082 73.3082 114.016 73.0423 114.068 72.7477Z" fill="#D4D6F5"/>
<path fill-rule="evenodd" clip-rule="evenodd" d="M168.405 79.5242C169.191 79.4289 169.924 79.5617 170.603 79.9228C170.869 81.2514 170.869 82.5804 170.603 83.909C169.91 84.7469 169.111 84.8796 168.205 84.3076C167.928 82.6916 167.995 81.0971 168.405 79.5242Z" fill="#28509D"/>
<path fill-rule="evenodd" clip-rule="evenodd" d="M26.1698 83.909C26.9171 87.5261 28.5152 90.715 30.9642 93.4758C26.5693 93.4758 22.1744 93.4758 17.7795 93.4758C12.5863 92.4322 9.78958 89.2433 9.38916 83.909C14.9827 83.909 20.5762 83.909 26.1698 83.909Z" fill="#A8D0F6"/>
<path fill-rule="evenodd" clip-rule="evenodd" d="M26.1697 83.909C48.8103 83.909 71.4505 83.909 94.0912 83.909C94.5063 87.0134 95.1719 90.0696 96.0888 93.0772C74.4483 93.4754 52.7402 93.6082 30.9641 93.4758C28.5152 90.715 26.917 87.5261 26.1697 83.909Z" fill="#8CC0F2"/>
<path fill-rule="evenodd" clip-rule="evenodd" d="M1.79798 87.0979C2.58395 87.0027 3.31644 87.1354 3.99543 87.4965C4.4265 88.5919 4.89264 89.6551 5.39382 90.6855C4.92979 92.3684 4.06416 92.6339 2.79682 91.4827C2.03616 90.1182 1.7032 88.6565 1.79798 87.0979Z" fill="#254F9C"/>
<path fill-rule="evenodd" clip-rule="evenodd" d="M168.006 87.4965C169.333 87.4922 169.999 88.1563 170.003 89.4896C169.829 90.5575 169.629 91.6202 169.404 92.6786C167.907 93.416 167.041 92.9508 166.807 91.2834C166.934 89.9006 167.334 88.6382 168.006 87.4965Z" fill="#2E549F"/>
<path fill-rule="evenodd" clip-rule="evenodd" d="M96.089 93.0772C96.306 93.1011 96.439 93.2339 96.4885 93.4758C70.1862 94.0068 43.9497 94.0068 17.7795 93.4758C22.1745 93.4758 26.5694 93.4758 30.9643 93.4758C52.7403 93.6082 74.4484 93.4754 96.089 93.0772Z" fill="#5D85C2"/>
<path fill-rule="evenodd" clip-rule="evenodd" d="M6.19291 94.273C8.00238 94.2714 9.40076 95.0687 10.3881 96.6647C10.5235 98.254 9.79103 98.852 8.1906 98.4585C7.45813 97.7279 6.72561 96.9968 5.99314 96.2661C5.73756 95.5626 5.80412 94.8981 6.19291 94.273Z" fill="#2A539E"/>
<path fill-rule="evenodd" clip-rule="evenodd" d="M161.214 92.6786C161.28 94.0139 161.213 95.3425 161.014 96.6647C160.903 97.0299 160.703 97.2954 160.415 97.462C160.501 95.7858 160.767 94.1913 161.214 92.6786Z" fill="#617FBC"/>
<path fill-rule="evenodd" clip-rule="evenodd" d="M166.807 95.8675C168.401 95.598 169.067 96.2621 168.805 97.8606C168.732 98.9472 168.532 100.01 168.205 101.05C166.239 101.747 165.507 101.016 166.008 98.8571C165.929 97.7314 166.195 96.7349 166.807 95.8675Z" fill="#2E559F"/>
<path fill-rule="evenodd" clip-rule="evenodd" d="M12.985 98.6578C14.4712 98.6833 15.9361 98.8827 17.3799 99.2558C18.5632 100.55 18.2969 101.414 16.5808 101.847C15.6542 101.622 14.7219 101.423 13.784 101.249C12.6633 100.62 12.3969 99.756 12.985 98.6578Z" fill="#2D539E"/>
<path fill-rule="evenodd" clip-rule="evenodd" d="M21.3753 99.4551C22.979 99.3889 24.5771 99.4555 26.1698 99.6544C26.5907 100.208 26.6573 100.806 26.3695 101.448C24.74 101.898 23.0753 101.965 21.3753 101.647C20.8749 100.919 20.8749 100.188 21.3753 99.4551Z" fill="#264F9C"/>
<path fill-rule="evenodd" clip-rule="evenodd" d="M29.7657 99.4551C31.3694 99.3889 32.9675 99.4555 34.5602 99.6544C34.9811 100.208 35.0477 100.806 34.7599 101.448C33.2642 101.897 31.7326 101.964 30.1652 101.647C29.2341 101.054 29.1009 100.324 29.7657 99.4551Z" fill="#224D9B"/>
<path fill-rule="evenodd" clip-rule="evenodd" d="M38.1558 99.4551C39.7595 99.3889 41.3577 99.4555 42.9503 99.6544C43.3714 100.208 43.4377 100.806 43.1501 101.448C41.5203 101.898 39.8558 101.965 38.1558 101.647C37.6554 100.919 37.6554 100.188 38.1558 99.4551Z" fill="#26509C"/>
<path fill-rule="evenodd" clip-rule="evenodd" d="M46.5461 99.4551C48.1498 99.3889 49.748 99.4555 51.3405 99.6544C51.7616 100.208 51.828 100.806 51.5403 101.448C49.9106 101.898 48.2461 101.965 46.5461 101.647C46.0458 100.919 46.0458 100.188 46.5461 99.4551Z" fill="#27509C"/>
<path fill-rule="evenodd" clip-rule="evenodd" d="M54.9364 99.4551C56.5402 99.3889 58.1383 99.4555 59.7309 99.6544C60.152 100.208 60.2183 100.806 59.9307 101.448C58.301 101.898 56.6365 101.965 54.9364 101.647C54.4362 100.919 54.4362 100.188 54.9364 99.4551Z" fill="#28509D"/>
<path fill-rule="evenodd" clip-rule="evenodd" d="M160.015 101.448C160.047 102.756 159.78 103.952 159.216 105.036C159.184 103.728 159.45 102.532 160.015 101.448Z" fill="#738FC6"/>
<path fill-rule="evenodd" clip-rule="evenodd" d="M165.209 104.238C167.553 104.121 168.219 105.184 167.207 107.427C166.459 107.932 165.727 107.932 165.009 107.427C164.721 106.327 164.787 105.264 165.209 104.238Z" fill="#2F559F"/>
<path fill-rule="evenodd" clip-rule="evenodd" d="M96.089 133.736C97.5833 133.434 98.2493 134.032 98.0867 135.53C97.982 136.545 97.7822 137.542 97.4874 138.52C96.7978 138.948 96.0654 139.015 95.2899 138.719C94.9279 136.965 95.1944 135.305 96.089 133.736Z" fill="#2C539E"/>
<path fill-rule="evenodd" clip-rule="evenodd" d="M128.452 136.526C126.92 139.663 126.454 142.985 127.053 146.492C129.315 150.728 130.114 155.246 129.45 160.045C128.507 162.938 127.376 165.728 126.054 168.416C117.264 168.416 108.475 168.416 99.6848 168.416C99.6848 167.885 99.6848 167.353 99.6848 166.821C101.885 156.176 104.216 145.546 106.677 134.932C107.196 134.342 107.862 134.077 108.674 134.135C115.344 134.773 121.936 135.571 128.452 136.526Z" fill="#A7CFF6"/>
<path fill-rule="evenodd" clip-rule="evenodd" d="M128.451 136.526C138.895 137.019 149.283 138.015 159.615 139.516C159.868 140.276 160.001 141.073 160.015 141.908C159.298 149.817 158.632 157.723 158.017 165.626C157.63 166.465 157.497 167.396 157.618 168.416C147.097 168.416 136.575 168.416 126.054 168.416C127.375 165.728 128.507 162.938 129.45 160.045C130.114 155.246 129.314 150.728 127.053 146.492C126.454 142.985 126.92 139.663 128.451 136.526Z" fill="#8CC0F2"/>
<path fill-rule="evenodd" clip-rule="evenodd" d="M94.0911 141.709C95.3165 141.516 96.1156 141.98 96.4883 143.104C96.2242 144.086 96.0245 145.082 95.889 146.093C95.4 147.278 94.6009 147.544 93.4918 146.891C93.2609 145.115 93.4606 143.387 94.0911 141.709Z" fill="#2F559F"/>
<path fill-rule="evenodd" clip-rule="evenodd" d="M112.869 143.702C117.626 143.469 120.423 145.662 121.26 150.279C120.934 154.856 118.47 157.314 113.868 157.653C108.382 156.278 106.384 152.823 107.875 147.289C109.187 145.502 110.852 144.306 112.869 143.702Z" fill="#224E9C"/>
<path fill-rule="evenodd" clip-rule="evenodd" d="M116.865 147.688C117.261 150.872 115.863 152.865 112.67 153.667C112.138 153.236 111.539 152.97 110.872 152.87C109.623 150.764 109.889 148.838 111.671 147.09C113.578 146.195 115.31 146.395 116.865 147.688Z" fill="#EAEBFC"/>
<path fill-rule="evenodd" clip-rule="evenodd" d="M116.865 147.688C118.951 149.67 118.951 151.729 116.865 153.866C114.506 155.423 112.508 155.091 110.872 152.87C111.539 152.97 112.138 153.236 112.67 153.667C115.862 152.865 117.261 150.872 116.865 147.688Z" fill="#D1D5F4"/>
<path fill-rule="evenodd" clip-rule="evenodd" d="M92.0935 150.079C92.7723 150.016 93.4384 150.082 94.0912 150.279C94.5563 151.828 94.4228 153.356 93.6917 154.863C92.2377 155.636 91.4387 155.238 91.2944 153.667C91.4614 152.433 91.7279 151.237 92.0935 150.079Z" fill="#2D549F"/>
<path fill-rule="evenodd" clip-rule="evenodd" d="M90.4955 158.052C91.7209 157.859 92.52 158.324 92.8927 159.447C92.6598 160.61 92.327 161.739 91.8939 162.835C91.2151 163.196 90.4823 163.329 89.6964 163.234C89.5182 161.412 89.7843 159.685 90.4955 158.052Z" fill="#2D549F"/>
<path fill-rule="evenodd" clip-rule="evenodd" d="M88.8973 166.024C90.2678 165.727 90.9338 166.259 90.895 167.619C90.7208 168.687 90.5211 169.749 90.2957 170.808C88.7703 172.003 87.9049 171.604 87.6987 169.612C87.8621 168.325 88.2617 167.13 88.8973 166.024Z" fill="#3155A0"/>
<path fill-rule="evenodd" clip-rule="evenodd" d="M158.017 165.626C158.017 166.689 158.017 167.751 158.017 168.815C138.44 168.815 118.863 168.815 99.2853 168.815C99.1718 168.051 99.3048 167.387 99.6848 166.821C99.6848 167.353 99.6848 167.885 99.6848 168.416C108.475 168.416 117.264 168.416 126.054 168.416C136.575 168.416 147.097 168.416 157.618 168.416C157.497 167.396 157.631 166.465 158.017 165.626Z" fill="#709FD7"/>
</svg>
