<svg width="50" height="66" viewBox="0 0 50 66" fill="none" xmlns="http://www.w3.org/2000/svg">
<path d="M5.12511 13.2638V6.63186V-4.19617e-05L7.37582 0.190804C12.745 0.644062 17.7887 2.83879 21.5851 6.44102C27.117 11.6177 28.9881 19.2993 26.4119 26.0743C25.8696 27.5057 16.6498 43.2505 15.999 43.8707C15.8906 43.9662 12.2569 44.0139 7.89104 43.99L0 43.9184L6.50808 33.1833C8.44016 30.1417 12.3653 24.2374 12.9348 20.6114C13.0162 19.0488 12.9619 18.6075 12.3653 17.4862C11.9857 16.7706 11.1722 15.7448 10.5485 15.1961C9.40959 14.2419 7.05042 13.2638 5.80303 13.2638H5.12511Z" fill="white"/>
<path d="M44.8749 52.6283L44.8749 59.2602V65.8921L42.6242 65.7013C37.255 65.248 32.2113 63.0533 28.4149 59.4511C22.883 54.2744 21.0119 46.5928 23.5881 39.8178C24.1304 38.3864 33.3502 22.6416 34.001 22.0214C34.1094 21.9259 37.7431 21.8782 42.109 21.9021L50 21.9736L43.4919 32.7088C41.5598 35.7504 37.6347 41.6547 37.0652 45.2807C36.9838 46.8433 37.0381 47.2846 37.6347 48.4058C38.0143 49.1215 38.8278 50.1473 39.4515 50.696C40.5904 51.6502 42.9496 52.6283 44.197 52.6283H44.8749Z" fill="white"/>
</svg>
