<svg width="48" height="25" viewBox="0 0 48 25" fill="none" xmlns="http://www.w3.org/2000/svg">
<path d="M5.64991 4.62748C5.35241 4.65998 5.06741 4.86998 4.93491 5.15748L4.86241 5.31248L4.85491 7.45498L4.84741 9.59998H5.14991H5.44991L5.45241 7.55498C5.45241 6.03998 5.45991 5.48998 5.48241 5.42498C5.49991 5.37748 5.54991 5.31498 5.59741 5.28248L5.68241 5.22498H7.75241H9.82491V4.92498V4.62498L7.80741 4.61998C6.69491 4.61498 5.72491 4.61998 5.64991 4.62748Z" fill="#051529"/>
<path d="M6.94995 7.24743C6.77745 7.29993 6.64745 7.40993 6.55995 7.57493C6.51495 7.65993 6.51245 7.81743 6.51245 12.0749V16.4874L6.56745 16.5874C6.62995 16.7049 6.72745 16.7999 6.84995 16.8649C6.93245 16.9099 7.06245 16.9124 9.78245 16.9199L12.625 16.9249V15.7249V14.5249H10.8125H8.99995V10.8749V7.22493L8.00745 7.22743C7.45995 7.22743 6.98495 7.23743 6.94995 7.24743Z" fill="#051529"/>
<path d="M10.2999 8.42502V9.62502H12.0999H13.8999V11.45V13.275H15.1499H16.3999V10.48C16.3999 7.82502 16.3974 7.68252 16.3524 7.58752C16.2949 7.46002 16.1074 7.29252 15.9799 7.25502C15.9074 7.23252 15.1574 7.22502 13.0899 7.22502H10.2999V8.42502Z" fill="#051529"/>
<path d="M17.475 8.42493V9.62493H21.075H24.675V10.2499V10.8749H21.075H17.475V13.8999V16.9249H18.725H19.975V15.1099V13.2949L20.07 13.3749C20.12 13.4199 20.32 13.6099 20.5125 13.7974C20.705 13.9849 21.33 14.5899 21.9 15.1399C22.47 15.6874 23.12 16.3149 23.3425 16.5299L23.7475 16.9249H25.4375C26.3675 16.9249 27.125 16.9149 27.12 16.9049C27.115 16.8949 26.775 16.5599 26.3625 16.1624C25.5375 15.3674 24.535 14.3999 23.835 13.7249L23.385 13.2874L25.28 13.2799L27.175 13.2749V10.2499V7.22493H22.325H17.475V8.42493Z" fill="#051529"/>
<path d="M28.225 12.0749V16.9249H29.475H30.725V12.0749V7.22493H29.475H28.225V12.0749Z" fill="#051529"/>
<path d="M31.7999 10.2499V13.2749H35.0624H38.3249V13.8999V14.5249H35.0624H31.7999V15.7249V16.9249H36.6499H41.4999V13.8999V10.8749H38.2374H34.9749V10.2499V9.62493H38.2374H41.4999V8.42493V7.22493H36.6499H31.7999V10.2499Z" fill="#051529"/>
<path d="M10.2999 12.05V13.275H11.4749H12.6499V12.05V10.825H11.4749H10.2999V12.05ZM11.9749 12.05V12.575H11.4749H10.9749V12.05V11.525H11.4749H11.9749V12.05Z" fill="#051529"/>
<path d="M13.8999 17.0225C13.8999 18.6625 13.9074 19.5225 13.9249 19.53C13.9374 19.5325 14.4999 19.535 15.1749 19.53L16.3999 19.525V17.025V14.525H15.1499H13.8999V17.0225Z" fill="#051529"/>
<path d="M42.55 16.6C42.55 18.7975 42.5525 18.75 42.425 18.8625C42.37 18.9125 42.325 18.9125 40.2775 18.925L38.1875 18.9375L38.18 19.23L38.1725 19.525L40.205 19.53C41.3225 19.535 42.2975 19.53 42.37 19.52C42.655 19.485 42.9325 19.28 43.0675 19.005L43.1375 18.8625L43.145 16.705L43.1525 14.55H42.85H42.55V16.6Z" fill="#051529"/>
</svg>
