<svg width="33" height="18" viewBox="0 0 33 18" fill="none" xmlns="http://www.w3.org/2000/svg">
<path d="M31.6456 1.73253C31.4941 1.65453 31.321 1.60962 31.1426 1.60203C30.9642 1.59444 30.7864 1.62441 30.6259 1.68912C24.9772 3.96777 20.943 2.90006 16.6785 1.77376C12.193 0.596459 7.5614 -0.624244 1.15219 1.95605C0.975186 2.02732 0.825981 2.13812 0.721542 2.27584C0.617103 2.41357 0.56162 2.57269 0.561401 2.73513V15.7484C0.561376 15.8956 0.606794 16.0405 0.693381 16.1693C0.779967 16.2981 0.904875 16.4067 1.05635 16.4847C1.20782 16.5627 1.38088 16.6077 1.55924 16.6154C1.73759 16.623 1.91538 16.5932 2.07588 16.5285C7.72456 14.2499 11.7588 15.3176 16.0298 16.4439C18.5614 17.1112 21.1403 17.7916 24.0561 17.7916C26.3048 17.7916 28.7575 17.3879 31.5443 16.2659C31.7213 16.1947 31.8705 16.0839 31.9749 15.9462C32.0794 15.8084 32.1349 15.6493 32.1351 15.4869V2.47363C32.1367 2.32597 32.0926 2.18041 32.0069 2.05073C31.9213 1.92104 31.7969 1.81152 31.6456 1.73253ZM5.82456 11.7152C5.82456 11.9454 5.71366 12.1662 5.51625 12.329C5.31884 12.4918 5.0511 12.5832 4.77193 12.5832C4.49275 12.5832 4.22501 12.4918 4.02761 12.329C3.8302 12.1662 3.7193 11.9454 3.7193 11.7152V4.77072C3.7193 4.5405 3.8302 4.31971 4.02761 4.15691C4.22501 3.99412 4.49275 3.90267 4.77193 3.90267C5.0511 3.90267 5.31884 3.99412 5.51625 4.15691C5.71366 4.31971 5.82456 4.5405 5.82456 4.77072V11.7152ZM16.3509 12.5832C15.5181 12.5832 14.7041 12.3796 14.0116 11.998C13.3192 11.6165 12.7795 11.0742 12.4609 10.4398C12.1422 9.80529 12.0588 9.10715 12.2213 8.4336C12.3837 7.76006 12.7847 7.14137 13.3736 6.65577C13.9624 6.17017 14.7127 5.83947 15.5294 5.70549C16.3462 5.57152 17.1928 5.64028 17.9622 5.90308C18.7315 6.16589 19.3891 6.61093 19.8518 7.18194C20.3145 7.75294 20.5614 8.42426 20.5614 9.111C20.5614 10.0319 20.1178 10.9151 19.3282 11.5662C18.5385 12.2174 17.4676 12.5832 16.3509 12.5832ZM28.9825 13.4513C28.9825 13.6815 28.8716 13.9023 28.6741 14.0651C28.4767 14.2279 28.209 14.3193 27.9298 14.3193C27.6506 14.3193 27.3829 14.2279 27.1855 14.0651C26.9881 13.9023 26.8772 13.6815 26.8772 13.4513V6.50683C26.8772 6.27661 26.9881 6.05582 27.1855 5.89302C27.3829 5.73023 27.6506 5.63878 27.9298 5.63878C28.209 5.63878 28.4767 5.73023 28.6741 5.89302C28.8716 6.05582 28.9825 6.27661 28.9825 6.50683V13.4513Z" fill="#051529"/>
</svg>
