<svg width="203" height="218" viewBox="0 0 203 218" fill="none" xmlns="http://www.w3.org/2000/svg">
<path d="M51.5628 33.1594V16.5797V-0.000106812L57.1896 0.477013C70.6125 1.61016 83.2219 7.09699 92.7128 16.1025C106.542 29.0443 111.22 48.2482 104.78 65.1858C103.424 68.7642 80.3746 108.126 78.7476 109.677C78.4764 109.915 69.3922 110.035 58.4776 109.975L38.75 109.796L55.0202 82.9583C59.8504 75.3543 69.6634 60.5935 71.087 51.5284C71.2904 47.622 71.1548 46.5187 69.6634 43.7156C68.7143 41.9264 66.6805 39.3619 65.1213 37.9902C62.274 35.6046 56.376 33.1594 53.2576 33.1594H51.5628Z" fill="#1B6ED4"/>
<path d="M150.937 131.571V148.151V164.73L145.31 164.253C131.888 163.12 119.278 157.633 109.787 148.628C95.9575 135.686 91.2799 116.482 97.7201 99.5444C99.076 95.966 122.125 56.604 123.752 55.0534C124.024 54.8148 133.108 54.6955 144.022 54.7552L163.75 54.9341L147.48 81.7719C142.65 89.3759 132.837 104.137 131.413 113.202C131.21 117.108 131.345 118.212 132.837 121.015C133.786 122.804 135.82 125.368 137.379 126.74C140.226 129.126 146.124 131.571 149.242 131.571H150.937Z" fill="#1B6ED4"/>
<path d="M93.2874 193.849C93.0463 195.489 92.4799 196.996 91.588 198.367C90.6961 199.712 89.4788 200.802 87.936 201.636C86.4384 202.458 85.4384 202.458 83.0925 202.458H82.0921L81.1368 205.279L78.9251 213.054H73.3604L75.0933 206.487L76.9489 200.04L77.5106 197.48H82.9101C85.2242 197.48 86.5862 196.269 86.996 193.849C87.0442 193.418 87.0683 193.109 87.0683 192.921C87.0683 192.06 86.8152 191.401 86.3089 190.944C85.8269 190.459 85.0796 190.217 84.0672 190.217H80.4602L76.962 190.307L78.0774 184.73H85.405C88.0566 184.73 90.0573 185.389 91.4072 186.707C92.7571 187.998 93.432 189.76 93.432 191.993C93.432 192.665 93.3838 193.284 93.2874 193.849Z" fill="#1B6ED4"/>
<path d="M104.916 212.992C103.038 212.992 101.382 212.602 99.9471 211.821C98.5336 211.041 97.4365 209.944 96.6559 208.53C95.8753 207.117 95.4849 205.492 95.4849 203.657C95.4849 201.062 96.044 198.751 97.1622 196.726C98.2804 194.679 99.8311 193.087 101.814 191.947C103.819 190.808 106.087 190.238 108.618 190.238C110.517 190.238 112.184 190.629 113.618 191.409C115.053 192.169 116.161 193.255 116.941 194.669C117.722 196.061 118.112 197.665 118.112 199.479C118.112 202.074 117.553 204.406 116.435 206.473C115.317 208.52 113.756 210.123 111.751 211.283C109.747 212.423 107.468 212.992 104.916 212.992ZM105.738 207.992C107.131 207.992 108.355 207.633 109.409 206.916C110.464 206.199 111.277 205.239 111.846 204.036C112.437 202.813 112.732 201.494 112.732 200.08C112.732 198.561 112.31 197.369 111.466 196.504C110.623 195.639 109.441 195.207 107.922 195.207C106.53 195.207 105.295 195.566 104.219 196.283C103.165 197 102.342 197.96 101.751 199.163C101.181 200.344 100.897 201.652 100.897 203.087C100.897 204.606 101.318 205.809 102.162 206.695C103.006 207.56 104.198 207.992 105.738 207.992ZM132.986 190.555C135.286 190.555 137.037 191.082 138.24 192.137C139.442 193.171 140.043 194.521 140.043 196.188C140.043 196.673 140.001 197.127 139.917 197.549C139.664 199.026 139.02 200.344 137.986 201.505C136.953 202.665 135.571 203.488 133.841 203.973L137.417 212.771H131.309L128.176 204.384H126.878L125.391 212.771H119.98L123.904 190.555H132.986ZM134.379 197.77C134.421 197.433 134.442 197.211 134.442 197.106C134.442 196.431 134.22 195.914 133.777 195.555C133.355 195.175 132.723 194.985 131.879 194.985H128.524L127.543 200.555H130.898C131.889 200.555 132.67 200.313 133.239 199.827C133.83 199.342 134.21 198.656 134.379 197.77ZM161.285 190.555L160.557 194.827H154.639L151.475 212.771H146.063L149.228 194.827H143.341L144.101 190.555H161.285ZM175.358 208.847H167.067L165.041 212.771H159.377L171.339 190.555H177.605L181.719 212.771H175.991L175.358 208.847ZM174.725 204.733L173.428 196.504L169.187 204.733H174.725ZM191.06 208.657H198.149L197.421 212.771H184.921L188.845 190.555H194.257L191.06 208.657Z" fill="#1B6ED4"/>
<path d="M19.9266 193.848C19.6855 195.489 19.119 196.995 18.2271 198.367C17.3353 199.712 16.1179 200.801 14.5752 201.635C13.0776 202.457 12.0776 202.457 9.73169 202.457H8.73131L7.77594 205.278L5.56422 213.053H-0.000488281L1.73251 206.487L3.58804 200.04L4.14977 197.479H9.5493C11.8634 197.479 13.2253 196.269 13.6351 193.848C13.6833 193.418 13.7074 193.108 13.7074 192.92C13.7074 192.059 13.4543 191.4 12.9481 190.943C12.466 190.459 11.7188 190.217 10.7063 190.217H7.09939L3.60115 190.307L4.71658 184.73H12.0442C14.6957 184.73 16.6965 185.389 18.0464 186.707C19.3962 187.998 20.0712 189.76 20.0712 191.992C20.0712 192.665 20.023 193.283 19.9266 193.848Z" fill="#1B6ED4"/>
<path d="M32.9385 213.369C30.8498 213.369 28.9299 212.884 27.1788 211.913C25.4488 210.943 24.0669 209.592 23.0331 207.862C22.0204 206.111 21.5141 204.149 21.5141 201.976C21.5141 199.803 22.0204 197.852 23.0331 196.122C24.0669 194.392 25.4488 193.041 27.1788 192.071C28.9299 191.1 30.8498 190.615 32.9385 190.615C35.0271 190.615 36.9365 191.1 38.6665 192.071C40.4176 193.041 41.789 194.392 42.7806 196.122C43.7932 197.852 44.2996 199.803 44.2996 201.976C44.2996 204.149 43.7932 206.111 42.7806 207.862C41.7679 209.592 40.3965 210.943 38.6665 211.913C36.9365 212.884 35.0271 213.369 32.9385 213.369ZM32.9385 208.432C34.7107 208.432 36.1242 207.841 37.1791 206.66C38.2551 205.478 38.7931 203.917 38.7931 201.976C38.7931 200.014 38.2551 198.453 37.1791 197.293C36.1242 196.111 34.7107 195.52 32.9385 195.52C31.1452 195.52 29.7105 196.101 28.6345 197.261C27.5797 198.421 27.0522 199.993 27.0522 201.976C27.0522 203.938 27.5797 205.51 28.6345 206.692C29.7105 207.852 31.1452 208.432 32.9385 208.432ZM56.1039 213.369C54.4794 213.369 53.0236 213.105 51.7367 212.578C50.4497 212.05 49.4159 211.27 48.6353 210.236C47.8758 209.202 47.4749 207.957 47.4327 206.502H53.1924C53.2768 207.324 53.5616 207.957 54.0469 208.4C54.5321 208.822 55.165 209.033 55.9457 209.033C56.7474 209.033 57.3803 208.854 57.8445 208.495C58.3086 208.116 58.5407 207.599 58.5407 206.945C58.5407 206.396 58.3508 205.943 57.971 205.584C57.6124 205.225 57.1588 204.93 56.6102 204.698C56.0828 204.466 55.3233 204.202 54.3317 203.907C52.897 203.464 51.7261 203.021 50.8189 202.578C49.9117 202.134 49.1311 201.48 48.4771 200.615C47.823 199.75 47.496 198.622 47.496 197.229C47.496 195.162 48.245 193.548 49.7429 192.387C51.2409 191.206 53.1924 190.615 55.5975 190.615C58.0449 190.615 60.0175 191.206 61.5155 192.387C63.0134 193.548 63.8151 195.172 63.9206 197.261H58.066C58.0238 196.544 57.7601 195.984 57.2748 195.584C56.7896 195.162 56.1672 194.951 55.4077 194.951C54.7536 194.951 54.2262 195.13 53.8253 195.489C53.4245 195.826 53.2241 196.322 53.2241 196.976C53.2241 197.693 53.5616 198.252 54.2367 198.653C54.9119 199.054 55.9668 199.487 57.4014 199.951C58.836 200.436 59.9964 200.9 60.8825 201.343C61.7897 201.786 62.5703 202.43 63.2244 203.274C63.8784 204.118 64.2054 205.204 64.2054 206.533C64.2054 207.799 63.8784 208.949 63.2244 209.983C62.5914 211.017 61.6631 211.839 60.4395 212.451C59.2158 213.063 57.7706 213.369 56.1039 213.369Z" fill="#1B6ED4"/>
</svg>
