<svg width="114" height="113" viewBox="0 0 114 113" fill="none" xmlns="http://www.w3.org/2000/svg">
<circle cx="57.0119" cy="56.623" r="56.3613" fill="url(#paint0_linear_203_6843)"/>
<mask id="mask0_203_6843" style="mask-type:alpha" maskUnits="userSpaceOnUse" x="0" y="0" width="114" height="113">
<circle cx="57.0119" cy="56.623" r="56.3613" fill="url(#paint1_linear_203_6843)"/>
</mask>
<g mask="url(#mask0_203_6843)">
<path d="M99.4935 90.3169C97.4581 88.2162 95.9017 85.7019 94.9439 82.9373C94.9112 83.0026 94.8677 83.0679 94.835 83.1332C95.0854 83.0788 95.3248 83.0353 95.5751 82.9808C95.7166 82.9482 95.7384 82.7523 95.6187 82.687C94.6826 82.1863 94.5738 80.5754 94.367 79.6502C94.0949 78.4421 93.8445 77.2339 93.6268 76.0257C93.1697 73.5441 92.8214 71.0407 92.5711 68.5264C92.484 68.57 92.4078 68.6244 92.3207 68.6679C94.1384 69.7455 95.869 70.9536 97.4908 72.3142C98.9493 73.5441 100.408 74.8611 101.442 76.472C102.552 78.1808 103.085 80.2489 103.412 82.2298C103.782 84.4176 103.782 86.6489 103.259 88.8148C103.205 89.0217 103.521 89.1087 103.575 88.9019C104.391 85.604 103.978 82.0883 102.933 78.8883C101.921 75.8298 99.635 73.6203 97.186 71.6394C95.7058 70.4421 94.1275 69.3536 92.4949 68.3849C92.3969 68.3305 92.2337 68.3958 92.2445 68.5264C92.5058 71.2149 92.8867 73.8815 93.3874 76.5264C93.6377 77.8434 93.9098 79.1604 94.2255 80.4557C94.4323 81.3373 94.5738 82.491 95.4554 82.97C95.4663 82.872 95.4772 82.774 95.499 82.6761C95.2486 82.7305 95.0092 82.774 94.7588 82.8285C94.6717 82.8502 94.6173 82.9482 94.65 83.0244C95.6296 85.8434 97.2078 88.4012 99.2867 90.5455C99.4173 90.6978 99.6459 90.4693 99.4935 90.3169Z" fill="#E8E8E8"/>
<path d="M92.6026 68.7985C96.5427 74.5019 99.2638 80.989 100.57 87.7917C100.613 87.9985 100.929 87.9114 100.886 87.7046C99.5686 80.8693 96.8366 74.3495 92.8747 68.6244C92.7659 68.4611 92.4829 68.6244 92.6026 68.7985Z" fill="#E8E8E8"/>
<path d="M93.9095 78.1809C95.553 78.5401 97.2837 78.9428 98.4265 80.2816C98.5571 80.4449 98.7966 80.2054 98.6551 80.053C97.4796 78.6707 95.6945 78.2354 93.9966 77.8653C93.7898 77.8218 93.7027 78.1374 93.9095 78.1809Z" fill="#E8E8E8"/>
<path d="M98.2419 78.2025C98.1222 76.6786 98.3616 75.1657 98.9712 73.7616C99.0582 73.5657 98.7752 73.4025 98.6882 73.5984C98.0569 75.0569 97.7848 76.6133 97.9154 78.2025C97.9372 78.4093 98.2637 78.4093 98.2419 78.2025Z" fill="#E8E8E8"/>
<path d="M100.865 75.2095C101.649 70.3333 104.99 66.5456 108.19 63.0082C108.103 62.9537 108.005 62.8993 107.918 62.8449C107.167 65.5333 108.931 68.0258 109.573 70.551C109.921 71.9442 110.084 73.3809 110.117 74.8177C110.139 75.5252 110.128 76.2435 110.106 76.951C110.095 77.2993 110.095 77.6585 110.019 77.9959C109.91 78.4639 109.388 79.1932 108.833 78.7034C108.767 78.7905 108.702 78.8775 108.637 78.9646C109.594 79.4653 109.246 80.902 109.094 81.7401C108.898 82.8721 108.571 83.9496 107.842 84.8639C106.786 86.17 105.273 87.1388 104.773 88.8149C104.707 89.0217 105.023 89.0979 105.088 88.902C105.709 86.8558 107.897 85.8762 108.8 83.9823C109.268 83.0027 109.475 81.849 109.573 80.7823C109.649 80.0095 109.573 79.0843 108.8 78.6925C108.648 78.6163 108.452 78.8231 108.604 78.9537C108.941 79.2585 109.409 79.2585 109.79 79.0082C110.215 78.7252 110.346 78.2027 110.389 77.7129C110.563 76.0694 110.487 74.3388 110.291 72.7061C110.095 71.0735 109.66 69.5388 109.05 68.0258C108.408 66.415 107.744 64.7061 108.234 62.9537C108.277 62.8014 108.071 62.6708 107.962 62.7905C104.729 66.3714 101.344 70.2136 100.55 75.1333C100.517 75.3292 100.833 75.4163 100.865 75.2095Z" fill="#E8E8E8"/>
<path d="M107.547 63.955C105.283 69.5387 103.879 75.438 103.379 81.4462C103.357 81.653 103.683 81.653 103.705 81.4462C104.206 75.4706 105.61 69.604 107.863 64.0421C107.939 63.8571 107.624 63.77 107.547 63.955Z" fill="#E8E8E8"/>
<path d="M76.4403 81.0543C79.107 81.6311 81.7083 80.3468 84.2771 79.8352C87.107 79.2801 90.024 79.2801 92.8648 79.7917C93.0716 79.8243 93.1587 79.5196 92.9519 79.476C90.3179 78.9971 87.6294 78.9645 84.9954 79.3781C83.6458 79.5958 82.3396 79.9658 81.0335 80.3359C79.5641 80.7386 78.0512 81.0652 76.5383 80.7386C76.3206 80.6951 76.2335 80.9999 76.4403 81.0543Z" fill="#E8E8E8"/>
<path d="M109.768 80.053C111.314 79.7591 112.837 80.1292 114.329 80.4993C115.787 80.8476 117.256 81.1632 118.748 81.4244C121.621 81.9251 124.538 82.219 127.455 82.3387C127.662 82.3496 127.662 82.0231 127.455 82.0122C124.353 81.8925 121.273 81.555 118.214 80.9999C116.734 80.7278 115.276 80.3904 113.817 80.0421C112.456 79.7156 111.074 79.4761 109.681 79.7482C109.485 79.7809 109.572 80.0965 109.768 80.053Z" fill="#E8E8E8"/>
<path d="M-13.2574 70.932C-9.40439 70.0395 -5.55133 69.0054 -1.64385 68.4395C2.25274 67.8844 6.20376 67.8191 10.133 68.1565C17.6867 68.8095 25.0228 70.7905 32.4241 72.3252C36.5058 73.1741 40.6309 73.8707 44.7996 74.1537C45.0064 74.1646 45.0064 73.8381 44.7996 73.8272C37.1588 73.3048 29.7357 71.3565 22.269 69.7673C14.8459 68.2 7.29219 67.068 -0.305077 67.9388C-4.71323 68.4503 -9.02344 69.615 -13.3445 70.6163C-13.5513 70.6599 -13.4642 70.9755 -13.2574 70.932Z" fill="#E8E8E8"/>
<path d="M17.6547 68.7984C24.0438 68.2433 30.3023 66.7413 36.4955 65.1304C42.8302 63.476 49.1649 61.7998 55.4996 60.1236C61.8234 58.4583 68.1363 56.7495 74.4819 55.1277C77.6384 54.3223 80.8275 53.593 84.071 53.2882C87.1948 52.9944 90.3513 53.0379 93.4751 53.3318C100.768 54.0066 107.864 55.9549 114.906 57.8923C115.113 57.9468 115.2 57.6311 114.993 57.5767C108.8 55.8678 102.574 54.159 96.1853 53.31C93.007 52.8855 89.7853 52.6678 86.5744 52.7985C83.4179 52.9182 80.305 53.4189 77.2247 54.1155C74.0901 54.8338 70.988 55.6937 67.8751 56.5209C64.6969 57.359 61.5186 58.1971 58.3404 59.0352C51.9186 60.7223 45.486 62.4202 39.0642 64.1073C32.0221 65.9576 24.9364 67.8297 17.6547 68.461C17.4479 68.4937 17.4479 68.8202 17.6547 68.7984Z" fill="#E8E8E8"/>
<path d="M0.118977 88.3686C2.77476 88.4666 5.44142 88.5646 8.0972 88.6625C10.6877 88.7605 13.289 88.9129 15.8795 88.9346C18.4047 88.9564 20.8428 88.4666 23.3244 88.0203C25.9149 87.5523 28.538 87.2149 31.1611 87.0299C34.089 86.8122 37.0278 86.7795 39.9557 86.8993C40.1625 86.9101 40.1625 86.5836 39.9557 86.5727C34.8183 86.355 29.67 86.6489 24.5979 87.4761C22.0074 87.9006 19.4387 88.5537 16.8156 88.6081C14.2469 88.6734 11.6455 88.4775 9.07679 88.3795C6.09448 88.2707 3.11217 88.1618 0.129862 88.053C-0.0878247 88.0312 -0.0878254 88.3578 0.118977 88.3686Z" fill="#E8E8E8"/>
<path d="M-3.20095 95.2148C-2.25401 92.7332 -0.58871 90.5672 1.57727 89.0325C1.50108 89.0108 1.42489 88.989 1.3487 88.9781C1.95823 90.3713 2.37183 91.8298 2.58952 93.3319C2.62217 93.2665 2.66571 93.2012 2.69836 93.1359C2.43714 93.2121 2.17591 93.2883 1.9038 93.3645C1.79496 93.3972 1.76231 93.506 1.80585 93.604C2.11061 94.3332 2.44802 95.1604 2.11061 95.9332C1.82761 96.5754 1.21809 97.0543 0.7936 97.5876C0.0208118 98.5455 -0.577826 99.6121 -1.03497 100.744C-1.11116 100.94 -0.795513 101.027 -0.719323 100.831C-0.1098 99.2965 0.804485 98.0774 1.88203 96.8475C2.27387 96.4012 2.56775 95.9114 2.58952 95.3019C2.61129 94.6489 2.33918 94.0285 2.08884 93.4407C2.05619 93.5169 2.02353 93.604 1.99088 93.6802C2.2521 93.604 2.51333 93.5278 2.78544 93.4516C2.87251 93.4298 2.91605 93.3427 2.89428 93.2557C2.66571 91.721 2.24122 90.2407 1.62081 88.8149C1.58816 88.7387 1.46843 88.706 1.39224 88.7604C-0.849936 90.3604 -2.55878 92.5699 -3.53837 95.1387C-3.58191 95.3237 -3.27714 95.4108 -3.20095 95.2148Z" fill="#E8E8E8"/>
<path d="M-8.27234 85.0271C-4.46282 84.287 -0.566225 84.004 3.26506 84.7332C5.0501 85.0706 6.81336 85.4625 8.62016 85.6693C10.5249 85.8869 12.4514 85.974 14.3671 86.0502C14.5739 86.0611 14.5739 85.7346 14.3671 85.7237C12.4514 85.6366 10.5249 85.5604 8.62016 85.3427C6.63921 85.1142 4.7018 84.6461 2.73173 84.3087C-0.947176 83.6774 -4.72404 84.0148 -8.35941 84.7223C-8.56622 84.755 -8.47914 85.0706 -8.27234 85.0271Z" fill="#E8E8E8"/>
<path d="M6.08374 97.9687C8.26061 97.6204 10.4375 97.2612 12.6361 97.1306C14.8674 97 17.0225 97.185 19.2103 97.5878C21.213 97.9578 23.1504 98.132 25.1966 98.0884C27.3191 98.034 29.4633 97.9361 31.5313 98.4912C31.7381 98.5456 31.8252 98.2299 31.6184 98.1755C29.6157 97.6313 27.5585 97.6966 25.5014 97.751C24.413 97.7837 23.3137 97.7946 22.2252 97.7075C21.1041 97.6204 19.9939 97.3918 18.8946 97.1959C16.783 96.815 14.6824 96.6735 12.5273 96.8041C10.3395 96.9456 8.16265 97.2939 5.99667 97.6422C5.78986 97.6857 5.87694 98.0014 6.08374 97.9687Z" fill="#E8E8E8"/>
<path d="M65.915 100.57C69.9967 99.9823 74.1001 99.634 78.2252 99.5469C82.2416 99.4598 86.2579 99.6231 90.2742 99.7102C90.481 99.7102 90.481 99.3837 90.2742 99.3837C86.1926 99.2966 82.1001 99.1333 78.0075 99.2313C73.9259 99.3292 69.8661 99.6775 65.828 100.254C65.6212 100.287 65.7082 100.592 65.915 100.57Z" fill="#E8E8E8"/>
<path d="M84.0053 102.91C85.5617 102.246 87.2379 103.052 88.8379 102.975C89.1753 102.954 89.5236 102.91 89.8502 102.801C90.2964 102.649 90.71 102.41 91.1889 102.388C92.0161 102.344 92.7889 102.66 93.6161 102.529C93.8229 102.497 93.7359 102.181 93.5291 102.214C92.6039 102.366 91.7005 101.909 90.7862 102.116C90.3726 102.203 90.0025 102.42 89.5998 102.54C89.1862 102.649 88.7617 102.671 88.3372 102.66C86.8243 102.595 85.3114 102.018 83.8311 102.649C83.657 102.703 83.8202 102.986 84.0053 102.91Z" fill="#E8E8E8"/>
<path d="M106.023 90.8829C108.766 90.0666 111.509 90.0884 114.317 90.4258C116.962 90.7414 119.629 91.155 122.285 90.687C122.491 90.6544 122.404 90.3387 122.198 90.3714C119.433 90.8612 116.657 90.3605 113.904 90.0557C111.194 89.751 108.549 89.7836 105.925 90.5782C105.74 90.6326 105.817 90.9482 106.023 90.8829Z" fill="#E8E8E8"/>
<path d="M95.0851 28.6462C93.0606 27.5577 91.7436 25.4462 92.0484 23.1061C92.3205 20.9618 94.0402 19.1115 96.1409 18.6108C98.2851 18.1101 100.68 19.1224 101.844 20.9836C103.096 22.9754 102.824 25.6095 101.289 27.3727C99.5477 29.3754 96.5001 29.6802 94.3015 28.2652C94.1273 28.1455 93.9641 28.4285 94.1382 28.5482C96.1845 29.8761 99.0144 29.789 100.908 28.2108C102.791 26.6435 103.488 23.9224 102.552 21.6475C101.659 19.4816 99.3736 18.0666 97.0334 18.1646C94.726 18.2734 92.6362 19.9387 91.9396 22.1265C91.0688 24.8367 92.5273 27.6231 94.9328 28.9183C95.1069 29.0271 95.2702 28.7441 95.0851 28.6462Z" fill="#E8E8E8"/>
<path d="M1.14223 52.4503C2.25243 51.4599 3.80889 52.1347 4.6361 53.136C5.06059 53.6476 5.31093 54.2245 5.63746 54.7905C5.84426 55.1714 6.14903 55.5524 6.60617 55.6394C6.96535 55.7048 7.25923 55.5741 7.49868 55.3129C7.65106 55.1388 7.74903 54.9102 7.90141 54.736C8.22794 54.3551 8.65243 54.3986 9.00073 54.7034C9.76263 55.3673 9.79528 57.0109 11.1341 56.8911C11.3409 56.8694 11.3409 56.5428 11.1341 56.5646C9.74086 56.6952 9.90413 54.3551 8.56535 54.1265C8.17352 54.0612 7.85787 54.2354 7.61841 54.5401C7.46603 54.736 7.36807 55.0082 7.17215 55.1714C6.60617 55.6394 6.10549 54.9864 5.87692 54.5401C5.32182 53.517 4.7776 52.4503 3.67828 51.917C2.77488 51.4816 1.67556 51.5252 0.913656 52.2109C0.761275 52.3524 0.989847 52.5918 1.14223 52.4503Z" fill="#E8E8E8"/>
<path d="M74.4044 37.7998C74.1867 37.2121 73.9254 36.5155 74.3173 35.9386C74.6765 35.4271 75.286 35.6883 75.7976 35.525C76.4724 35.3073 76.886 34.6434 77.071 34.0012C77.2887 33.2502 77.0275 32.2706 77.4737 31.6067C78.018 30.7903 79.1935 31.7917 79.9336 31.291C80.1078 31.1713 79.9445 30.8883 79.7703 31.008C79.0193 31.5196 77.9962 30.4747 77.2887 31.3128C76.7227 31.9767 76.9839 32.989 76.7989 33.7726C76.6683 34.3169 76.3744 34.8937 75.8629 35.155C75.4166 35.3835 74.905 35.155 74.4588 35.3835C73.5009 35.8733 73.8057 37.0924 74.0996 37.8869C74.154 38.072 74.4697 37.9958 74.4044 37.7998Z" fill="#E8E8E8"/>
<path d="M75.5803 30.1699C75.3735 29.6257 75.4932 29.0053 75.896 28.5699C76.3966 28.0257 76.9735 28.2434 77.5939 28.0257C77.964 27.8951 78.1817 27.5795 78.3232 27.2312C78.4102 27.0135 78.4647 26.7849 78.5408 26.5672C78.6061 26.3931 78.6823 26.1971 78.813 26.0665C79.0089 25.8815 79.4769 25.7291 79.5966 26.1427C79.6619 26.3386 79.9667 26.2624 79.9123 26.0556C79.7708 25.5985 79.2374 25.4352 78.8238 25.6529C78.0402 26.0556 78.3232 27.2529 77.5939 27.6556C77.1912 27.8733 76.6905 27.7427 76.266 27.9169C75.9939 28.0366 75.7545 28.2325 75.5694 28.4611C75.1667 28.9727 75.0361 29.6475 75.2647 30.257C75.33 30.4529 75.6456 30.3658 75.5803 30.1699Z" fill="#E8E8E8"/>
<path d="M84.7455 41.7944C84.419 41.3264 84.5169 40.6625 84.9414 40.2706C85.4312 39.8135 86.1387 40.0203 86.4761 40.5427C87.2489 41.7074 85.5401 42.7305 84.7237 41.7618C84.5822 41.5985 84.3537 41.838 84.4952 41.9903C84.9632 42.5454 85.8339 42.6108 86.4326 42.2189C87.1074 41.7835 87.1618 40.9019 86.6938 40.2815C86.2367 39.672 85.3877 39.4652 84.7782 39.9659C84.2013 40.4339 84.0271 41.3264 84.4625 41.9468C84.5822 42.1318 84.8652 41.9686 84.7455 41.7944Z" fill="#E8E8E8"/>
<path d="M85.9751 43.6013C85.6703 43.1768 85.2894 42.6652 85.42 42.121C85.6159 41.3155 86.5737 41.5223 87.0091 42.0013C87.3683 42.404 87.4989 43.0353 87.0417 43.4162C86.6934 43.7101 86.1601 43.7645 85.8444 43.4162C85.7029 43.2638 85.4744 43.4924 85.6159 43.6448C86.0513 44.1128 86.7914 44.0693 87.2594 43.6666C87.8145 43.1877 87.7492 42.3931 87.3138 41.8598C86.8785 41.3155 85.888 40.9237 85.3438 41.5441C84.7342 42.2407 85.2458 43.1441 85.6921 43.7645C85.8118 43.9387 86.0948 43.7754 85.9751 43.6013Z" fill="#E8E8E8"/>
<path d="M12.7783 66.2842C13.9973 66.6543 15.2381 66.872 16.5007 66.9155C16.7075 66.9264 16.7075 66.5999 16.5007 66.589C15.2599 66.5454 14.0409 66.3386 12.8654 65.9686C12.6586 65.9033 12.5715 66.2189 12.7783 66.2842Z" fill="#E8E8E8"/>
<path d="M94.4107 57.5769C101.812 57.5225 108.778 60.2871 115.766 62.3333C117.769 62.9211 119.793 63.4544 121.839 63.8572C122.046 63.9007 122.133 63.585 121.926 63.5415C114.666 62.1048 107.82 59.0245 100.517 57.7728C98.5032 57.4245 96.457 57.2286 94.4107 57.2504C94.2039 57.2504 94.2039 57.5769 94.4107 57.5769Z" fill="#E8E8E8"/>
<path d="M21.6483 10.3823C22.0293 11.2966 22.4973 13.3211 23.8687 12.4177C24.3259 12.1238 25.0007 11.264 25.4905 11.9606C25.7844 12.3742 25.8062 12.9184 26.3613 13.1034C26.5572 13.1687 26.6443 12.8531 26.4483 12.7878C25.9368 12.6136 25.9368 11.83 25.5232 11.5143C25.2511 11.3075 24.9136 11.3184 24.6198 11.4708C24.1844 11.6776 23.8687 12.1456 23.4116 12.298C22.5953 12.5701 22.1817 10.8177 21.964 10.2953C21.8769 10.1102 21.5613 10.1864 21.6483 10.3823Z" fill="#E8E8E8"/>
<path d="M25.0344 10.5783C25.6439 10.1102 26.5364 10.3279 26.8412 11.0354C27.0262 11.4817 27.1677 11.7429 27.6902 11.7756C27.9405 11.7864 28.2126 11.6994 28.463 11.7429C28.9854 11.83 28.9854 12.2871 29.0725 12.7116C29.1596 13.1361 29.3555 13.5062 29.8126 13.5606C30.0194 13.5824 30.0194 13.2558 29.8126 13.2341C29.214 13.1687 29.4643 11.9388 28.9963 11.5905C28.4956 11.2204 27.7446 11.7102 27.3528 11.2531C27.1677 11.0354 27.1133 10.7415 26.9174 10.5239C26.765 10.3388 26.5582 10.2082 26.3296 10.1211C25.8398 9.92521 25.2956 9.99052 24.882 10.3062C24.697 10.4259 24.8603 10.7089 25.0344 10.5783Z" fill="#E8E8E8"/>
<path d="M34.8296 20.842C35.5153 20.9835 36.2446 20.5481 36.4296 19.8515C36.6037 19.1985 36.1792 18.5781 35.5588 18.3713C34.1112 17.8815 33.3058 19.8733 34.4813 20.6896C34.6554 20.8093 34.8187 20.5264 34.6446 20.4066C33.8173 19.8298 34.3289 18.3821 35.3847 18.6542C35.8418 18.774 36.2228 19.1876 36.1357 19.6774C36.0377 20.2325 35.4718 20.6352 34.9167 20.5155C34.7099 20.4828 34.6228 20.7985 34.8296 20.842Z" fill="#E8E8E8"/>
<path d="M35.8852 21.3973C35.624 21.1905 35.3084 20.9619 35.1995 20.6245C35.0471 20.1673 35.4825 19.6231 35.9941 19.7537C36.3533 19.8517 36.6036 20.2653 36.5165 20.6354C36.4077 21.049 35.9397 21.2558 35.5478 21.1578C35.341 21.1034 35.2539 21.419 35.4607 21.4735C35.9941 21.6041 36.5818 21.3537 36.7995 20.8313C37.0063 20.3197 36.7233 19.6993 36.2226 19.4816C35.722 19.2748 35.1451 19.5469 34.9274 20.0258C34.6227 20.6898 35.1778 21.2449 35.6675 21.6258C35.809 21.7565 36.0485 21.5279 35.8852 21.3973Z" fill="#E8E8E8"/>
<path d="M14.1705 42.8937C13.6698 42.4474 13.5718 41.7726 14.0616 41.2719C14.4861 40.8474 15.1174 40.8583 15.5201 41.3046C16.3582 42.2406 15.1501 43.4597 14.1596 42.8175C13.9855 42.6978 13.8222 42.9808 13.9963 43.1005C14.5841 43.4815 15.3895 43.3508 15.8467 42.8284C16.3147 42.2842 16.1732 41.4679 15.6725 40.9889C15.1392 40.4883 14.3446 40.5209 13.8331 41.0325C13.2127 41.6529 13.3106 42.5563 13.9419 43.1223C14.0943 43.2638 14.3229 43.0352 14.1705 42.8937Z" fill="#E8E8E8"/>
<path d="M60.5713 12.1238C61.2026 10.7414 62.0842 9.51152 63.1726 8.45574C63.325 8.31424 63.0964 8.07479 62.9441 8.22717C61.8339 9.30472 60.9414 10.5564 60.2883 11.9714C60.2012 12.1455 60.4842 12.3197 60.5713 12.1238Z" fill="#E8E8E8"/>
<path d="M61.9314 11.9061C62.5844 11.1006 63.3137 10.3496 64.0974 9.66389C64.2606 9.52239 64.0212 9.29382 63.8688 9.43532C63.0851 10.121 62.3668 10.8721 61.7028 11.6775C61.5722 11.8408 61.8008 12.0693 61.9314 11.9061Z" fill="#E8E8E8"/>
<path d="M62.7596 12.8857C63.0535 12.6353 63.3473 12.3959 63.6412 12.1455C63.8045 12.0149 63.565 11.7755 63.4127 11.917C63.1188 12.1673 62.8249 12.4068 62.531 12.6571C62.3678 12.7877 62.5963 13.0163 62.7596 12.8857Z" fill="#E8E8E8"/>
</g>
<mask id="mask1_203_6843" style="mask-type:alpha" maskUnits="userSpaceOnUse" x="0" y="0" width="114" height="113">
<circle cx="57.0119" cy="56.623" r="56.3613" fill="url(#paint2_linear_203_6843)"/>
</mask>
<g mask="url(#mask1_203_6843)">
<path d="M82.2671 54.0451H81.3874C81.214 54.0451 81.0734 54.1859 81.0734 54.3596V66.1735C81.0734 66.3472 81.214 66.488 81.3874 66.488H82.2671C82.4405 66.488 82.5812 66.3472 82.5812 66.1735V54.3596C82.5812 54.1859 82.4405 54.0451 82.2671 54.0451Z" fill="#EDEDED"/>
<path d="M76.5398 30.7596H36.7944C33.8411 30.7596 31.447 33.1569 31.447 36.1142V128.055C31.447 131.012 33.8411 133.409 36.7944 133.409H76.5398C79.4931 133.409 81.8872 131.012 81.8872 128.055V36.1142C81.8872 33.1569 79.4931 30.7596 76.5398 30.7596Z" fill="#F4F4F4"/>
<path d="M75.7511 33.81H69.9651V34.507C69.9651 34.9408 69.8797 35.3704 69.7139 35.7712C69.548 36.172 69.305 36.5361 68.9985 36.8428C68.6921 37.1495 68.3283 37.3927 67.928 37.5585C67.5276 37.7244 67.0986 37.8096 66.6653 37.8094H48.2643C47.831 37.8096 47.402 37.7244 47.0016 37.5585C46.6013 37.3927 46.2375 37.1495 45.9311 36.8428C45.6246 36.5361 45.3815 36.172 45.2157 35.7712C45.0498 35.3704 44.9645 34.9408 44.9645 34.507V33.81H39.5471C38.4847 33.81 37.4657 34.2326 36.7145 34.9849C35.9632 35.7372 35.5411 36.7575 35.5411 37.8214V127.108C35.5411 128.172 35.9632 129.192 36.7145 129.944C37.4657 130.697 38.4847 131.119 39.5471 131.119H75.7511C76.8136 131.119 77.8325 130.697 78.5838 129.944C79.335 129.192 79.7571 128.172 79.7571 127.108V37.8282C79.758 37.3009 79.655 36.7785 79.4541 36.291C79.2532 35.8036 78.9583 35.3605 78.5862 34.9873C78.2141 34.6141 77.7722 34.318 77.2857 34.116C76.7993 33.914 76.2778 33.81 75.7511 33.81Z" fill="#F3F7FC"/>
<path d="M58.3151 33.8252H52.3331C52.04 33.8252 51.8024 34.0631 51.8024 34.3567V34.7251C51.8024 35.0187 52.04 35.2566 52.3331 35.2566H58.3151C58.6083 35.2566 58.8459 35.0187 58.8459 34.7251V34.3567C58.8459 34.0631 58.6083 33.8252 58.3151 33.8252Z" fill="#FEFEFE"/>
<path d="M60.7217 35.3538C61.17 35.3538 61.5335 34.9899 61.5335 34.5409C61.5335 34.092 61.17 33.7281 60.7217 33.7281C60.2734 33.7281 59.9099 34.092 59.9099 34.5409C59.9099 34.9899 60.2734 35.3538 60.7217 35.3538Z" fill="#FEFEFE"/>
<path d="M56.9748 92.899C62.2446 92.899 66.5166 88.6213 66.5166 83.3444C66.5166 78.0676 62.2446 73.7898 56.9748 73.7898C51.705 73.7898 47.433 78.0676 47.433 83.3444C47.433 88.6213 51.705 92.899 56.9748 92.899Z" fill="#F3F7FC"/>
<path d="M69.526 61.0804C69.526 63.6061 68.7779 66.075 67.3765 68.175C65.9752 70.275 63.9834 71.9117 61.653 72.8782C59.3227 73.8446 56.7585 74.0975 54.2846 73.6046C51.8108 73.1118 49.5385 71.8955 47.755 70.1095C45.9715 68.3235 44.757 66.0481 44.265 63.5709C43.773 61.0937 44.0256 58.5261 44.9909 56.1927C45.9563 53.8593 47.5909 51.8649 49.6882 50.4618C51.7855 49.0587 54.2511 48.3098 56.7734 48.3099C58.4482 48.3099 60.1065 48.6403 61.6538 49.2821C63.201 49.9239 64.6069 50.8646 65.7911 52.0504C66.9753 53.2363 67.9146 54.6441 68.5554 56.1935C69.1963 57.7428 69.5261 59.4034 69.526 61.0804ZM55.2992 67.8399L64.7593 58.3671C64.8359 58.2907 64.8966 58.1998 64.9381 58.0998C64.9795 57.9998 65.0009 57.8926 65.0009 57.7844C65.0009 57.6761 64.9795 57.5689 64.9381 57.4689C64.8966 57.3689 64.8359 57.278 64.7593 57.2016L63.5953 56.0446C63.5191 55.9679 63.4286 55.9072 63.3288 55.8657C63.2291 55.8242 63.1222 55.8028 63.0142 55.8028C62.9062 55.8028 62.7993 55.8242 62.6995 55.8657C62.5998 55.9072 62.5092 55.9679 62.433 56.0446L54.7173 63.7707L51.1147 60.1548C50.9601 60.0008 50.7508 59.9143 50.5327 59.9143C50.3146 59.9143 50.1054 60.0008 49.9507 60.1548L48.7868 61.3272C48.633 61.482 48.5466 61.6916 48.5466 61.91C48.5466 62.1283 48.633 62.3379 48.7868 62.4927L54.1355 67.8468C54.2119 67.9234 54.3026 67.9842 54.4025 68.0257C54.5023 68.0672 54.6094 68.0886 54.7175 68.0886C54.8256 68.0886 54.9327 68.0672 55.0326 68.0257C55.1325 67.9842 55.2232 67.9234 55.2995 67.8468L55.2992 67.8399Z" fill="#0B5DB6"/>
</g>
<defs>
<linearGradient id="paint0_linear_203_6843" x1="109.713" y1="-33.7748" x2="-19.4785" y2="130.552" gradientUnits="userSpaceOnUse">
<stop stop-color="#1A72DD"/>
<stop offset="1" stop-color="#244DBB"/>
</linearGradient>
<linearGradient id="paint1_linear_203_6843" x1="109.713" y1="-33.7748" x2="-19.4785" y2="130.552" gradientUnits="userSpaceOnUse">
<stop stop-color="#1A72DD"/>
<stop offset="1" stop-color="#244DBB"/>
</linearGradient>
<linearGradient id="paint2_linear_203_6843" x1="109.713" y1="-33.7748" x2="-19.4785" y2="130.552" gradientUnits="userSpaceOnUse">
<stop stop-color="#1A72DD"/>
<stop offset="1" stop-color="#244DBB"/>
</linearGradient>
</defs>
</svg>
