<svg width="360" height="404" viewBox="0 0 360 404" fill="none" xmlns="http://www.w3.org/2000/svg">
<path d="M578.152 403.213C528.197 406.913 485.57 382.319 447.979 360.615C427.849 348.999 408.814 338.02 389.766 331.481C346.73 316.721 311.413 315.839 277.249 314.991C222.031 313.639 164.925 312.222 88.8948 252.155C12.3413 191.656 -27.1356 125.746 -31.7756 50.6502C-36.3399 -22.9937 -5.28533 -95.3766 22.2711 -150.178C40.2398 -185.962 48.8523 -226.847 57.9355 -270.123C65.8494 -307.76 74.0196 -346.664 88.9898 -383.84C127.41 -479.152 177.18 -522.322 255.419 -528.121C285.588 -530.368 317.995 -527.077 352.297 -523.59C382.619 -520.528 413.959 -517.346 448.223 -517.245C451.526 -517.239 455.006 -517.357 458.529 -517.619C475.632 -518.885 492.933 -523.114 511.219 -527.562C530.754 -532.321 550.925 -537.238 572.292 -538.817C597.867 -540.722 621.106 -537.393 643.273 -528.664C711.811 -501.701 728.942 -455.678 745.507 -411.198C752.258 -393.068 759.234 -374.352 770.02 -355.784C783.796 -332.104 803.024 -311.896 823.387 -290.472C854.52 -257.748 886.713 -223.898 901.287 -174.885C929.336 -80.5415 881.631 -12.3799 843.327 30.688C831.044 44.522 818.442 56.1362 806.267 67.3767C780.942 90.7424 759.085 110.918 749.43 143.026C746.543 152.622 747.467 167.605 748.37 182.085C749.448 199.462 750.549 217.448 746.59 234.85C732.287 297.874 685.193 372.247 612.255 396.403C600.999 400.062 589.534 402.357 578.152 403.213Z" fill="url(#paint0_linear_763_3314)"/>
<defs>
<linearGradient id="paint0_linear_763_3314" x1="348.179" y1="-362.417" x2="550.981" y2="412.053" gradientUnits="userSpaceOnUse">
<stop stop-color="#1B6ED4"/>
<stop offset="1" stop-color="#051529"/>
</linearGradient>
</defs>
</svg>
