<svg width="360" height="485" viewBox="0 0 360 485" fill="none" xmlns="http://www.w3.org/2000/svg">
<path d="M560.493 483.026C511.122 491.495 466.335 471.097 426.838 453.094C405.688 443.459 385.688 434.354 366.102 429.67C321.85 419.101 286.611 421.606 252.523 424.035C197.429 427.978 140.45 432.038 59.0155 379.53C-22.9813 326.643 -68.5904 264.817 -80.4026 190.511C-92.0005 117.643 -68.0225 42.6184 -45.8424 -14.5709C-31.3841 -51.9111 -26.7278 -93.4339 -21.8318 -137.381C-17.5597 -175.603 -13.1538 -215.11 -1.81358 -253.549C27.2997 -352.103 72.7054 -399.842 150.029 -413.109C179.844 -418.236 212.417 -418.065 246.895 -417.879C277.371 -417.737 308.872 -417.571 342.988 -420.752C346.277 -421.063 349.73 -421.514 353.211 -422.112C370.114 -425.011 386.93 -430.878 404.707 -437.057C423.696 -443.665 443.303 -450.492 464.421 -454.11C489.696 -458.457 513.147 -457.37 536.047 -450.804C606.853 -430.531 628.314 -386.36 649.064 -343.671C657.521 -326.271 666.257 -308.31 678.773 -290.86C694.753 -268.609 715.829 -250.335 738.15 -230.961C772.275 -201.37 807.562 -170.759 826.764 -123.367C863.721 -32.1447 822.766 40.2732 788.763 86.8123C777.862 101.759 766.43 114.527 755.388 126.882C732.418 152.567 712.595 174.743 706.06 207.629C704.105 217.457 706.46 232.282 708.746 246.609C711.484 263.803 714.302 281.601 712.029 299.303C703.828 363.407 664.076 441.949 593.787 472.981C582.934 477.701 571.741 481.083 560.493 483.026Z" fill="url(#paint0_linear_763_3494)"/>
<defs>
<linearGradient id="paint0_linear_763_3494" x1="258.236" y1="-257.053" x2="534.294" y2="494.428" gradientUnits="userSpaceOnUse">
<stop stop-color="#1B6ED4"/>
<stop offset="1" stop-color="#051529"/>
</linearGradient>
</defs>
</svg>
