<svg width="360" height="445" viewBox="0 0 360 445" fill="none" xmlns="http://www.w3.org/2000/svg">
<path d="M494.106 381.018C449.325 403.467 400.544 396.964 357.52 391.214C334.483 388.141 312.7 385.24 292.599 386.45C247.184 389.195 214.194 401.832 182.282 414.061C130.712 433.843 77.371 454.285 -15.8075 427.705C-109.634 400.927 -171.24 355.022 -204.135 287.354C-236.406 221.001 -235.263 142.246 -230.658 81.0789C-227.674 41.1486 -235.284 0.0644197 -243.369 -43.4087C-250.388 -81.2229 -257.652 -120.306 -257.971 -160.382C-258.751 -263.143 -229.177 -322.016 -159.045 -357.179C-132.006 -370.749 -100.788 -380.05 -67.7439 -389.891C-38.5415 -398.609 -8.35195 -407.604 23.3678 -420.562C26.4243 -421.815 29.5972 -423.249 32.754 -424.834C48.0859 -432.519 62.4719 -443.019 77.6856 -454.097C93.9352 -465.938 110.713 -478.168 129.868 -487.766C152.789 -499.269 175.544 -505.043 199.364 -505.416C273.006 -506.592 306.376 -470.563 338.635 -435.745C351.783 -421.554 365.362 -406.906 382.408 -393.846C404.164 -377.198 429.64 -365.837 456.628 -353.785C497.879 -335.386 540.539 -316.351 572.683 -276.583C634.553 -200.036 616.407 -118.842 597.395 -64.4302C591.308 -46.9605 584.08 -31.4217 577.104 -16.3911C562.588 14.8596 550.064 41.8392 553.367 75.2048C554.352 85.1769 560.914 98.6782 567.264 111.723C574.88 127.379 582.749 143.591 585.717 161.189C596.497 224.91 581.283 311.614 523.044 361.731C514.031 369.402 504.303 375.89 494.106 381.018Z" fill="url(#paint0_linear_763_3628)"/>
<defs>
<linearGradient id="paint0_linear_763_3628" x1="24.8698" y1="-232.729" x2="472.35" y2="399.54" gradientUnits="userSpaceOnUse">
<stop stop-color="#1B6ED4"/>
<stop offset="1" stop-color="#051529"/>
</linearGradient>
</defs>
</svg>
