<svg width="338" height="293" viewBox="0 0 338 293" fill="none" xmlns="http://www.w3.org/2000/svg">
<path d="M161.608 37.8058C168.568 30.846 168.568 19.5618 161.608 12.6019C154.648 5.64203 143.364 5.64204 136.404 12.6019C129.444 19.5618 129.444 30.8459 136.404 37.8058C143.364 44.7657 154.648 44.7657 161.608 37.8058Z" fill="#CDE1F9"/>
<path d="M281.285 164.942C279.496 173.681 276.308 182.053 271.973 189.875C242.981 242.24 163.527 270.544 123.25 227.583C117.469 221.413 112.492 215.014 108.272 208.454C94.4636 186.939 88.9358 163.773 90.6561 141.822C92.0552 123.977 98.2482 106.958 108.662 92.3009C112.79 86.4749 117.607 81.0159 123.066 76.0386C198.07 7.36529 294.979 97.6911 281.285 164.942Z" fill="#1B6ED4"/>
<path d="M271.973 189.875C242.98 242.24 163.527 270.544 123.249 227.583C117.469 221.413 112.492 215.014 108.271 208.454C108.18 207.078 108.111 205.656 108.042 204.188C107.308 190.402 107.262 183.2 122.171 182.168C125.818 181.916 131.529 181.434 138.433 180.838C139.672 178.819 143.801 171.938 147.104 164.828C143.824 164.415 109.189 159.827 97.6286 149.735C95.289 147.694 92.9265 144.941 90.6558 141.799C81.114 128.679 72.7649 108.839 71.5951 105.834C70.3565 102.669 70.2419 100.168 70.9529 95.4892C70.4254 96.1085 65.7233 89.9385 66.4114 87.7595C67.5582 84.2043 78.7515 76.7497 84.9903 76.0158C86.0913 75.8781 89.2107 81.3142 88.4997 81.4518C92.399 81.9564 100.175 83.8373 101.941 85.8787C102.721 86.7732 105.496 89.2504 108.638 92.301C113.73 97.2095 119.763 103.609 119.855 107.187C120.015 112.99 120.887 112.921 122.676 113.082C124.488 113.242 125.979 114.114 125.818 116.224C125.658 118.357 125.979 120.009 129.603 119.435C133.227 118.885 135.658 119.504 136.369 122.509C137.08 125.491 146.989 125.583 150.751 125.651C154.512 125.72 173.642 127.211 175.89 128.564C177.243 115.674 182.404 95.2599 182.404 95.2599C182.404 95.2599 166.669 90.0302 166.898 87.5072C167.036 86.0851 179.628 81.1995 187.84 78.1718C187.954 78.1259 192.909 78.7223 195.569 77.6213C195.569 77.6213 191.189 89.5944 205.249 94.4571C205.249 94.4571 205.432 96.7967 206.442 96.9343C207.13 97.026 208.162 96.4755 208.621 94.2965C208.827 93.3102 208.919 91.9799 208.827 90.2367C208.827 90.2367 208.919 90.2367 209.102 90.2367H209.125C211.442 90.2596 213.621 90.489 215.433 90.8789C217.956 91.4294 219.722 92.3469 220.089 93.5625C220.663 95.4204 219.263 97.5994 213.644 98.4481C211.534 104.848 211.855 110.444 213.873 110.742C216.098 111.086 216.947 110.352 218.025 109.573C219.103 108.793 219.951 112.761 215.433 115.766C211.901 118.105 207.474 119 204.01 116.706C203.139 122.922 202.198 129.918 201.487 136.294C203.093 136.317 226.672 151.341 233.049 154.713C237.177 156.914 245.434 161.961 251.696 169.186C265.321 168.429 269.289 169.461 270.757 180.081C271.101 182.099 271.514 185.54 271.973 189.875Z" fill="white"/>
<path d="M186.418 89.4573C185.936 89.2508 185.73 88.6774 185.936 88.2187L186.922 86.0167C187.129 85.535 187.702 85.3286 188.161 85.535C188.643 85.7415 188.849 86.3149 188.643 86.7736L187.656 88.9756C187.473 89.4573 186.9 89.6866 186.418 89.4573Z" fill="#051529"/>
<path d="M192.198 92.0718C191.716 91.8653 191.51 91.2919 191.716 90.8332L192.702 88.6312C192.909 88.1495 193.482 87.9431 193.941 88.1495C194.423 88.356 194.629 88.9294 194.423 89.3881L193.436 91.5901C193.23 92.0718 192.68 92.2782 192.198 92.0718Z" fill="#051529"/>
<path d="M152.196 30.0503C151.829 30.9907 151.302 31.6788 150.659 32.1146C150.017 32.5504 149.191 32.711 148.205 32.6193L147.219 35.0964C147.196 35.1653 147.15 35.2111 147.081 35.257C147.012 35.2799 146.944 35.2799 146.875 35.257L143.618 33.9496C143.549 33.9267 143.503 33.8808 143.457 33.812C143.434 33.7432 143.434 33.6744 143.457 33.6055L144.329 31.4036C143.732 31.1284 143.182 30.876 142.723 30.6008C142.654 30.5779 142.631 30.5091 142.609 30.4402C142.586 30.3714 142.586 30.3026 142.609 30.2338L143.916 27.7107C143.962 27.6419 144.008 27.5961 144.099 27.5731C144.191 27.5502 144.26 27.5731 144.329 27.619C144.512 27.7337 144.696 27.8713 144.902 27.986C145.109 28.1007 145.361 28.2612 145.682 28.4218C146.003 28.6053 146.301 28.7429 146.6 28.8576C146.921 28.9952 147.196 29.064 147.448 29.064C147.701 29.064 147.907 29.0181 148.045 28.9264C148.182 28.8347 148.297 28.7429 148.366 28.6512C148.435 28.5594 148.503 28.4677 148.526 28.3989C148.572 28.3071 148.572 28.1924 148.595 28.0777C148.595 27.9631 148.595 27.8025 148.549 27.5961C148.503 27.3896 148.389 27.1603 148.205 26.9079C147.999 26.6556 147.746 26.4033 147.402 26.174C147.012 25.8987 146.691 25.5776 146.393 25.1877C146.095 24.7977 145.866 24.3619 145.659 23.8803C145.476 23.3986 145.384 22.8481 145.384 22.2517C145.384 21.6554 145.522 21.0361 145.751 20.4168C146.095 19.5452 146.6 18.9029 147.288 18.4901C147.953 18.0772 148.779 17.8937 149.719 17.9396L150.728 15.3936C150.751 15.3248 150.797 15.2789 150.889 15.233C150.958 15.2101 151.026 15.1872 151.095 15.233L154.352 16.5404C154.421 16.5634 154.467 16.6322 154.513 16.701C154.536 16.7698 154.536 16.8616 154.513 16.9304L153.641 19.1323C154.215 19.3846 154.765 19.6599 155.316 19.958C155.384 19.981 155.407 20.0498 155.453 20.1186C155.476 20.1874 155.476 20.2562 155.43 20.325L154.123 22.8481C154.077 22.9169 154.031 22.9628 153.939 22.9857C153.848 23.0087 153.779 23.0087 153.71 22.9628C152.884 22.4123 152.104 21.9765 151.37 21.6783C151.072 21.5407 150.797 21.4719 150.545 21.4719C150.292 21.4719 150.086 21.5178 149.948 21.6095C149.811 21.7013 149.696 21.793 149.604 21.8848C149.535 21.9765 149.467 22.0682 149.444 22.1371C149.421 22.2288 149.398 22.3206 149.375 22.4352C149.375 22.5499 149.375 22.7105 149.421 22.9169C149.467 23.1233 149.581 23.3527 149.788 23.605C149.994 23.8573 150.247 24.1096 150.591 24.339C150.958 24.6142 151.302 24.9354 151.6 25.3253C151.898 25.7152 152.15 26.151 152.334 26.6327C152.517 27.1144 152.609 27.6649 152.609 28.2612C152.563 28.8347 152.426 29.431 152.196 30.0503Z" fill="#051529"/>
<path d="M146.966 35.6013C146.897 35.6013 146.806 35.5783 146.737 35.5554L143.48 34.248C143.319 34.1792 143.205 34.0645 143.136 33.9269C143.067 33.7663 143.067 33.6058 143.136 33.4452L143.893 31.5414C143.411 31.3121 142.952 31.0827 142.562 30.8762C142.425 30.8074 142.333 30.6698 142.287 30.5322C142.241 30.3946 142.241 30.234 142.31 30.0735C142.31 30.0735 142.31 30.0505 142.333 30.0505L143.64 27.5275C143.732 27.3669 143.87 27.2522 144.053 27.2063C144.237 27.1605 144.397 27.2063 144.558 27.2981C144.741 27.4128 144.925 27.5504 145.108 27.6651C145.292 27.7798 145.544 27.9174 145.865 28.1009C146.163 28.2614 146.462 28.3991 146.737 28.5137C147.012 28.6284 147.264 28.6972 147.471 28.6972C147.7 28.6972 147.815 28.6514 147.861 28.6055C147.975 28.5367 148.067 28.4449 148.113 28.3991C148.182 28.3302 148.205 28.2614 148.228 28.2385C148.251 28.1926 148.274 28.1238 148.274 28.0321C148.274 27.9633 148.274 27.8486 148.228 27.6192C148.205 27.5275 148.136 27.344 147.93 27.0687C147.746 26.8393 147.517 26.61 147.219 26.4035C146.806 26.1283 146.439 25.7613 146.118 25.3484C145.796 24.9356 145.544 24.4768 145.338 23.9493C145.131 23.4217 145.017 22.8254 145.04 22.1831C145.04 21.5409 145.177 20.8757 145.452 20.2335C145.819 19.2931 146.393 18.605 147.127 18.1462C147.792 17.7334 148.595 17.5269 149.512 17.5269L150.43 15.2103C150.499 15.0497 150.59 14.9351 150.751 14.8662C150.911 14.7974 151.072 14.7745 151.233 14.8433L154.49 16.1507C154.65 16.2195 154.765 16.3342 154.834 16.4948C154.902 16.6553 154.902 16.8159 154.834 16.9764L154.077 18.8802C154.558 19.1096 155.017 19.339 155.476 19.5683C155.613 19.6371 155.705 19.7748 155.774 19.9124C155.843 20.0729 155.82 20.2564 155.728 20.417L154.421 22.9401C154.329 23.1006 154.191 23.1924 154.031 23.2612C153.847 23.3071 153.664 23.2841 153.503 23.1694C152.7 22.6419 151.944 22.2061 151.233 21.9079C150.957 21.7932 150.728 21.7244 150.521 21.7244C150.338 21.7244 150.2 21.7473 150.109 21.8161C149.948 21.9079 149.879 21.9767 149.833 22.0226C149.787 22.0684 149.742 22.1373 149.719 22.1831C149.696 22.2061 149.696 22.2749 149.673 22.3896C149.673 22.4584 149.673 22.5731 149.719 22.7795C149.742 22.9401 149.856 23.1236 150.017 23.33C150.2 23.5594 150.43 23.7887 150.728 23.9952C151.118 24.2933 151.485 24.6374 151.806 25.0503C152.127 25.4631 152.379 25.9219 152.586 26.4494C152.792 26.977 152.884 27.5733 152.884 28.2156C152.884 28.8578 152.746 29.5 152.471 30.1652C152.058 31.1744 151.508 31.9084 150.82 32.3901C150.177 32.8259 149.352 33.0094 148.388 32.9635L147.494 35.2113C147.425 35.3719 147.31 35.4866 147.173 35.5554C147.127 35.5783 147.035 35.6013 146.966 35.6013ZM143.778 33.6287L146.92 34.8902L147.884 32.4818C147.93 32.3442 148.09 32.2525 148.228 32.2754C149.145 32.3672 149.902 32.2066 150.476 31.8396C151.049 31.4497 151.531 30.8074 151.875 29.9358C152.104 29.3624 152.219 28.789 152.242 28.2385C152.242 27.688 152.173 27.1834 151.989 26.7247C151.806 26.2659 151.577 25.8531 151.301 25.509C151.026 25.142 150.705 24.8438 150.361 24.5915C150.017 24.3392 149.719 24.064 149.489 23.7887C149.26 23.4905 149.122 23.2153 149.076 22.963C149.031 22.7336 149.008 22.5272 149.008 22.3896C149.008 22.229 149.054 22.0914 149.099 21.9767C149.145 21.8391 149.237 21.7244 149.329 21.6097C149.42 21.495 149.558 21.4033 149.742 21.2886C149.948 21.151 150.223 21.0822 150.544 21.0822C150.843 21.0822 151.164 21.151 151.508 21.3115C152.242 21.6097 153.022 22.0455 153.847 22.596L155.086 20.1876C154.581 19.9124 154.031 19.6601 153.48 19.4078C153.32 19.339 153.228 19.1325 153.297 18.972L154.146 16.8159L150.98 15.5544L149.994 18.0545C149.948 18.1921 149.81 18.2838 149.65 18.2609C148.778 18.215 148.021 18.3985 147.425 18.7655C146.806 19.1325 146.347 19.7289 146.026 20.5087C145.796 21.0822 145.682 21.6556 145.682 22.2061C145.682 22.7566 145.751 23.2612 145.934 23.7199C146.118 24.1787 146.347 24.5915 146.622 24.9585C146.897 25.3255 147.219 25.6237 147.563 25.876C147.93 26.1283 148.228 26.4035 148.434 26.6788C148.664 26.977 148.801 27.2522 148.847 27.5045C148.893 27.7339 148.916 27.9174 148.893 28.0779C148.893 28.2385 148.847 28.3761 148.801 28.5137C148.755 28.6284 148.687 28.7431 148.572 28.8578C148.48 28.9725 148.342 29.0872 148.182 29.2019C147.975 29.3395 147.7 29.4083 147.402 29.4083C147.104 29.4083 146.783 29.3165 146.416 29.1789C146.118 29.0642 145.796 28.9037 145.475 28.7202C145.154 28.5367 144.879 28.3991 144.673 28.2614C144.489 28.1468 144.306 28.0321 144.145 27.9174L142.906 30.3258C143.342 30.5781 143.87 30.8304 144.443 31.0827C144.604 31.1515 144.695 31.3579 144.627 31.5185L143.778 33.6287Z" fill="#051529"/>
<path d="M290.185 79.2271C290.46 79.6629 290.574 80.0758 290.552 80.4657C290.529 80.8556 290.345 81.2456 290.024 81.6126L290.735 82.7594C290.758 82.7823 290.758 82.8282 290.758 82.8741C290.758 82.92 290.735 82.9429 290.689 82.9658L289.175 83.9063C289.152 83.9292 289.107 83.9292 289.061 83.9292C289.015 83.9292 288.992 83.9063 288.969 83.8604L288.35 82.8512C288.051 83.0117 287.799 83.1493 287.547 83.264C287.524 83.287 287.478 83.287 287.455 83.264C287.409 83.2411 287.386 83.2182 287.363 83.1952L286.744 81.9108C286.721 81.8649 286.721 81.8419 286.744 81.7961C286.767 81.7502 286.79 81.7272 286.836 81.7272C286.95 81.6814 287.042 81.6584 287.157 81.6126C287.272 81.5667 287.409 81.4979 287.57 81.4291C287.73 81.3603 287.891 81.2685 288.028 81.1997C288.166 81.1079 288.281 81.0162 288.373 80.9244C288.441 80.8327 288.487 80.718 288.487 80.6492C288.487 80.5575 288.487 80.4887 288.464 80.4428C288.441 80.374 288.441 80.3281 288.418 80.3052C288.395 80.2593 288.35 80.2134 288.304 80.1905C288.258 80.1446 288.189 80.0987 288.097 80.0528C288.006 80.007 287.868 79.984 287.707 79.984C287.547 79.984 287.363 80.0299 287.18 80.0758C286.95 80.1446 286.721 80.1905 286.469 80.1905C286.216 80.1905 285.964 80.1675 285.712 80.0987C285.46 80.0299 285.207 79.9152 284.978 79.7088C284.726 79.5253 284.519 79.2959 284.359 78.9978C284.106 78.6078 284.015 78.195 284.037 77.805C284.083 77.4151 284.244 77.0252 284.542 76.6582L283.831 75.4884C283.808 75.4655 283.808 75.4196 283.808 75.3737C283.808 75.3278 283.831 75.3049 283.877 75.282L285.391 74.3415C285.414 74.3186 285.46 74.3186 285.505 74.3186C285.551 74.3186 285.574 74.3415 285.597 74.3874L286.216 75.3966C286.492 75.2361 286.767 75.0985 287.042 74.9608C287.065 74.9379 287.111 74.9379 287.157 74.9608C287.203 74.9608 287.226 74.9838 287.249 75.0297L287.868 76.3141C287.891 76.36 287.891 76.3829 287.868 76.4288C287.845 76.4747 287.822 76.4976 287.799 76.4976C287.317 76.6582 286.905 76.8417 286.561 77.0481C286.423 77.1399 286.308 77.2316 286.239 77.3234C286.171 77.4151 286.125 77.5298 286.125 77.6215C286.125 77.7133 286.125 77.7821 286.125 77.828C286.148 77.8738 286.148 77.9427 286.171 77.9656C286.194 78.0115 286.239 78.0344 286.285 78.0803C286.331 78.1261 286.4 78.172 286.492 78.195C286.583 78.2408 286.721 78.2638 286.882 78.2638C287.042 78.2638 287.226 78.2179 287.409 78.172C287.639 78.1032 287.868 78.0573 288.12 78.0573C288.373 78.0573 288.625 78.0803 288.877 78.1491C289.129 78.2179 289.382 78.3555 289.611 78.539C289.818 78.7225 290.024 78.9519 290.185 79.2271Z" fill="white"/>
<path d="M289.107 84.2275C289.061 84.2275 289.038 84.2275 288.992 84.2045C288.878 84.1816 288.763 84.0898 288.694 83.9752L288.235 83.2412C288.052 83.3329 287.868 83.4247 287.685 83.5164C287.57 83.5623 287.455 83.5623 287.341 83.5393C287.226 83.4935 287.134 83.4247 287.065 83.3329C287.065 83.3329 287.065 83.31 287.043 83.31L286.423 82.0255C286.354 81.8879 286.354 81.7503 286.4 81.6356C286.446 81.498 286.561 81.4062 286.698 81.3603C286.79 81.3374 286.905 81.2915 286.997 81.2457C287.111 81.1998 287.226 81.1539 287.387 81.0622C287.547 80.9933 287.685 80.9245 287.799 80.8328C287.914 80.764 288.006 80.6952 288.052 80.6263C288.098 80.5575 288.098 80.5346 288.098 80.5346C288.098 80.4658 288.098 80.4199 288.098 80.4199C288.098 80.397 288.075 80.374 288.075 80.374C288.075 80.374 288.075 80.3511 288.029 80.3282C288.029 80.3282 287.983 80.2823 287.891 80.2364C287.868 80.2364 287.822 80.2135 287.662 80.2135C287.524 80.2135 287.387 80.2364 287.226 80.3052C286.974 80.397 286.698 80.4429 286.423 80.4429C286.148 80.4429 285.873 80.397 285.575 80.3282C285.276 80.2594 284.978 80.0988 284.703 79.8924C284.428 79.6859 284.198 79.4107 283.992 79.0896C283.717 78.6308 283.579 78.1492 283.625 77.6904C283.671 77.3005 283.808 76.9106 284.061 76.5436L283.464 75.5802C283.396 75.4655 283.373 75.3508 283.396 75.2362C283.418 75.0985 283.51 74.9839 283.625 74.9151L285.139 73.9746C285.253 73.9058 285.391 73.8829 285.506 73.9058C285.643 73.9288 285.735 74.0205 285.804 74.1123L286.263 74.8462C286.446 74.7545 286.63 74.6627 286.836 74.571C286.951 74.5251 287.065 74.5251 287.18 74.5481C287.318 74.5939 287.432 74.6857 287.478 74.8004L288.098 76.0848C288.166 76.1995 288.166 76.3371 288.121 76.4748C288.075 76.6124 287.96 76.7271 287.822 76.7729C287.387 76.9335 286.997 77.117 286.676 77.3005C286.561 77.3693 286.492 77.4152 286.446 77.484C286.4 77.5299 286.4 77.5757 286.4 77.5757C286.4 77.6675 286.4 77.6904 286.4 77.7134C286.4 77.7363 286.4 77.7363 286.423 77.7592C286.423 77.7592 286.423 77.7822 286.446 77.7822C286.446 77.7822 286.492 77.8051 286.584 77.851C286.607 77.851 286.676 77.8739 286.813 77.8739C286.951 77.8739 287.088 77.851 287.249 77.7822C287.501 77.7134 287.777 77.6675 288.052 77.6445C288.327 77.6445 288.625 77.6675 288.9 77.7592C289.199 77.851 289.497 77.9886 289.772 78.195C290.047 78.4015 290.277 78.6767 290.483 78.9978C290.781 79.5024 290.919 79.9841 290.896 80.4429C290.873 80.8328 290.712 81.2227 290.437 81.5897L291.011 82.5301C291.079 82.6448 291.102 82.7595 291.079 82.8971C291.057 83.0347 290.965 83.1265 290.873 83.1953L289.359 84.1357C289.267 84.2045 289.199 84.2275 289.107 84.2275ZM288.35 82.4613C288.465 82.4613 288.579 82.5301 288.648 82.6219L289.176 83.4705L290.345 82.7595L289.749 81.7961C289.68 81.6585 289.68 81.498 289.795 81.3833C290.07 81.0621 290.231 80.764 290.254 80.4429C290.277 80.1217 290.162 79.7777 289.933 79.4107C289.772 79.1584 289.611 78.952 289.405 78.7914C289.199 78.6308 288.992 78.5162 288.786 78.4703C288.556 78.4015 288.35 78.3785 288.144 78.3785C287.937 78.3785 287.731 78.4244 287.524 78.4703C287.295 78.5391 287.088 78.585 286.882 78.585C286.676 78.585 286.492 78.562 286.354 78.4932C286.24 78.4244 286.125 78.3785 286.056 78.3097C285.987 78.2409 285.919 78.1721 285.873 78.1033C285.827 78.0345 285.781 77.9427 285.781 77.851C285.758 77.7592 285.758 77.6675 285.758 77.5528C285.758 77.3922 285.827 77.2317 285.942 77.0711C286.056 76.9335 286.194 76.8188 286.377 76.7041C286.676 76.5206 287.043 76.3601 287.455 76.1995L287.02 75.305C286.813 75.3967 286.584 75.5114 286.377 75.6261C286.217 75.7178 286.01 75.672 285.919 75.5114L285.391 74.6627L284.221 75.3738L284.841 76.383C284.909 76.4977 284.909 76.6583 284.818 76.7729C284.565 77.0941 284.428 77.4152 284.382 77.7363C284.359 78.0574 284.428 78.3785 284.657 78.7226C284.818 78.9749 285.001 79.1813 285.208 79.3419C285.414 79.5024 285.62 79.6171 285.827 79.663C286.056 79.7318 286.263 79.7547 286.492 79.7547C286.698 79.7547 286.905 79.7318 287.088 79.663C287.318 79.5942 287.524 79.5483 287.731 79.5483C287.937 79.5483 288.121 79.5713 288.258 79.6401C288.373 79.7089 288.465 79.7547 288.533 79.8236C288.602 79.8924 288.671 79.9612 288.717 80.03C288.763 80.0988 288.786 80.1905 288.809 80.2823C288.832 80.374 288.832 80.4658 288.832 80.5805C288.832 80.741 288.763 80.9016 288.648 81.0622C288.533 81.1998 288.396 81.3145 288.212 81.4291C288.075 81.5209 287.914 81.5897 287.731 81.6815C287.547 81.7503 287.41 81.8191 287.295 81.865C287.249 81.8879 287.203 81.8879 287.18 81.9108L287.616 82.8283C287.799 82.7366 288.006 82.6219 288.212 82.5072C288.235 82.4842 288.304 82.4613 288.35 82.4613ZM287.639 76.1307C287.639 76.1536 287.639 76.1536 287.639 76.1307C287.639 76.1536 287.639 76.1536 287.639 76.1307Z" fill="white"/>
<path d="M286.928 90.7185C283.419 90.7185 278.969 88.333 275.712 78.3096C273.005 69.9376 263.326 52.3908 250.756 51.4962C250.412 51.4733 250.114 51.221 250.022 50.8769C249.931 50.5329 250.091 50.1888 250.389 50.0053C251.192 49.5007 269.977 37.8946 274.84 36.6101C277.455 35.922 280.345 37.0001 283.235 39.7296C285.919 42.2756 288.465 46.1519 290.621 50.9457C293.167 56.6341 296.034 62.506 299.727 66.864C304.337 72.2771 308.97 73.8598 313.948 71.7037C314.223 71.589 314.567 71.6349 314.796 71.8413C315.026 72.0478 315.117 72.3689 315.026 72.667C312.571 80.9702 292.662 89.9845 288.098 90.6496C287.685 90.6955 287.318 90.7185 286.928 90.7185ZM253.119 50.2347C259.449 51.6109 264.61 56.6112 267.936 60.8086C272.638 66.7034 275.803 73.4698 277.226 77.8049C279.84 85.8788 283.419 89.6634 287.822 89.0441C291.63 88.4936 308.558 80.8326 312.732 73.8139C300.552 77.1856 292.616 59.4095 289.13 51.6109C285.047 42.4591 279.473 37.0689 275.253 38.1928C271.491 39.1791 258.119 47.1841 253.119 50.2347Z" fill="white"/>
<path d="M271.147 47.7577C270.849 47.7577 270.574 47.5971 270.436 47.3219C270.23 46.932 270.39 46.4503 270.78 46.2439C270.803 46.2209 274.152 44.4777 278.395 42.3446C278.785 42.1381 279.267 42.2987 279.474 42.6886C279.68 43.0786 279.519 43.5602 279.129 43.7667C274.909 45.9227 271.56 47.643 271.537 47.666C271.4 47.7348 271.262 47.7577 271.147 47.7577Z" fill="white"/>
<path d="M270.505 52.9876C270.253 52.9876 270.024 52.8729 269.863 52.6665C269.611 52.2995 269.68 51.7949 270.046 51.5425C271.469 50.5104 276.125 48.1249 280.896 46.0147C281.309 45.8312 281.767 46.0147 281.951 46.4276C282.134 46.8405 281.951 47.2992 281.538 47.4827C276.928 49.5241 272.294 51.8637 270.987 52.827C270.849 52.9188 270.666 52.9876 270.505 52.9876Z" fill="white"/>
<path d="M276.561 57.9186C276.286 57.9186 276.033 57.781 275.873 57.5287C275.643 57.1617 275.758 56.6571 276.125 56.4277C276.171 56.4048 280.437 53.767 283.625 52.0926C284.015 51.8862 284.497 52.0467 284.703 52.4367C284.91 52.8266 284.749 53.3083 284.359 53.5147C281.24 55.1432 276.997 57.7581 276.951 57.781C276.859 57.8727 276.698 57.9186 276.561 57.9186Z" fill="white"/>
<path d="M280.276 64.2954C280.024 64.2954 279.772 64.1807 279.634 63.9743C279.382 63.6073 279.45 63.1027 279.817 62.8504C279.84 62.8274 282.776 60.7172 285.529 58.974C285.896 58.7447 286.4 58.8364 286.63 59.2263C286.859 59.5933 286.767 60.0979 286.377 60.3273C283.648 62.0476 280.781 64.1349 280.735 64.1578C280.62 64.2495 280.437 64.2954 280.276 64.2954Z" fill="white"/>
<path d="M292.112 184.256C291.676 184.256 291.309 183.911 291.309 183.476C291.309 183.43 291.309 183.315 291.286 183.178C290.804 177.42 291.355 175.998 292.341 175.608C293.626 175.104 298.213 174.989 299.13 174.966C299.13 174.966 299.13 174.966 299.153 174.966C299.589 174.966 299.956 175.31 299.956 175.746C299.956 176.182 299.612 176.549 299.176 176.572C297.25 176.618 293.97 176.778 293.029 177.053C292.892 177.283 292.525 178.384 292.914 183.017C292.937 183.292 292.937 183.361 292.937 183.43C292.914 183.889 292.547 184.256 292.112 184.256Z" fill="#051529"/>
<path d="M336.793 183.476C336.77 183.476 336.747 183.476 336.724 183.476C336.288 183.43 335.944 183.04 335.99 182.604C336.128 180.999 336.265 178.177 336.036 177.306C335.577 176.916 333.146 176.572 330.738 176.572C330.302 176.572 329.935 176.205 329.935 175.769C329.935 175.333 330.302 174.966 330.738 174.966C333.605 174.966 337.091 175.287 337.55 176.778C337.963 178.109 337.642 181.985 337.573 182.742C337.55 183.178 337.206 183.476 336.793 183.476Z" fill="#051529"/>
<path d="M333.857 214.923C332.618 214.923 331.471 214.762 331.082 214.693C330.646 214.624 330.348 214.211 330.416 213.776C330.485 213.34 330.898 213.042 331.334 213.11C333.719 213.477 335.921 213.294 336.151 212.881C336.265 211.115 336.151 207.812 336.151 207.766C336.128 207.33 336.472 206.94 336.93 206.94C337.366 206.94 337.756 207.262 337.756 207.72C337.756 207.858 337.871 211.138 337.756 212.996C337.733 213.455 337.504 213.867 337.114 214.189C336.403 214.762 335.096 214.923 333.857 214.923Z" fill="#051529"/>
<path d="M298.442 215.381C297.617 215.381 294.795 215.335 293.832 214.808C293.488 214.624 292.548 214.12 292.548 207.743C292.548 207.307 292.915 206.94 293.35 206.94C293.786 206.94 294.153 207.307 294.153 207.743C294.153 210.037 294.36 212.789 294.681 213.432C295.231 213.638 296.997 213.753 298.442 213.753C298.878 213.753 299.245 214.12 299.245 214.555C299.245 214.991 298.901 215.381 298.442 215.381Z" fill="#051529"/>
<path d="M305.507 194.807C303.557 194.807 301.424 194.761 300.346 194.6C299.956 194.531 299.291 194.44 299.131 193.82C298.718 192.284 298.672 186.962 301.034 183.98C302.548 182.077 306.172 181.618 311.838 182.581C311.975 182.604 312.09 182.627 312.136 182.627C312.434 182.65 312.686 182.811 312.824 183.086C312.916 183.269 313.145 183.705 313.122 188.591C313.099 193.499 312.87 193.843 312.755 194.027C312.503 194.417 312.342 194.692 307.067 194.784C306.585 194.807 306.057 194.807 305.507 194.807ZM300.598 193.018C302.342 193.293 309.521 193.27 311.379 192.995C311.539 191.389 311.562 185.815 311.425 184.164C304.934 183.063 302.915 184.21 302.296 184.99C300.461 187.283 300.369 191.458 300.598 193.018ZM312.09 182.65H312.113C312.113 182.65 312.09 182.65 312.09 182.65Z" fill="#051529"/>
<path d="M307.594 191.573H306.241C305.438 191.573 304.773 190.908 304.773 190.105V189.142C304.773 188.339 305.438 187.674 306.241 187.674H307.594C308.397 187.674 309.062 188.339 309.062 189.142V190.105C309.062 190.931 308.397 191.573 307.594 191.573Z" fill="#051529"/>
<path d="M307.594 191.917H306.241C305.232 191.917 304.429 191.114 304.429 190.105V189.141C304.429 188.132 305.232 187.329 306.241 187.329H307.594C308.603 187.329 309.406 188.132 309.406 189.141V190.105C309.406 191.114 308.58 191.917 307.594 191.917ZM306.241 188.04C305.621 188.04 305.117 188.545 305.117 189.164V190.128C305.117 190.747 305.621 191.252 306.241 191.252H307.594C308.213 191.252 308.718 190.747 308.718 190.128V189.164C308.718 188.545 308.213 188.04 307.594 188.04H306.241Z" fill="#051529"/>
<path d="M307.594 206.16H306.241C305.438 206.16 304.773 205.495 304.773 204.692V203.729C304.773 202.926 305.438 202.261 306.241 202.261H307.594C308.397 202.261 309.062 202.926 309.062 203.729V204.692C309.062 205.495 308.397 206.16 307.594 206.16Z" fill="#051529"/>
<path d="M307.594 206.505H306.241C305.232 206.505 304.429 205.702 304.429 204.693V203.729C304.429 202.72 305.232 201.917 306.241 201.917H307.594C308.603 201.917 309.406 202.72 309.406 203.729V204.693C309.406 205.702 308.58 206.505 307.594 206.505ZM306.241 202.605C305.621 202.605 305.117 203.11 305.117 203.729V204.693C305.117 205.312 305.621 205.817 306.241 205.817H307.594C308.213 205.817 308.718 205.312 308.718 204.693V203.729C308.718 203.11 308.213 202.605 307.594 202.605H306.241Z" fill="#051529"/>
<path d="M323.123 190.862H321.769C320.966 190.862 320.301 190.197 320.301 189.394V188.43C320.301 187.628 320.966 186.962 321.769 186.962H323.123C323.925 186.962 324.59 187.628 324.59 188.43V189.394C324.59 190.197 323.925 190.862 323.123 190.862Z" fill="#051529"/>
<path d="M323.122 191.206H321.769C320.76 191.206 319.957 190.403 319.957 189.394V188.43C319.957 187.421 320.76 186.618 321.769 186.618H323.122C324.132 186.618 324.934 187.421 324.934 188.43V189.394C324.934 190.38 324.109 191.206 323.122 191.206ZM321.769 187.306C321.15 187.306 320.645 187.811 320.645 188.43V189.394C320.645 190.013 321.15 190.517 321.769 190.517H323.122C323.742 190.517 324.246 190.013 324.246 189.394V188.43C324.246 187.811 323.742 187.306 323.122 187.306H321.769Z" fill="#051529"/>
<path d="M323.123 206.16H321.769C320.966 206.16 320.301 205.495 320.301 204.692V203.729C320.301 202.926 320.966 202.261 321.769 202.261H323.123C323.925 202.261 324.59 202.926 324.59 203.729V204.692C324.59 205.495 323.925 206.16 323.123 206.16Z" fill="#051529"/>
<path d="M323.122 206.505H321.769C320.76 206.505 319.957 205.702 319.957 204.693V203.729C319.957 202.72 320.76 201.917 321.769 201.917H323.122C324.132 201.917 324.934 202.72 324.934 203.729V204.693C324.934 205.702 324.109 206.505 323.122 206.505ZM321.769 202.605C321.15 202.605 320.645 203.11 320.645 203.729V204.693C320.645 205.312 321.15 205.817 321.769 205.817H323.122C323.742 205.817 324.246 205.312 324.246 204.693V203.729C324.246 203.11 323.742 202.605 323.122 202.605H321.769Z" fill="#051529"/>
<path d="M322.458 195.105C320.508 195.105 318.375 195.013 317.366 194.784C316.448 194.577 316.265 194.073 316.287 193.706C316.287 193.522 316.31 192.949 316.31 192.215C316.448 182.833 316.654 182.627 317.044 182.283C317.87 181.549 323.191 181.457 326.288 182.994C328.238 183.957 329.086 186.733 329.476 188.912C329.82 190.953 329.889 193.407 329.614 194.05C329.43 194.485 329.224 194.944 323.948 195.059C323.467 195.082 322.962 195.105 322.458 195.105ZM317.87 193.247C319.636 193.591 326.449 193.545 328.123 193.178C328.238 191.618 327.848 185.586 325.554 184.439C323.146 183.246 319.338 183.292 318.214 183.499C318.008 184.921 317.916 190.357 317.893 192.238C317.893 192.65 317.893 192.995 317.87 193.247Z" fill="#051529"/>
<path d="M309.727 213.179C306.791 213.179 301.653 212.606 300.002 208.798C298.511 205.358 299.268 199.601 299.773 198.844C300.002 198.477 300.254 198.087 304.245 197.972C306.264 197.926 308.649 197.972 310.301 198.11C312.113 198.247 312.663 198.431 312.87 198.958C313.122 199.532 313.053 203.385 313.007 205.633C312.847 211.757 312.548 212.399 312.434 212.606C312.273 212.95 311.998 213.065 311.86 213.088C311.837 213.088 310.989 213.179 309.727 213.179ZM301.103 199.83C300.828 200.954 300.3 205.472 301.47 208.156C302.984 211.642 309.223 211.711 311.058 211.551C311.356 209.624 311.539 201.757 311.402 199.83C309.681 199.532 302.617 199.417 301.103 199.83Z" fill="#051529"/>
<path d="M317.228 203.064H317.205C316.769 203.041 316.402 202.674 316.425 202.238C316.448 201.481 316.448 200.839 316.448 200.289C316.448 198.752 316.448 198.178 316.861 197.766C317.159 197.467 317.228 197.399 325.003 197.536C325.439 197.536 325.806 197.903 325.783 198.362C325.783 198.798 325.416 199.142 324.98 199.142C324.98 199.142 324.98 199.142 324.957 199.142C322.251 199.096 319.223 199.073 318.053 199.096C318.03 199.417 318.03 199.853 318.03 200.289C318.03 200.839 318.03 201.504 318.008 202.284C318.008 202.72 317.663 203.064 317.228 203.064Z" fill="#051529"/>
<path d="M324.223 212.331C323.902 212.331 323.604 212.147 323.489 211.849C323.306 211.436 323.512 210.977 323.902 210.794C326.15 209.831 328.948 208.638 328.467 198.041C328.444 197.605 328.788 197.215 329.224 197.192C329.659 197.169 330.049 197.513 330.072 197.949C330.577 208.752 327.733 210.886 324.544 212.262C324.43 212.308 324.338 212.331 324.223 212.331Z" fill="#051529"/>
<path d="M318.765 212.835C317.342 212.835 316.746 212.697 316.494 212.147C316.333 211.803 316.31 211.229 316.287 208.408C316.287 207.812 316.264 207.147 316.264 206.459C316.264 206.023 316.608 205.656 317.044 205.633C317.48 205.633 317.847 205.977 317.87 206.413C317.87 207.101 317.893 207.766 317.893 208.385C317.916 209.486 317.916 210.61 317.962 211.206C318.535 211.252 319.613 211.229 320.141 211.206C320.439 211.206 320.691 211.184 320.875 211.184C321.311 211.184 321.678 211.551 321.678 211.986C321.678 212.422 321.311 212.789 320.875 212.789C320.714 212.789 320.485 212.789 320.187 212.812C319.636 212.835 319.154 212.835 318.765 212.835Z" fill="#051529"/>
<path d="M175.936 129.344C175.913 129.344 175.89 129.344 175.844 129.344C175.408 129.298 175.087 128.908 175.133 128.473C176.326 117.027 180.569 99.5261 181.486 95.7874C180.179 95.3287 177.22 94.2965 174.284 93.0808C166.944 90.0302 166.027 88.5623 166.119 87.4384C166.187 86.6814 166.279 85.6263 180.638 80.0526C187.519 77.369 194.469 74.9148 194.538 74.8918C194.95 74.7542 195.409 74.9606 195.57 75.3735C195.707 75.7864 195.501 76.2451 195.088 76.4057C182.679 80.7866 169.33 86.0851 167.77 87.6448C167.977 88.0118 169.146 89.2274 175.225 91.7276C178.94 93.2643 182.633 94.48 182.679 94.5029C183.069 94.6406 183.298 95.0534 183.207 95.4663C183.161 95.6727 178.046 115.949 176.716 128.656C176.693 129.046 176.349 129.344 175.936 129.344Z" fill="#051529"/>
<path d="M192.886 104.32C192.45 104.32 192.083 103.953 192.083 103.517C192.083 103.082 192.45 102.715 192.886 102.715C196.809 102.715 199.102 100.971 199.309 97.8061C199.332 97.3703 199.721 97.0262 200.157 97.0492C200.593 97.0721 200.937 97.462 200.914 97.8978C200.639 101.912 197.634 104.32 192.886 104.32Z" fill="#051529"/>
<path d="M201.556 137.12C201.533 137.12 201.487 137.12 201.464 137.12C201.029 137.074 200.708 136.684 200.753 136.225C201.35 130.72 202.198 124.115 203.276 116.591C204.676 106.728 205.96 98.7692 205.96 98.6775C206.029 98.2876 206.373 97.9894 206.763 98.0123C209.401 98.0582 211.694 97.9435 213.575 97.6453C217.497 97.026 218.782 95.8562 219.195 95.214C219.47 94.7782 219.539 94.2965 219.378 93.7919C218.874 92.1175 213.323 90.6495 205.891 91.1312C205.455 91.1542 205.066 90.833 205.043 90.3743C205.02 89.9385 205.341 89.5486 205.8 89.5256C212.405 89.1128 219.952 90.122 220.938 93.3332C221.236 94.2965 221.098 95.2369 220.571 96.0856C219.585 97.6453 217.337 98.7234 213.85 99.2509C212.038 99.5262 209.905 99.6638 207.451 99.6408C207.107 101.774 206.029 108.655 204.882 116.844C203.827 124.344 202.978 130.927 202.382 136.409C202.313 136.822 201.969 137.12 201.556 137.12Z" fill="#051529"/>
<path d="M207.337 95.2369C206.947 95.2369 206.603 94.9387 206.534 94.5488C206.465 94.113 206.786 93.7001 207.222 93.6543C210.456 93.2184 214.08 93.379 214.241 93.4019C214.676 93.4249 215.02 93.7919 214.997 94.2506C214.975 94.6864 214.585 95.0305 214.149 95.0075C214.103 95.0075 210.525 94.824 207.428 95.2598C207.405 95.2369 207.382 95.2369 207.337 95.2369Z" fill="#051529"/>
<path d="M206.121 77.1858C206.121 77.1858 211.786 74.571 216.007 79.2731C220.915 84.8009 215.617 90.6727 215.502 90.8562C212.383 90.2369 208.896 90.214 208.896 90.214C209.24 95.8106 206.947 96.6822 205.96 96.5446C204.951 96.407 205.318 94.4344 205.318 94.4344C191.258 89.5717 195.639 77.5986 195.639 77.5986C192.978 78.6996 188.024 78.1033 187.909 78.1491C189.515 69.9377 202.497 70.924 206.121 77.1858Z" fill="#051529"/>
<path d="M206.144 97.3702C206.029 97.3702 205.937 97.3702 205.823 97.3473C205.41 97.2785 205.066 97.0721 204.836 96.7509C204.469 96.2463 204.423 95.5353 204.446 95.0077C200.042 93.3563 196.992 90.8332 195.409 87.4844C193.781 84.0668 194.102 80.6492 194.492 78.7913C192.175 79.273 189.331 79.0665 188.253 78.9977C188.115 78.9977 188.001 78.9748 187.955 78.9748C187.748 78.9977 187.542 78.9289 187.381 78.7913C187.152 78.6078 187.06 78.3096 187.106 78.0344C187.794 74.6168 190.363 72.2772 194.171 71.635C198.919 70.8322 204.056 72.8047 206.442 76.2223C208.162 75.6719 212.933 74.6397 216.603 78.7684C221.328 84.0897 217.475 89.7093 216.167 91.3149L216.121 91.3607C215.938 91.6131 215.617 91.7277 215.318 91.6819C213.208 91.269 210.915 91.1314 209.699 91.0626C209.745 93.6774 209.194 95.5353 208.047 96.5904C207.52 97.0721 206.809 97.3702 206.144 97.3702ZM206.121 95.7646C206.258 95.7646 206.602 95.7417 206.992 95.3977C207.497 94.9389 208.3 93.6545 208.093 90.2827C208.07 90.0533 208.162 89.8469 208.323 89.6863C208.483 89.5258 208.69 89.434 208.919 89.434C209.057 89.434 212.153 89.4799 215.181 90.0075C216.626 88.1037 219.011 83.8604 215.433 79.8234C211.671 75.603 206.534 77.8967 206.488 77.9197C206.121 78.1032 205.662 77.9426 205.456 77.5986C203.598 74.4103 198.781 72.4836 194.469 73.1947C192.794 73.4699 189.973 74.3874 188.941 77.4151C190.478 77.5068 193.528 77.5986 195.34 76.8646C195.639 76.7499 195.983 76.8187 196.212 77.0251C196.441 77.2545 196.51 77.5756 196.418 77.8738C196.395 77.9197 194.813 82.4153 196.9 86.7963C198.368 89.8699 201.304 92.1865 205.616 93.6774C205.983 93.815 206.212 94.182 206.144 94.5949C206.029 95.0307 206.029 95.5582 206.121 95.7646Z" fill="#051529"/>
<path d="M215.502 115.765C211.97 118.105 207.543 119 204.08 116.706C205.502 106.728 206.763 98.815 206.763 98.815C209.584 98.8608 211.878 98.7232 213.713 98.425C211.603 104.824 211.924 110.421 213.942 110.719C216.167 111.063 217.016 110.329 218.094 109.549C219.172 108.815 219.998 112.761 215.502 115.765Z" fill="#051529"/>
<path d="M208.667 118.862C206.855 118.862 205.135 118.38 203.644 117.394C203.392 117.233 203.254 116.912 203.3 116.614C204.699 106.751 205.984 98.7922 205.984 98.7004C206.052 98.3105 206.396 98.0123 206.786 98.0352C209.424 98.0811 211.718 97.9664 213.599 97.6682C213.874 97.6224 214.149 97.7371 214.333 97.9435C214.516 98.1499 214.562 98.4481 214.493 98.7234C212.796 103.884 212.796 108.196 213.668 109.618C213.805 109.825 213.943 109.962 214.08 109.985C215.824 110.261 216.512 109.779 217.429 109.114L217.659 108.953C218.048 108.678 218.484 108.632 218.897 108.816C219.402 109.045 219.723 109.641 219.792 110.421C219.906 111.958 218.966 114.481 215.984 116.477C213.53 118.059 211.007 118.862 208.667 118.862ZM204.951 116.316C207.773 117.922 211.511 117.486 215.067 115.123C217.429 113.564 217.98 111.866 218.094 111.224C218.14 110.949 218.163 110.719 218.14 110.559C217.154 111.27 216.076 111.912 213.805 111.568C213.369 111.499 212.773 111.247 212.268 110.467C211.076 108.54 211.213 104.114 212.567 99.4344C211.053 99.595 209.332 99.6867 207.429 99.6638C207.108 101.728 206.075 108.357 204.951 116.316Z" fill="#051529"/>
<path d="M23.9325 57.1159C21.2718 57.1159 18.3358 56.9554 15.2623 56.7719C13.175 56.6572 10.996 56.5425 8.86286 56.4737C8.42706 56.4507 8.08301 56.0837 8.08301 55.6479C8.10594 55.2121 8.47293 54.8452 8.90873 54.8681C11.0648 54.9369 13.2438 55.0516 15.3311 55.1892C24.4141 55.6938 33.0155 56.1755 33.8871 52.1386C34.0018 51.611 34.1394 50.9459 34.3 50.1889C36.9148 37.803 39.8048 24.8665 41.3646 22.6875C43.8876 19.1323 54.8515 22.0453 56.0901 22.3893C56.5259 22.504 56.7782 22.9398 56.6406 23.3756C56.5259 23.8114 56.0901 24.0637 55.6543 23.9261C51.388 22.7563 44.0711 21.6095 42.649 23.6279C41.0893 25.8299 37.2818 43.7666 35.8597 50.533C35.6991 51.2899 35.5615 51.9551 35.4468 52.4826C34.667 56.2214 30.1025 57.1159 23.9325 57.1159Z" fill="#051529"/>
<path d="M16.2647 61.1784C17.5456 59.8975 17.5456 57.8208 16.2647 56.5398C14.9838 55.2589 12.9071 55.259 11.6262 56.5399C10.3453 57.8208 10.3453 59.8975 11.6262 61.1784C12.9071 62.4593 14.9838 62.4593 16.2647 61.1784Z" fill="#051529"/>
<path d="M13.9548 62.5066C11.9593 62.5066 10.3308 60.8781 10.3308 58.8826C10.3308 56.8871 11.9593 55.2585 13.9548 55.2585C15.9504 55.2585 17.5789 56.8871 17.5789 58.8826C17.5789 60.8781 15.9504 62.5066 13.9548 62.5066ZM13.9548 55.9237C12.3263 55.9237 11.0189 57.2541 11.0189 58.8596C11.0189 60.4882 12.3493 61.7956 13.9548 61.7956C15.5834 61.7956 16.8908 60.4652 16.8908 58.8596C16.8908 57.2541 15.5834 55.9237 13.9548 55.9237Z" fill="#051529"/>
<path d="M28.2902 62.4601C30.1017 62.4601 31.5702 60.9916 31.5702 59.1801C31.5702 57.3686 30.1017 55.9001 28.2902 55.9001C26.4788 55.9001 25.0103 57.3686 25.0103 59.1801C25.0103 60.9916 26.4788 62.4601 28.2902 62.4601Z" fill="#051529"/>
<path d="M28.2903 62.8042C26.2948 62.8042 24.6663 61.1757 24.6663 59.1802C24.6663 57.1847 26.2948 55.5562 28.2903 55.5562C30.2858 55.5562 31.9143 57.1847 31.9143 59.1802C31.9143 61.1757 30.2858 62.8042 28.2903 62.8042ZM28.2903 56.2213C26.6618 56.2213 25.3544 57.5517 25.3544 59.1573C25.3544 60.7858 26.6847 62.0932 28.2903 62.0932C29.8959 62.0932 31.2262 60.7628 31.2262 59.1573C31.2262 57.5517 29.8959 56.2213 28.2903 56.2213Z" fill="#051529"/>
<path d="M8.24349 47.3216C7.94531 47.3216 7.64713 47.3216 7.37189 47.3216C6.93608 47.3216 6.56909 46.9546 6.56909 46.5188C6.56909 46.083 6.93608 45.716 7.37189 45.716C14.7117 45.7619 35.7908 45.2344 35.9972 45.2114C36.433 45.2114 36.8 45.5555 36.823 45.9913C36.823 46.4271 36.4789 46.7941 36.0431 46.817C35.8367 46.84 16.2714 47.3216 8.24349 47.3216Z" fill="#051529"/>
<path d="M39.8506 30.3253C38.4973 30.3253 6.93602 30.0959 0.903592 29.5225C0.467789 29.4766 0.146676 29.0867 0.169613 28.6509C0.215486 28.2151 0.605412 27.894 1.04121 27.9169C6.98189 28.4904 39.5065 28.7197 39.8506 28.7197C40.2864 28.7197 40.6534 29.0867 40.6534 29.5225C40.6534 29.9583 40.3093 30.3253 39.8506 30.3253Z" fill="#051529"/>
<path d="M8.97805 47.0694C8.74868 47.0694 8.49637 46.9548 8.35874 46.7713C6.54672 44.5005 2.14282 34.5459 2.14282 28.8575C2.14282 28.4217 2.50981 28.0547 2.94562 28.0547C3.38142 28.0547 3.74841 28.4217 3.74841 28.8575C3.74841 34.0412 8.01469 43.7436 9.62028 45.785C9.89552 46.129 9.82671 46.6336 9.48265 46.9089C9.34503 47.0236 9.16154 47.0694 8.97805 47.0694Z" fill="#051529"/>
<path d="M21.5472 38.4911C16.6845 38.4911 11.042 38.4911 5.03253 38.4911C4.59673 38.4911 4.22974 38.1241 4.22974 37.6883C4.22974 37.2525 4.59673 36.8855 5.03253 36.8855C22.9463 36.9084 37.7177 36.8855 37.8783 36.8855C38.3141 36.8855 38.6811 37.2525 38.6811 37.6883C38.6811 38.1241 38.3141 38.4911 37.8783 38.4911C37.7636 38.4911 31.2036 38.4911 21.5472 38.4911Z" fill="#051529"/>
<path d="M15.9733 47.0695C15.6063 47.0695 15.2623 46.7943 15.1935 46.4273C14.1154 40.693 14.6889 29.6603 14.7118 29.1787C14.7347 28.7429 15.1017 28.3988 15.5605 28.4217C15.9963 28.4447 16.3403 28.8346 16.3174 29.2704C16.3174 29.3851 15.721 40.5783 16.7761 46.1291C16.8679 46.5649 16.5697 46.9777 16.1339 47.0695C16.0651 47.0695 16.0192 47.0695 15.9733 47.0695Z" fill="#051529"/>
<path d="M27.5566 46.8172C27.1438 46.8172 26.7768 46.496 26.7539 46.0832C26.7539 46.0144 26.2034 38.2158 27.2126 29.3162C27.2585 28.8804 27.6713 28.5593 28.1071 28.6052C28.5429 28.6511 28.8641 29.0639 28.8182 29.4997C27.809 38.2387 28.3594 45.8997 28.3594 45.9685C28.3824 46.4043 28.0613 46.7942 27.6255 46.8172C27.6025 46.8172 27.5796 46.8172 27.5566 46.8172Z" fill="#051529"/>
<path d="M221.649 245.864C221.167 245.864 220.709 245.818 220.296 245.75C219.86 245.681 219.562 245.268 219.631 244.832C219.699 244.396 220.112 244.098 220.548 244.167C223.369 244.603 229.471 243.593 238.852 231.735C256.605 209.303 261.72 196.504 258.348 182.81C254.724 168.085 237.82 158.13 232.728 155.424C230.044 154.002 224.493 150.63 218.598 147.029C211.534 142.74 202.772 137.418 201.51 137.097C201.258 137.12 200.753 137.326 200.203 137.579C198.024 138.519 193.941 140.285 186.624 138.473C179.674 136.776 177.931 133.335 176.784 131.042C176.348 130.17 176.004 129.505 175.523 129.207C173.596 128.037 155.178 126.5 150.797 126.408H150.338C143.136 126.271 136.369 125.72 135.635 122.647C135.245 120.972 134.259 119.504 129.786 120.193C127.974 120.468 126.759 120.261 125.956 119.527C125.038 118.679 124.993 117.325 125.084 116.11C125.13 115.605 125.245 114.045 122.676 113.816L122.538 113.793C120.015 113.587 119.258 112.669 119.121 107.141C119.006 102.944 109.166 93.7232 104.441 89.2964C102.95 87.8973 101.872 86.888 101.39 86.3375C99.9454 84.6631 92.7662 82.7594 88.454 82.1859C88.0182 82.1171 87.6971 81.7272 87.7659 81.2914C87.8347 80.8556 88.2246 80.5345 88.6604 80.6033C92.1469 81.062 100.519 82.897 102.606 85.3054C103.019 85.7871 104.143 86.8421 105.542 88.1496C112.813 94.9618 120.612 102.623 120.726 107.118C120.795 109.642 121.002 111.109 121.369 111.729C121.575 112.073 121.781 112.142 122.676 112.21L122.814 112.233C125.405 112.463 126.851 113.954 126.69 116.247C126.598 117.417 126.713 118.059 127.057 118.358C127.447 118.725 128.296 118.793 129.557 118.61C131.186 118.358 136.117 117.624 137.218 122.28C137.287 122.601 137.883 123.656 142.264 124.275C145.108 124.688 148.411 124.757 150.407 124.78H150.866C153.618 124.826 173.78 126.225 176.394 127.808C177.266 128.335 177.725 129.23 178.252 130.285C179.33 132.418 180.821 135.354 187.037 136.868C193.849 138.542 197.451 136.982 199.607 136.042C200.432 135.698 201.029 135.423 201.602 135.446C202.611 135.469 206.717 137.877 219.47 145.607C225.342 149.185 230.893 152.557 233.53 153.956C238.783 156.731 256.169 167.007 259.954 182.375C263.463 196.619 258.279 209.784 240.159 232.675C231.741 243.318 225.617 245.864 221.649 245.864Z" fill="#051529"/>
<path d="M207.612 228.386C207.268 228.386 206.947 228.157 206.832 227.813C205.249 222.262 205.593 220.977 207.061 218.386C207.635 217.399 209.653 214.991 212.245 211.917C216.603 206.734 223.186 198.935 224.035 196.068C225.273 191.893 223.599 185.93 203.277 170.746C202.933 170.47 202.841 169.989 203.116 169.622C203.392 169.278 203.873 169.186 204.24 169.461C224.172 184.347 227.177 191.045 225.572 196.504C224.631 199.669 218.461 207.032 213.484 212.927C211.052 215.817 208.965 218.294 208.484 219.143C207.222 221.344 206.947 222.193 208.415 227.331C208.529 227.767 208.3 228.203 207.864 228.317C207.75 228.386 207.681 228.386 207.612 228.386Z" fill="#051529"/>
<path d="M147.127 165.63C147.104 165.63 147.058 165.63 147.035 165.63C143.159 165.149 108.799 160.515 97.1475 150.354C84.1422 139.001 71.0223 106.476 70.9076 106.155C69.6231 102.875 69.4626 100.191 70.2654 95.145C70.3342 94.7092 70.747 94.411 71.1828 94.4798C71.6186 94.5487 71.9168 94.9615 71.848 95.3973C71.0911 100.168 71.2058 102.554 72.3985 105.581C72.5132 105.902 85.4726 138.037 98.2026 149.162C109.488 159.024 143.411 163.566 147.242 164.048C147.678 164.094 147.999 164.506 147.93 164.942C147.884 165.332 147.517 165.63 147.127 165.63Z" fill="#051529"/>
<path d="M138.457 181.641C138.319 181.641 138.159 181.595 138.044 181.526C137.677 181.297 137.539 180.792 137.769 180.425C139.512 177.581 148.251 162.97 150.407 153.864C150.499 153.428 150.934 153.153 151.37 153.268C151.806 153.36 152.058 153.795 151.967 154.231C149.765 163.589 140.888 178.407 139.145 181.274C138.984 181.503 138.709 181.641 138.457 181.641Z" fill="#051529"/>
<path d="M215.456 249.534C214.928 249.534 213.827 249.534 207.864 242.355C205.983 240.084 202.221 235.336 202.038 234.625C201.396 232.171 205.731 228.157 207.084 226.987C207.267 226.827 207.497 226.758 207.726 226.804C207.956 226.827 208.162 226.964 208.277 227.148C211.121 231.46 218.942 242.974 220.892 244.419C221.076 244.557 221.19 244.74 221.213 244.97C221.236 245.199 221.167 245.406 221.03 245.566C220.479 246.231 217.635 249.534 215.456 249.534ZM203.575 234.144C203.896 234.717 206.281 237.905 209.08 241.3C213.965 247.195 215.272 247.86 215.479 247.929C216.419 247.883 218.094 246.415 219.286 245.13C216.442 242.194 209.538 231.965 207.451 228.822C205.341 230.772 203.437 233.203 203.575 234.144Z" fill="#051529"/>
<path d="M187.886 267.7C187.289 267.7 186.808 267.517 186.487 267.15C186.028 266.645 185.936 265.911 186.257 264.925C185.065 265.613 183.826 266.095 183.023 265.796C182.541 265.613 182.243 265.223 182.129 264.673C181.785 262.7 183.734 260.521 185.821 258.227C187.175 256.713 188.574 255.154 189.056 253.915C189.79 251.943 189.973 250.475 189.973 249.741C189.927 249.764 189.881 249.787 189.835 249.787C186.968 250.887 183.78 252.011 182.152 251.186C181.67 250.933 181.349 250.543 181.211 250.039C180.706 248.158 184.124 245.91 191.28 241.369C195.088 238.96 199.423 236.231 202.336 233.776C202.68 233.501 203.185 233.524 203.46 233.868C203.735 234.212 203.712 234.717 203.368 234.992C200.363 237.515 195.982 240.291 192.129 242.722C189.606 244.327 187.221 245.818 185.454 247.103C183.092 248.823 182.794 249.465 182.771 249.626C182.794 249.672 182.817 249.695 182.886 249.741C184.032 250.314 187.977 248.777 189.285 248.273C190.019 247.997 190.225 247.906 190.409 247.906C190.73 247.883 191.051 248.02 191.257 248.296C191.991 249.259 191.418 252.172 190.569 254.466C189.996 256.002 188.482 257.677 187.037 259.282C185.432 261.049 183.642 263.067 183.711 264.283C184.376 264.214 186.303 263.113 187.932 261.805C188.23 261.553 188.689 261.576 188.964 261.828C189.262 262.104 189.308 262.539 189.101 262.861C187.611 265.154 187.679 265.911 187.702 266.049C187.863 266.095 188.574 266.118 190.042 265.384C190.363 265.223 190.776 265.292 191.005 265.567C191.12 265.705 191.326 265.888 191.785 265.911C193.781 265.98 197.749 262.792 199.767 260.773C200.065 260.475 200.524 260.452 200.845 260.705C201.166 260.957 201.235 261.416 201.006 261.76C200.386 262.746 199.538 264.512 199.698 265.223V265.246C200.432 264.994 202.657 263.273 206.281 259.328C209.745 255.544 212.933 251.392 214.791 248.273C215.02 247.883 215.502 247.768 215.892 247.997C216.282 248.227 216.396 248.708 216.167 249.098C214.172 252.447 210.662 256.989 206.969 260.957C200.662 267.746 199.469 267.058 198.964 266.76C198.551 266.508 198.253 266.118 198.139 265.636C198.047 265.246 198.07 264.833 198.139 264.374C196.212 265.911 193.666 267.586 191.716 267.54C191.166 267.517 190.684 267.356 190.271 267.081C189.331 267.494 188.528 267.7 187.886 267.7Z" fill="#051529"/>
<path d="M188.413 263.251C188.184 263.251 187.955 263.159 187.794 262.975C187.496 262.631 187.542 262.127 187.886 261.851C191.143 259.053 194.492 255.291 195.065 254.213C195.272 253.824 195.753 253.663 196.143 253.892C196.533 254.099 196.694 254.58 196.464 254.97C195.73 256.324 192.198 260.246 188.895 263.067C188.78 263.205 188.597 263.251 188.413 263.251Z" fill="#051529"/>
<path d="M190.386 266.943C190.134 266.943 189.881 266.829 189.721 266.599C189.468 266.232 189.56 265.728 189.927 265.475C194.171 262.562 198.483 257.126 198.529 257.08C198.804 256.736 199.308 256.668 199.652 256.943C199.997 257.218 200.065 257.723 199.79 258.067C199.607 258.296 195.271 263.755 190.845 266.783C190.707 266.897 190.546 266.943 190.386 266.943Z" fill="#051529"/>
<path d="M200.295 262.172C200.111 262.172 199.928 262.103 199.767 261.966C199.423 261.667 199.4 261.163 199.698 260.842C200.18 260.268 200.731 259.603 200.983 259.259C201.143 259.053 201.648 258.41 202.267 258.869C202.52 259.053 202.772 259.511 202.428 260.016C202.405 260.062 202.359 260.108 202.313 260.131C202.29 260.154 202.267 260.177 202.244 260.222C201.969 260.567 201.442 261.278 200.914 261.874C200.753 262.08 200.524 262.172 200.295 262.172Z" fill="#051529"/>
<path d="M109.648 228.845C109.235 228.845 108.891 228.524 108.845 228.111C108.684 226.276 107.904 216.459 107.239 204.234C106.849 196.871 106.712 191.779 108.524 188.04C110.496 183.935 114.694 181.87 122.125 181.366C127.928 180.953 139.03 179.989 151.898 178.866C171.532 177.145 195.96 174.989 209.951 174.163C210.387 174.141 210.777 174.485 210.8 174.92C210.823 175.356 210.479 175.746 210.043 175.769C196.074 176.595 171.669 178.728 152.035 180.471C139.168 181.595 128.066 182.581 122.24 182.971C115.451 183.453 111.689 185.219 109.992 188.751C108.363 192.123 108.501 197.055 108.868 204.142C109.533 216.345 110.313 226.139 110.45 227.974C110.496 228.409 110.152 228.799 109.717 228.845C109.694 228.845 109.671 228.845 109.648 228.845Z" fill="#051529"/>
<path d="M111.322 261.989C107.928 261.989 105.909 261.163 105.038 259.512C101.987 253.594 102.446 237.034 103.593 231.85C104.808 226.345 109.143 227.079 112.309 227.606C112.561 227.652 112.79 227.698 113.043 227.721C116.162 228.226 130.796 225.657 136.37 224.258C139.627 223.432 142.494 222.858 144.489 224.212C145.865 225.129 146.668 226.827 147.058 229.533C147.655 233.868 148.205 240.864 148.641 249.718C148.847 254.144 146.118 255.062 138.205 256.576C136.301 256.943 133.732 257.608 130.773 258.388C125.841 259.672 120.245 261.117 115.497 261.76C113.891 261.897 112.515 261.989 111.322 261.989ZM105.152 232.171C103.96 237.584 103.822 253.64 106.46 258.755C107.01 259.81 108.983 260.911 115.245 260.085C119.901 259.466 125.452 258.044 130.337 256.759C133.342 255.979 135.934 255.314 137.883 254.924C146.324 253.319 147.15 252.516 147.012 249.741C146.577 240.933 146.049 234.006 145.453 229.694C145.154 227.515 144.535 226.138 143.595 225.496C142.287 224.602 140.177 224.9 136.759 225.771C131.622 227.079 116.346 229.831 112.79 229.281C112.538 229.235 112.286 229.189 112.056 229.166C108.295 228.547 105.978 228.432 105.152 232.171Z" fill="#051529"/>
<path d="M134.81 292.128C117.286 292.128 114.029 287.059 113.387 282.724C112.813 278.94 111.735 270.132 111.231 261.232C111.208 260.796 111.552 260.407 111.987 260.384C112.423 260.361 112.813 260.705 112.836 261.14C113.341 269.971 114.419 278.71 114.992 282.472C115.313 284.651 116.391 287.38 121.965 289.055C128.915 291.142 141.026 290.981 157.953 288.527C174.949 286.073 197.038 282.541 216.557 279.421C237.132 276.141 254.885 273.297 261.009 272.632C272.363 271.393 278.739 269.994 277.569 255.544C276.423 241.484 271.537 190.953 270.069 180.196C268.693 170.172 265.161 169.255 251.834 169.989C251.398 170.012 251.008 169.668 250.986 169.232C250.963 168.796 251.307 168.406 251.742 168.383C258.807 167.993 263.211 168.085 266.239 169.645C269.266 171.228 270.849 174.209 271.629 179.967C273.12 190.747 278.005 241.323 279.152 255.406C280.414 271.003 273.211 272.93 261.17 274.238C255.091 274.903 237.338 277.747 216.787 281.027C197.29 284.146 175.179 287.679 158.16 290.133C148.411 291.532 140.796 292.128 134.81 292.128Z" fill="#051529"/>
<path d="M134.603 247.608C131.3 247.608 128.617 244.924 128.617 241.621C128.617 238.318 131.3 235.635 134.603 235.635C137.906 235.635 140.59 238.318 140.59 241.621C140.59 244.924 137.906 247.608 134.603 247.608ZM134.603 237.24C132.195 237.24 130.222 239.213 130.222 241.621C130.222 244.029 132.195 246.002 134.603 246.002C137.012 246.002 138.984 244.029 138.984 241.621C138.984 239.213 137.012 237.24 134.603 237.24Z" fill="#051529"/>
<path d="M70.9075 96.3379C70.724 96.3379 70.5176 96.292 70.3112 96.1544C69.0267 95.4434 64.921 89.9844 65.7238 87.5072C67.0312 83.4244 78.729 75.9469 84.9679 75.2129C85.4955 75.1441 86.3212 75.3735 87.8121 77.6443C88.5461 78.7452 89.3259 80.1903 89.4406 80.9931C89.5782 81.8188 89.0507 82.1628 88.7066 82.2317C87.101 82.5757 74.1646 93.012 71.6186 96.0168C71.458 96.2003 71.2057 96.3379 70.9075 96.3379ZM85.0367 76.8415C79.0272 77.6213 68.2698 84.8006 67.2376 88.0347C66.8247 89.3421 69.5542 93.4937 70.7928 94.5717C73.5682 91.6817 84.3945 82.5757 87.7662 80.9242C87.3533 79.7774 85.7248 77.2085 85.0367 76.8415Z" fill="#051529"/>
<path d="M65.1044 82.438C64.9668 82.438 64.8291 82.3922 64.6915 82.3234C62.4666 81.0389 61.1133 78.0341 61.228 74.6624C61.2968 72.7816 61.8014 71.153 62.696 69.9144C59.2554 70.1438 53.8194 70.075 53.0625 67.2538C52.0762 63.5838 58.682 61.7718 65.0814 60.0057C65.4943 59.891 65.9072 59.7763 66.2971 59.6616C64.875 54.8448 62.9712 49.5923 62.1226 48.9959C61.8244 48.7665 61.3198 48.4913 60.7463 48.1473C58.315 46.6793 54.2323 44.248 53.7276 41.0368C53.4065 38.9495 53.9799 37.2063 55.2644 36.3576C56.2736 35.7154 57.5352 35.7383 58.5903 36.4265C59.1178 36.7705 60.4023 37.5045 61.9161 38.3761C68.1779 41.9772 71.2515 43.8351 71.8249 44.7526C72.6277 46.037 83.087 72.9192 84.2567 75.9927C84.4173 76.4056 84.2109 76.8643 83.798 77.0249C83.3851 77.1855 82.9264 76.979 82.7658 76.5662C78.1555 64.6848 71.068 46.6105 70.4716 45.6012C69.8982 44.8214 63.9805 41.4038 61.1363 39.7753C59.5536 38.8578 58.2921 38.1467 57.7187 37.7797C57.1911 37.4357 56.5948 37.4127 56.136 37.7109C55.402 38.1926 55.0809 39.3395 55.3103 40.7845C55.7002 43.2617 59.3701 45.4636 61.5721 46.771C62.1684 47.138 62.696 47.4362 63.063 47.7114C64.8062 48.973 67.3293 57.4597 68.0632 60.0286C68.1321 60.235 68.0862 60.4644 67.9944 60.6479C67.8798 60.8314 67.7192 60.969 67.5128 61.0378C66.8705 61.2213 66.2053 61.4048 65.4943 61.5883C60.9298 62.8499 54.0258 64.7307 54.5992 66.8638C55.058 68.607 61.0675 68.63 64.9668 68.1024C65.3567 68.0566 65.7237 68.2859 65.8384 68.6529C65.953 69.0199 65.7695 69.4328 65.4255 69.6163C63.8887 70.3732 62.9024 72.2999 62.8107 74.7312C62.7189 77.4607 63.774 79.9608 65.4714 80.9471C65.8613 81.1765 65.976 81.6582 65.7695 82.0481C65.6549 82.3004 65.3796 82.438 65.1044 82.438Z" fill="#051529"/>
<path d="M66.4805 88.5626C66.4346 88.5626 66.3888 88.5626 66.3429 88.5396C64.5997 88.2414 61.205 86.3377 58.3838 83.4247C55.8836 80.8328 52.9018 76.5206 52.9707 70.7176C52.9707 70.2818 53.3376 69.9148 53.7734 69.9148C54.2092 69.9148 54.5762 70.2818 54.5762 70.7176C54.5074 75.9702 57.2369 79.9153 59.5306 82.3008C62.2831 85.1449 65.3107 86.7276 66.5952 86.957C67.031 87.0258 67.3292 87.4386 67.2604 87.8745C67.1916 88.2873 66.8475 88.5626 66.4805 88.5626Z" fill="#051529"/>
<path d="M60.2644 63.0795C59.9663 63.0795 59.691 62.9189 59.5305 62.6208C57.8102 59.0885 56.7321 54.524 58.7965 52.2532C59.691 51.2899 61.4801 50.4412 65.0812 51.8404C65.4941 52.0009 65.7005 52.4597 65.5399 52.8725C65.3794 53.2854 64.9206 53.4918 64.5078 53.3313C62.9939 52.7349 60.9755 52.2532 59.9892 53.3313C58.7735 54.6616 59.1635 58.1939 60.9755 61.9097C61.159 62.2996 60.9984 62.7813 60.6085 62.9878C60.4938 63.0566 60.3791 63.0795 60.2644 63.0795Z" fill="#051529"/>
<path d="M55.3561 65.2127C55.1038 65.2127 54.8286 65.0751 54.6909 64.8457C52.856 62.0474 51.755 57.827 53.3606 55.5333C54.0258 54.5699 55.4249 53.5836 58.3379 54.2717C58.7737 54.3635 59.026 54.7993 58.9343 55.2351C58.8425 55.6709 58.4067 55.9232 57.9709 55.8315C56.3424 55.4415 55.2414 55.648 54.668 56.4508C53.567 58.0334 54.4845 61.6116 56.0213 63.9512C56.2736 64.3181 56.1589 64.8228 55.7919 65.0521C55.6772 65.1668 55.5167 65.2127 55.3561 65.2127Z" fill="#051529"/>
<path d="M56.3883 72.2544C54.9203 72.2544 53.0853 71.5204 51.0898 70.0754C48.2686 68.034 46.8924 63.9971 48.1539 61.4281C48.5897 60.5565 49.9659 58.6527 53.5899 59.7308C54.0258 59.8455 54.2551 60.3042 54.1404 60.74C54.0028 61.1758 53.567 61.4052 53.1312 61.2905C51.8926 60.9235 50.2641 60.7629 49.576 62.1621C48.7502 63.8365 49.6448 67.0936 52.0073 68.7909C54.668 70.7176 56.48 70.9011 57.214 70.4653C57.581 70.2589 57.7416 69.8231 57.6727 69.2267C57.6269 68.7909 57.948 68.401 58.3838 68.3551C58.8196 68.3092 59.2095 68.6303 59.2554 69.0661C59.3701 70.3047 58.9113 71.3139 57.9939 71.8644C57.581 72.1167 57.0305 72.2544 56.3883 72.2544Z" fill="#051529"/>
<path d="M10.1472 189.508C5.21577 189.508 4.22947 188.017 3.51842 185.219C2.62388 181.664 1.98165 177.26 0.788925 166.365C0.765988 166.089 0.743053 165.837 0.697179 165.585L0.559556 164.415C0.284312 161.869 0.0549436 159.874 0.00906961 158.268C-0.128552 153.612 1.2706 152.029 6.22499 151.249C20.3312 149.024 39.346 147.327 46.5253 146.685C47.2363 146.616 47.8327 146.57 48.2914 146.524C52.2824 146.157 54.4844 147.533 55.7 151.135C56.2276 152.694 56.5716 154.736 56.801 157.419L56.824 157.649C56.8698 158.084 56.5258 158.474 56.09 158.52C55.6542 158.566 55.2642 158.222 55.2184 157.786L55.1954 157.557C54.989 155.011 54.6449 153.084 54.1633 151.662C53.177 148.772 51.6861 147.855 48.4061 148.13C47.9473 148.176 47.3739 148.222 46.6399 148.29C39.4836 148.933 20.4918 150.607 6.45436 152.832C2.27983 153.497 1.47703 154.392 1.59172 158.222C1.63759 159.759 1.86696 161.754 2.14221 164.254L2.27983 165.424C2.30277 165.677 2.34864 165.952 2.37158 166.204C3.54136 177.007 4.1836 181.365 5.0552 184.829C5.76625 187.604 6.15618 189.141 21.3175 186.664C21.7533 186.595 22.1662 186.893 22.235 187.329C22.3038 187.765 22.0056 188.178 21.5698 188.247C16.3631 189.095 12.7162 189.508 10.1472 189.508Z" fill="#051529"/>
<path d="M55.9979 157.465C47.0295 158.681 18.4501 162.534 1.43082 164.943C1.10971 162.121 0.857397 159.942 0.811523 158.222C13.1057 156.823 44.8735 152.694 54.9428 151.387C55.4474 152.901 55.7914 154.873 55.9979 157.465Z" fill="#051529"/>
<path d="M1.43113 165.286C1.36232 165.286 1.27056 165.263 1.22469 165.218C1.15588 165.172 1.11001 165.08 1.08707 164.988L1.01826 164.369C0.743016 161.846 0.513647 159.827 0.467773 158.245C0.467773 158.061 0.605393 157.924 0.765951 157.901C13.5877 156.433 48.1079 151.937 54.8743 151.065C55.0348 151.043 55.1954 151.134 55.2413 151.295C55.7459 152.809 56.1129 154.827 56.3193 157.465C56.3423 157.648 56.2046 157.809 56.0211 157.832L55.8147 157.855C46.5482 159.116 18.3357 162.924 1.45406 165.309C1.477 165.286 1.45407 165.286 1.43113 165.286ZM1.17882 158.543C1.24763 160.057 1.45406 161.938 1.72931 164.3L1.75225 164.575C18.6109 162.213 46.2959 158.451 55.6312 157.19C55.4248 154.919 55.1266 153.153 54.6908 151.777C47.351 152.717 14.0694 157.052 1.17882 158.543Z" fill="#051529"/>
<path d="M9.71151 174.691C9.06927 174.691 8.54172 174.645 8.1518 174.576C7.89949 174.53 7.14257 174.347 6.89026 173.682C6.66089 173.039 6.2939 171.755 6.06453 170.608C5.65166 168.544 5.81222 167.856 6.17922 167.466C7.25725 166.319 13.7714 165.585 16.1339 165.791C17.1202 165.883 17.6477 166.089 17.9229 166.525C18.6111 167.557 19.735 171.64 18.4046 173.016C17.5101 173.888 12.6245 174.691 9.71151 174.691ZM8.33529 172.971C9.61976 173.475 16.3403 172.512 17.2578 171.847C17.6477 171.365 17.2348 168.544 16.6385 167.466C16.2027 167.305 14.5512 167.236 11.9593 167.535C9.48214 167.833 7.87655 168.269 7.41781 168.498C7.349 169.186 7.85361 171.549 8.33529 172.971ZM6.75264 167.97L7.32606 168.521L6.75264 167.97Z" fill="#051529"/>
<path d="M117.882 220.358C117.469 220.358 117.102 220.037 117.079 219.601C116.988 218.065 116.873 216.551 116.758 215.06L116.667 213.89C116.644 213.454 116.965 213.064 117.401 213.041C117.836 213.019 118.226 213.34 118.249 213.775L118.341 214.945C118.456 216.436 118.57 217.95 118.662 219.51C118.685 219.945 118.364 220.335 117.905 220.358C117.928 220.358 117.905 220.358 117.882 220.358ZM117.148 208.913C116.712 208.913 116.368 208.569 116.345 208.133C116.3 207.147 116.277 206.252 116.277 205.426C116.277 204.28 116.322 203.27 116.391 202.307C116.414 201.871 116.804 201.527 117.263 201.573C117.699 201.596 118.043 201.986 117.997 202.445C117.928 203.362 117.882 204.325 117.882 205.426C117.882 206.229 117.905 207.101 117.928 208.087C117.951 208.523 117.607 208.913 117.148 208.913C117.171 208.913 117.148 208.913 117.148 208.913ZM118.433 197.628C118.318 197.628 118.203 197.605 118.112 197.559C117.699 197.375 117.538 196.894 117.722 196.504C118.364 195.082 119.258 193.958 120.359 193.155C120.818 192.811 121.414 192.49 122.103 192.192C122.515 192.008 122.974 192.215 123.158 192.605C123.341 193.017 123.135 193.476 122.745 193.66C122.171 193.912 121.69 194.164 121.3 194.44C120.405 195.105 119.694 195.999 119.167 197.169C119.029 197.444 118.731 197.628 118.433 197.628ZM127.952 192.192C127.562 192.192 127.24 191.917 127.172 191.527C127.103 191.091 127.378 190.678 127.814 190.586C129.488 190.288 131.438 190.013 133.571 189.783C134.007 189.737 134.397 190.059 134.443 190.494C134.489 190.93 134.167 191.32 133.732 191.366C131.644 191.572 129.741 191.848 128.112 192.146C128.043 192.192 127.997 192.192 127.952 192.192ZM139.374 190.976C138.961 190.976 138.594 190.655 138.571 190.219C138.548 189.783 138.892 189.393 139.328 189.371C142.081 189.21 144.283 189.164 145.108 189.164C145.108 189.164 145.108 189.164 145.131 189.164C145.567 189.164 145.934 189.508 145.934 189.944C145.934 190.38 145.59 190.747 145.154 190.77C144.351 190.793 142.172 190.816 139.443 190.976C139.397 190.976 139.374 190.976 139.374 190.976Z" fill="#051529"/>
<path d="M240.779 266.53C240.366 266.53 240.022 266.232 239.976 265.819C239.93 265.384 240.251 264.971 240.687 264.925C242.614 264.695 244.518 264.466 246.375 264.214C246.811 264.145 247.224 264.466 247.27 264.902C247.339 265.338 247.018 265.751 246.582 265.796C244.724 266.049 242.797 266.278 240.871 266.507C240.848 266.507 240.825 266.53 240.779 266.53ZM252.179 265.017C251.789 265.017 251.445 264.741 251.376 264.328C251.307 263.893 251.605 263.48 252.041 263.411C254.151 263.09 256.055 262.769 257.683 262.448C258.119 262.356 258.532 262.654 258.624 263.09C258.716 263.526 258.417 263.939 257.982 264.03C256.33 264.351 254.426 264.673 252.293 264.994C252.27 265.017 252.224 265.017 252.179 265.017ZM263.441 262.723C263.097 262.723 262.798 262.516 262.684 262.172C262.546 261.76 262.775 261.301 263.188 261.163C263.486 261.071 263.762 260.957 263.991 260.865C265.367 260.292 266.262 259.374 266.812 257.975C266.973 257.562 267.432 257.356 267.844 257.516C268.257 257.677 268.464 258.136 268.303 258.548C267.592 260.383 266.399 261.622 264.61 262.356C264.335 262.471 264.037 262.585 263.693 262.7C263.601 262.7 263.509 262.723 263.441 262.723ZM268.303 253.41C267.867 253.41 267.5 253.066 267.5 252.608C267.477 251.094 267.363 249.236 267.133 246.965C267.088 246.529 267.409 246.139 267.844 246.094C268.28 246.048 268.67 246.369 268.716 246.805C268.945 249.121 269.083 251.025 269.083 252.608C269.106 253.043 268.762 253.41 268.303 253.41ZM267.248 241.988C266.858 241.988 266.514 241.69 266.445 241.3C266.216 239.579 265.964 237.722 265.688 235.749L265.665 235.634C265.597 235.199 265.918 234.786 266.354 234.74C266.789 234.671 267.202 234.992 267.248 235.428L267.271 235.543C267.546 237.515 267.799 239.373 268.028 241.116C268.097 241.552 267.776 241.965 267.34 242.011C267.317 241.988 267.294 241.988 267.248 241.988Z" fill="#051529"/>
<path d="M140.177 282.334C137.998 282.311 136.048 282.196 134.351 281.99C133.915 281.944 133.594 281.531 133.663 281.095C133.709 280.66 134.121 280.339 134.557 280.407C136.186 280.614 138.067 280.728 140.177 280.751C140.613 280.751 140.98 281.118 140.98 281.554C140.98 281.967 140.613 282.334 140.177 282.334ZM145.888 282.151C145.475 282.151 145.108 281.829 145.085 281.394C145.062 280.958 145.406 280.568 145.842 280.545C147.104 280.476 148.457 280.361 149.879 280.247C150.315 280.201 150.705 280.545 150.751 280.981C150.797 281.417 150.453 281.807 150.017 281.852C148.595 281.99 147.218 282.082 145.934 282.151C145.934 282.151 145.911 282.151 145.888 282.151ZM128.938 280.568C128.823 280.568 128.708 280.545 128.617 280.499C126.506 279.559 125.015 278.228 124.052 276.416C123.846 276.026 123.983 275.545 124.373 275.338C124.763 275.132 125.245 275.269 125.451 275.659C126.254 277.127 127.493 278.228 129.259 279.031C129.672 279.215 129.855 279.696 129.672 280.086C129.534 280.384 129.236 280.568 128.938 280.568ZM123.341 271.324C122.928 271.324 122.584 271.003 122.538 270.59C122.424 269.26 122.378 267.861 122.332 266.37C122.309 265.865 122.309 265.338 122.286 264.81C122.263 264.374 122.607 263.984 123.066 263.984C123.502 263.962 123.892 264.306 123.892 264.764C123.915 265.292 123.915 265.819 123.937 266.324C123.983 267.792 124.029 269.168 124.121 270.453C124.167 270.889 123.823 271.278 123.387 271.324C123.387 271.324 123.364 271.324 123.341 271.324Z" fill="#051529"/>
<path d="M22.373 169.278C36.8462 163.635 55.8609 158.176 61.0447 156.754C66.2284 155.309 69.2103 153.52 71.848 160.057C74.4628 166.594 78.2704 177.65 79.7613 180.93C81.2522 184.21 82.5825 187.008 74.1417 189.944C65.7009 192.88 47.2825 198.706 39.6674 201.963C32.0524 205.22 29.4605 206.275 25.3318 196.641C21.2032 187.008 19.3911 181.641 17.8544 176.939C16.2947 172.191 19.2535 170.493 22.373 169.278Z" fill="#CDE1F9"/>
<path d="M60.4744 177.254C63.1606 176.613 64.819 173.916 64.1786 171.23C63.5382 168.544 60.8414 166.886 58.1553 167.526C55.4691 168.166 53.8107 170.863 54.4511 173.549C55.0915 176.235 57.7882 177.894 60.4744 177.254Z" fill="white"/>
<path d="M59.3243 178.2C56.1361 178.2 53.5212 175.608 53.5212 172.397C53.5212 169.209 56.1131 166.594 59.3243 166.594C62.5355 166.594 65.1274 169.186 65.1274 172.397C65.1274 175.608 62.5125 178.2 59.3243 178.2ZM59.3243 168.2C57.0077 168.2 55.1268 170.081 55.1268 172.397C55.1268 174.714 57.0077 176.595 59.3243 176.595C61.6409 176.595 63.5218 174.714 63.5218 172.397C63.5218 170.081 61.6409 168.2 59.3243 168.2Z" fill="#051529"/>
<path d="M66.2744 176.25C66.2055 176.25 66.1367 176.25 66.0679 176.25C62.8797 176.136 60.3566 173.452 60.4713 170.264C60.586 167.075 63.2696 164.552 66.4578 164.667C69.6461 164.782 72.1691 167.465 72.0545 170.654C71.9627 173.773 69.3708 176.25 66.2744 176.25ZM62.0769 170.287C62.031 171.411 62.4439 172.466 63.2008 173.291C63.9577 174.117 65.0128 174.576 66.1138 174.622C67.2377 174.668 68.2928 174.255 69.1185 173.498C69.9443 172.741 70.403 171.686 70.4489 170.585C70.5177 168.268 68.7057 166.319 66.389 166.25C64.0953 166.158 62.1457 167.993 62.0769 170.287Z" fill="#051529"/>
<path d="M64.9437 183.567C64.6226 183.567 64.3015 183.361 64.1868 183.017C64.0492 182.604 64.2556 182.145 64.6914 181.985C68.8201 180.563 72.123 179.462 72.1459 179.462C72.5588 179.324 73.0175 179.553 73.1551 179.966C73.2928 180.379 73.0634 180.838 72.6505 180.975C72.6276 180.975 69.3247 182.076 65.2189 183.499C65.1272 183.544 65.0354 183.567 64.9437 183.567Z" fill="#051529"/>
<path d="M54.324 187.329C54.0028 187.329 53.7047 187.145 53.59 186.824C53.4294 186.411 53.6129 185.953 54.0258 185.769C55.1726 185.287 56.2507 184.852 57.214 184.439C58.4985 183.911 59.9435 183.338 61.4803 182.719C61.8932 182.558 62.3519 182.764 62.5125 183.177C62.673 183.59 62.4666 184.049 62.0537 184.209C60.5169 184.806 59.0949 185.402 57.8104 185.93C56.847 186.32 55.769 186.778 54.6221 187.26C54.5304 187.306 54.4157 187.329 54.324 187.329Z" fill="#051529"/>
<path d="M43.4291 191.962C43.108 191.962 42.8328 191.779 42.6951 191.481C42.5117 191.068 42.6952 190.609 43.108 190.426C45.3559 189.439 47.9018 188.361 50.4708 187.283C50.8837 187.1 51.3424 187.306 51.5259 187.719C51.7094 188.132 51.503 188.591 51.0901 188.774C48.5212 189.852 45.9981 190.953 43.7503 191.916C43.6356 191.939 43.5209 191.962 43.4291 191.962Z" fill="#051529"/>
<path d="M34.5064 195.999C34.2083 195.999 33.933 195.839 33.7954 195.564C33.589 195.174 33.7495 194.692 34.1624 194.485C35.4927 193.82 37.7864 192.765 40.9747 191.366C41.3875 191.183 41.8463 191.366 42.0298 191.779C42.2133 192.192 42.0298 192.651 41.6169 192.834C38.4516 194.21 36.2038 195.265 34.8734 195.908C34.7358 195.976 34.6211 195.999 34.5064 195.999Z" fill="#051529"/>
</svg>
