<svg width="322" height="170" viewBox="0 0 322 170" fill="none" xmlns="http://www.w3.org/2000/svg">
<path d="M129.513 130.58C129.84 131.833 130.033 145.232 129.917 146.157C129.783 147.083 99.3805 165.031 93.7704 167.132C88.1604 169.253 82.5504 169.966 71.8701 166.535C61.1899 163.103 33.2747 151.883 31.5011 149.049C29.7275 146.215 28.725 134.474 28.725 134.474C28.725 134.474 17.6977 133.858 15.2493 128.884C13.63 125.606 2.81476 96.9586 1.46526 92.4282C0.0964957 87.8978 -0.154123 87.0495 6.59333 84.6204C13.3408 82.2106 37.4196 73.9209 37.4196 73.9209L39.6751 78.4706C39.6751 78.4706 22.3438 83.5601 19.0665 85.4494C15.7891 87.3387 15.5771 90.6353 18.2375 97.4792C20.8979 104.342 28.9178 129.539 29.8431 131.621C30.7685 133.703 65.9902 146.119 79.1574 151.131C81.9913 152.211 84.4397 152.538 85.3265 152.114C91.3413 149.28 109.598 140.566 115.613 137.212C121.628 133.915 129.513 130.58 129.513 130.58Z" fill="#CDE1F9"/>
<path d="M296.001 134.494C264.597 167.71 210.925 180.588 177.959 139.043C176.918 137.732 175.896 136.364 174.894 134.956C166.72 123.351 161.727 111.707 159.375 100.371C158.257 95.05 157.717 89.787 157.717 84.6589C157.582 12.9046 259.546 -37.335 308.436 35.8845C331.435 70.335 320.485 108.603 296.001 134.494Z" fill="#CDE1F9"/>
<path d="M296.001 134.494C264.597 167.71 210.926 180.588 177.959 139.043C177.767 137.598 177.555 135.978 177.323 134.166C175.935 123.351 177.747 121.076 177.921 119.322C178.094 117.587 178.094 114.945 176.359 111.475C174.624 108.024 174.933 105.653 174.933 105.653C173.834 105.653 166.739 102.357 164.445 99.6962C163.674 100.082 162.672 100.332 161.457 100.39C160.705 100.429 160.011 100.409 159.394 100.352C154.883 99.9275 153.958 97.1128 154.999 95.1079C151.876 94.3946 151.162 91.8691 152.146 89.6521C153.534 89.1894 154.922 88.746 156.233 88.3219C155.808 87.2616 156.445 85.9699 157.756 84.6397C159.067 83.3095 161.033 81.96 163.366 80.7455C162.517 74.6727 161.727 70.9327 160.917 68.735C171.231 69.1977 177.073 71.0098 179.617 72.8413C184.013 76.0222 194.963 100.217 194.963 100.217C195.406 100.005 195.85 99.7926 196.255 99.5805C196.255 99.5805 199.127 103.166 200.11 108.545C204.043 108.545 209.403 116.333 210.077 119.765C210.27 120.748 210.636 122.021 211.06 123.351C222.011 107.041 235.371 87.9749 235.371 87.9749L235.313 50.594C235.313 50.594 217.133 47.5094 216.651 45.4466C216.208 43.5188 231.091 33.3976 244.431 26.1489C244.046 29.2913 247.342 32.2216 252.162 32.0288C255.131 31.9132 259.623 29.8504 260.471 31.1613C261.319 32.4723 259.411 36.4629 261.377 40.0679C263.344 43.6537 266.505 47.5673 267.816 47.6829C268.529 47.76 270.265 46.7961 271.691 45.4852C276.164 45.0418 280.501 47.201 280.251 49.4951C279.807 53.5821 268.395 54.0834 268.395 54.0834C268.395 54.0834 266.717 70.6243 267.546 85.2181C267.546 85.2181 269.84 87.4544 270.727 89.3629C271.614 91.2715 275.72 97.4213 280.251 102.279C285.475 107.986 292.55 119.322 296.001 134.494Z" fill="white"/>
<path d="M244.027 42.2465C243.506 42.0923 243.217 41.5525 243.391 41.032L244.123 38.6607C244.277 38.1402 244.817 37.8511 245.338 38.0246C245.858 38.1788 246.147 38.7186 245.974 39.2391L245.241 41.6103C245.087 42.1116 244.547 42.4008 244.027 42.2465Z" fill="#051529"/>
<path d="M251.082 43.6152C250.562 43.461 250.273 42.9212 250.446 42.4007L251.179 40.0294C251.333 39.5089 251.873 39.2197 252.393 39.3932C252.914 39.5474 253.203 40.0872 253.03 40.6078L252.297 42.979C252.143 43.4802 251.603 43.7694 251.082 43.6152Z" fill="#051529"/>
<path d="M251.7 19.6521C253.319 14.4662 258.447 16.182 258.852 19.1894C262.785 16.876 266.216 20.3847 264.905 24.2403C268.954 24.3175 270.785 28.9828 269.436 31.7011C273.33 32.8 272.655 36.9834 270.747 38.2365C270.843 38.1979 273.754 38.2365 273.754 41.9187C273.754 44.5405 269.069 47.8179 267.759 47.7022C266.448 47.5865 263.286 43.673 261.32 40.0872C259.353 36.5014 261.262 32.4915 260.413 31.1806C259.565 29.8696 255.073 31.9324 252.104 32.0481C245.28 32.2987 241.501 26.3031 246.938 22.3511C244.335 20.5582 247.593 16.4904 251.7 19.6521Z" fill="#051529"/>
<path d="M267.816 48.3771C267.778 48.3771 267.72 48.3771 267.681 48.3771C265.811 48.2036 262.418 43.5189 260.722 40.4151C259.43 38.0438 259.681 35.5569 259.854 33.7254C259.951 32.8194 260.047 31.8747 259.835 31.547C259.835 31.547 259.7 31.3542 258.813 31.4506C258.061 31.5277 257.117 31.759 256.095 32.0097C254.746 32.3374 253.338 32.6844 252.104 32.723C248.191 32.8772 244.894 31.065 243.911 28.2311C243.198 26.1683 243.93 24.0091 245.877 22.3126C245.453 21.7921 245.261 21.1752 245.318 20.5197C245.415 19.498 246.128 18.5919 247.169 18.1292C248.422 17.5894 249.907 17.7629 251.333 18.6304C252.22 16.6255 253.82 15.5266 255.69 15.6808C257.29 15.8158 258.678 16.8568 259.237 18.2256C260.972 17.493 262.746 17.6665 264.096 18.7654C265.484 19.9028 266.101 21.7535 265.734 23.6621C267.315 23.932 268.665 24.8574 269.551 26.3225C270.496 27.8841 270.766 29.7734 270.284 31.3156C271.711 31.9325 272.636 33.0507 272.867 34.4773C273.041 35.6533 272.732 36.9064 272.077 37.851C272.327 37.9474 272.578 38.0824 272.809 38.2559C273.542 38.7764 274.41 39.856 274.41 41.9381C274.41 43.6346 272.906 45.2539 272 46.0829C270.708 47.2396 268.896 48.3771 267.816 48.3771ZM259.237 30.0625C260.009 30.0625 260.625 30.2553 260.972 30.7951C261.435 31.5084 261.319 32.5302 261.204 33.8218C261.03 35.5569 260.818 37.7354 261.898 39.721C264.038 43.6346 267.007 46.9119 267.797 46.989C268.144 47.0276 269.628 46.3528 271.094 45.0226C272.347 43.8852 273.06 42.7477 273.06 41.8802C273.06 40.8006 272.79 40.0102 272.25 39.4897C271.653 38.9113 270.901 38.8728 270.804 38.8728C270.515 38.9113 270.245 38.7571 270.13 38.4872C269.976 38.1788 270.091 37.8125 270.361 37.6197C271.209 37.0606 271.73 35.7497 271.556 34.6122C271.441 33.8218 270.939 32.7615 269.243 32.2988C269.05 32.241 268.896 32.1061 268.8 31.9326C268.722 31.7398 268.722 31.547 268.819 31.3542C269.436 30.1204 269.262 28.3468 268.414 26.9587C267.951 26.1876 266.872 24.9152 264.886 24.8766C264.674 24.8766 264.462 24.761 264.346 24.5875C264.231 24.414 264.192 24.1826 264.25 23.9898C264.809 22.3512 264.404 20.6932 263.267 19.7486C262.168 18.8618 260.683 18.8425 259.18 19.71C258.987 19.8257 258.755 19.8257 258.543 19.7293C258.331 19.6329 258.196 19.4401 258.177 19.2088C258.023 18.0521 256.885 17.0689 255.613 16.9532C254.129 16.8375 252.953 17.8593 252.336 19.7871C252.278 19.9992 252.104 20.1534 251.892 20.2305C251.68 20.2884 251.449 20.2498 251.275 20.1149C250.022 19.1509 248.731 18.8425 247.728 19.2859C247.131 19.5365 246.726 20.0378 246.668 20.5583C246.629 21.0017 246.841 21.3872 247.304 21.6957C247.478 21.8114 247.593 22.0234 247.593 22.2355C247.593 22.4475 247.497 22.6596 247.323 22.7946C245.376 24.2019 244.605 25.9948 245.203 27.6913C245.974 29.9276 248.789 31.3927 252.066 31.2771C253.145 31.2385 254.495 30.9108 255.787 30.6023C257.098 30.371 258.293 30.0625 259.237 30.0625Z" fill="#051529"/>
<path d="M297.216 141.704C296.888 141.704 296.599 141.453 296.541 141.125C293.977 123.447 286.15 109.702 279.672 102.742C275.046 97.7682 270.939 91.5798 270.033 89.652C269.204 87.8783 267.007 85.7384 266.987 85.7192C266.872 85.6035 266.794 85.4493 266.794 85.2758C265.965 70.7976 267.623 54.1989 267.643 54.0254C267.681 53.6977 267.951 53.4278 268.279 53.4278C272.462 53.235 279.21 52.0012 279.499 49.4371C279.576 48.7238 278.901 48.0684 278.477 47.7599C276.53 46.2562 272.462 45.4851 269.05 46.796C268.703 46.9309 268.317 46.7574 268.182 46.4104C268.048 46.0634 268.221 45.6778 268.568 45.5429C272.578 44.0006 277.089 45.0031 279.306 46.6996C280.405 47.5479 280.945 48.5696 280.829 49.5914C280.386 53.6977 271.498 54.5652 268.915 54.7387C268.645 57.7654 267.411 72.1471 268.125 84.948C268.703 85.5457 270.477 87.4157 271.267 89.0929C272.115 90.9051 276.202 97.0356 280.675 101.836C287.287 108.95 295.269 122.946 297.891 140.952C297.948 141.318 297.698 141.665 297.312 141.723C297.293 141.704 297.254 141.704 297.216 141.704Z" fill="#051529"/>
<path d="M210.983 124.045C210.848 124.045 210.732 124.006 210.617 123.929C210.308 123.717 210.231 123.293 210.424 122.984C220.699 107.697 233.25 89.729 234.618 87.7626L234.561 51.1529C233.192 50.9215 229.567 50.2661 225.943 49.4564C223.244 48.8587 221.085 48.2804 219.485 47.7599C216.574 46.8152 216.053 46.1598 215.918 45.6007C215.783 45.0031 215.456 43.615 226.174 36.3856C232.575 32.0672 240.402 27.4211 247.092 23.951C247.419 23.7775 247.824 23.9124 247.998 24.2402C248.171 24.5679 248.036 24.9728 247.708 25.1463C241.269 28.4814 233.693 32.9733 227.428 37.1567C219.909 42.1884 217.538 44.6175 217.268 45.2922C217.538 45.5814 218.984 46.526 226.56 48.2033C230.975 49.1865 235.312 49.9191 235.351 49.9191C235.679 49.9769 235.91 50.2468 235.91 50.5745L235.987 87.9747C235.987 88.1096 235.949 88.2446 235.871 88.3603C235.737 88.553 222.396 107.619 211.561 123.736C211.426 123.929 211.214 124.045 210.983 124.045Z" fill="#051529"/>
<path d="M237.394 158.437C237.028 158.437 236.72 158.148 236.72 157.782C236.604 151.651 236.855 126.397 239.11 115.08C241.231 104.439 242.388 98.308 241.79 95.9368C241.308 94.0475 236.643 89.9412 234.888 88.5146C234.599 88.2832 234.561 87.8591 234.792 87.5699C235.023 87.2807 235.447 87.2422 235.736 87.4735C236.411 88.0326 242.407 92.9486 243.101 95.609C243.776 98.2694 242.657 104.207 240.44 115.35C238.204 126.551 237.954 151.651 238.069 157.763C238.088 158.11 237.78 158.418 237.394 158.437C237.394 158.437 237.414 158.437 237.394 158.437Z" fill="#051529"/>
<path d="M252.798 150.148C252.779 150.148 252.779 150.148 252.76 150.148C252.394 150.128 252.104 149.801 252.124 149.434C252.143 149.261 253.126 132.199 253.493 122.83C253.647 119.013 254.418 99.7538 255.382 95.5318C256.211 91.9075 265.985 85.3914 267.103 84.6588C267.412 84.4467 267.836 84.5431 268.028 84.8516C268.24 85.16 268.144 85.5841 267.836 85.7769C264.944 87.6855 257.29 93.1991 256.693 95.821C255.96 99.0212 255.228 112.4 254.842 122.869C254.495 132.238 253.492 149.319 253.473 149.492C253.454 149.878 253.165 150.148 252.798 150.148Z" fill="#051529"/>
<path d="M264.134 105.017C264.038 105.017 263.96 105.017 263.864 104.998C262.881 104.901 262.225 104.227 262.071 103.186C261.801 101.296 260.336 98.5394 258.794 97.055C258.524 96.8044 258.524 96.361 258.774 96.1103C259.025 95.8597 259.469 95.8405 259.719 96.0911C261.493 97.8261 263.074 100.795 263.401 103.012C263.478 103.533 263.748 103.629 263.999 103.667C265.387 103.802 269.069 101.45 271.325 95.3199C271.46 94.9729 271.845 94.7994 272.192 94.9151C272.539 95.05 272.713 95.4356 272.597 95.7826C270.457 101.605 266.621 105.017 264.134 105.017Z" fill="#051529"/>
<path d="M249.463 101.566C247.092 101.566 244.277 101.296 242.195 100.197C241.867 100.024 241.732 99.6189 241.906 99.2912C242.079 98.9635 242.484 98.8285 242.812 99.002C246.61 100.988 253.666 99.9274 253.724 99.9081C254.09 99.8503 254.437 100.101 254.495 100.467C254.552 100.833 254.302 101.18 253.936 101.238C253.781 101.277 251.873 101.566 249.463 101.566Z" fill="#051529"/>
<path d="M233.809 104.921C233.77 104.921 233.732 104.921 233.712 104.921C231.688 104.824 229.625 101.855 229.105 100.795C228.951 100.467 229.086 100.062 229.413 99.8889C229.741 99.7346 230.146 99.8696 230.319 100.197C230.879 101.354 232.614 103.513 233.77 103.571C233.963 103.571 234.233 103.532 234.522 103.07C234.888 102.472 235.255 101.759 235.66 101.007C237.067 98.3466 238.513 95.5898 240.421 95.4163C240.788 95.3777 241.115 95.6476 241.154 96.0332C241.192 96.3995 240.923 96.7272 240.537 96.7658C239.361 96.8814 237.915 99.619 236.855 101.643C236.45 102.414 236.045 103.147 235.679 103.783C235.101 104.708 234.368 104.921 233.809 104.921Z" fill="#051529"/>
<path d="M246.668 57.7462C245.916 57.7462 245.164 57.6112 244.432 57.3221C244.085 57.1871 243.911 56.8016 244.046 56.4545C244.181 56.1075 244.567 55.934 244.914 56.069C246.61 56.7244 247.998 56.3003 248.866 55.8376C250.273 55.0858 251.372 53.6592 251.738 52.0976C251.815 51.7313 252.182 51.5 252.548 51.5964C252.914 51.6735 253.145 52.0398 253.049 52.4061C252.586 54.3725 251.256 56.1075 249.483 57.0329C248.615 57.4956 247.651 57.7462 246.668 57.7462Z" fill="#051529"/>
<path d="M269.493 51.0372C269.281 51.0372 269.069 50.9408 268.934 50.7287C268.722 50.4203 268.819 49.9961 269.127 49.7841C270.727 48.7238 274.371 47.9526 276.684 48.5503C277.05 48.6466 277.262 49.0129 277.166 49.3792C277.07 49.7455 276.703 49.9576 276.337 49.8612C274.294 49.3407 271.055 50.1311 269.879 50.9215C269.744 50.9986 269.628 51.0372 269.493 51.0372Z" fill="#051529"/>
<path d="M221.432 140.836C221.085 140.836 220.796 140.586 220.758 140.239C220.526 138.234 219.601 132.662 218.117 130.966C217.557 130.31 217.018 130.445 215.938 130.908C215.34 131.158 214.801 131.409 214.222 131.255C213.895 131.158 213.162 130.966 211.427 126.609C210.482 124.218 209.653 121.596 209.326 119.9C208.67 116.642 203.523 109.239 200.033 109.239C199.667 109.239 199.359 108.93 199.359 108.564C199.359 108.198 199.667 107.889 200.033 107.889C202.675 107.889 205.393 110.762 206.762 112.458C208.728 114.887 210.29 117.779 210.656 119.63C211.35 123.1 213.798 129.231 214.627 129.944C214.781 129.944 215.167 129.77 215.418 129.674C216.324 129.288 217.866 128.633 219.138 130.079C221.201 132.431 222.069 139.776 222.088 140.084C222.126 140.451 221.857 140.798 221.49 140.836C221.471 140.836 221.452 140.836 221.432 140.836Z" fill="#051529"/>
<path d="M194.905 100.911C194.654 100.911 194.404 100.756 194.288 100.506C190.529 92.1967 182.528 75.8293 179.174 73.4002C177.747 72.3784 173.082 69.9301 160.474 69.4095C160.108 69.3903 159.818 69.0818 159.818 68.7155C159.838 68.3492 160.146 68.0601 160.512 68.0601C173.005 68.5806 178.056 70.9325 179.945 72.3013C184.437 75.5401 195.059 98.9634 195.503 99.9466C195.657 100.294 195.503 100.679 195.175 100.833C195.098 100.891 195.002 100.911 194.905 100.911Z" fill="#051529"/>
<path d="M156.907 96.0141C153.688 96.0141 152.28 94.6839 151.702 93.8549C150.815 92.544 150.796 90.7511 151.625 89.1124C151.798 88.7847 152.203 88.6497 152.531 88.8232C152.859 88.9968 152.994 89.4016 152.82 89.7293C152.203 90.9439 152.203 92.2162 152.801 93.1223C153.611 94.3176 155.423 94.8574 157.89 94.6453C161.226 94.3562 163.79 93.1609 164.406 91.5993C164.792 90.6354 164.272 89.7679 163.77 89.2281C163.52 88.9582 163.539 88.5341 163.809 88.2835C164.079 88.0328 164.503 88.0521 164.754 88.322C165.833 89.498 166.142 90.8282 165.66 92.1006C164.85 94.2019 161.977 95.6671 158.006 95.9948C157.64 95.9948 157.273 96.0141 156.907 96.0141Z" fill="#051529"/>
<path d="M160.628 101.123C156.695 101.123 155.114 99.6382 154.517 98.6936C153.784 97.5561 153.726 96.1103 154.382 94.8186C154.555 94.4909 154.96 94.3559 155.288 94.5294C155.616 94.7029 155.751 95.1078 155.577 95.4355C155.134 96.2838 155.172 97.2091 155.635 97.961C156.117 98.7129 157.505 99.9467 161.38 99.7539C164.522 99.5997 165.775 98.1538 165.891 96.9585C166.007 95.7247 165.004 94.6258 163.404 94.221C163.038 94.1246 162.826 93.7583 162.903 93.4113C162.999 93.045 163.366 92.8329 163.713 92.91C165.987 93.4691 167.395 95.1463 167.221 97.0935C167.048 98.8285 165.448 100.911 161.438 101.103C161.168 101.123 160.898 101.123 160.628 101.123Z" fill="#051529"/>
<path d="M200.052 109.239C199.725 109.239 199.455 109.008 199.397 108.68C198.587 104.227 196.698 101.123 195.965 100.525C191.261 104.13 176.147 106.367 174.933 106.367C173.641 106.367 166.315 102.935 163.925 100.178C163.674 99.8891 163.712 99.465 163.982 99.2336C164.272 98.983 164.696 99.0216 164.927 99.2915C167.202 101.913 174.065 104.979 174.913 105.017C176.012 105.017 191.3 102.665 195.31 99.3107C195.58 99.0987 195.927 99.0408 196.274 99.1565C197.662 99.6577 199.86 103.725 200.708 108.429C200.766 108.796 200.534 109.143 200.168 109.22C200.129 109.239 200.091 109.239 200.052 109.239Z" fill="#051529"/>
<path d="M179.482 149.993C179.155 149.993 178.885 149.762 178.827 149.434C178.827 149.396 178.036 144.962 176.668 134.262C175.55 125.567 176.456 122.329 177.015 120.382C177.15 119.919 177.246 119.572 177.265 119.263C177.439 117.663 177.458 115.138 175.781 111.803C173.969 108.198 174.258 105.711 174.277 105.595C174.316 105.229 174.663 104.959 175.029 105.017C175.395 105.055 175.665 105.402 175.607 105.768C175.607 105.807 175.376 108.005 176.976 111.186C178.827 114.849 178.788 117.625 178.615 119.398C178.576 119.822 178.461 120.247 178.306 120.748C177.786 122.579 176.938 125.664 177.998 134.089C179.367 144.749 180.157 149.145 180.157 149.203C180.215 149.569 179.984 149.916 179.617 149.993C179.559 149.993 179.521 149.993 179.482 149.993Z" fill="#051529"/>
<path d="M177.921 120.016C177.574 120.016 177.265 119.746 177.246 119.399C177.227 119.032 177.497 118.705 177.863 118.685C178.036 118.666 194.539 117.374 199.455 108.256C199.628 107.928 200.033 107.812 200.361 107.986C200.689 108.159 200.804 108.564 200.631 108.892C195.387 118.666 178.673 119.977 177.959 120.035C177.94 120.016 177.94 120.016 177.921 120.016Z" fill="#051529"/>
<path d="M61.6719 81.9599C61.5369 81.9599 61.402 81.9213 61.2863 81.8442C60.9778 81.6321 60.9007 81.208 61.1321 80.8995C62.7707 78.5861 64.0624 76.6968 65.1034 75.1738C68.4579 70.2771 69.4796 68.7927 71.446 68.4264C72.5449 68.2143 74.2414 68.2336 75.8801 68.2529C77.2296 68.2722 79.2731 68.2914 79.6586 68.0794C79.9671 67.9059 81.6636 66.4985 83.3023 65.1491C89.7798 59.8089 91.6498 58.4209 92.3631 58.363C93.1728 58.3052 94.3488 58.8064 95.3899 59.2306C95.7369 59.3848 96.1803 59.5583 96.4309 59.6354C97.6454 58.8064 104.123 52.8494 108.094 49.148C108.364 48.8973 108.788 48.9166 109.039 49.1865C109.29 49.4564 109.27 49.8805 109 50.1311C108.981 50.1504 106.109 52.8494 103.198 55.4906C97.1442 61.0235 96.8743 61.0235 96.508 61.0235C96.161 61.0235 95.6983 60.8307 94.8501 60.4837C94.1175 60.1752 92.9993 59.7125 92.4981 59.7125C92.4981 59.7125 92.4981 59.7125 92.4788 59.7125C91.592 60.0403 86.7531 64.0502 84.1312 66.2094C81.8757 68.0601 80.6997 69.0433 80.3141 69.2554C79.6587 69.6409 78.2513 69.6409 75.8415 69.6217C74.2607 69.6024 72.6413 69.5831 71.6774 69.7566C70.3279 70.0072 69.4989 71.1447 66.2023 75.945C65.1613 77.468 63.8503 79.3573 62.2117 81.6707C62.096 81.8635 61.8839 81.9599 61.6719 81.9599Z" fill="white"/>
<path d="M105.819 47.856C105.53 48.2416 108.942 53.5624 109.656 53.4082C110.369 53.254 112.509 47.7789 112.162 47.374C111.796 46.9885 106.494 46.9499 105.819 47.856Z" fill="white"/>
<path d="M109.656 53.6974C109.135 53.6974 108.229 52.6949 106.938 50.7093C105.26 48.126 105.492 47.8175 105.588 47.7018C106.012 47.1235 107.612 46.9307 108.885 46.8729C108.923 46.8729 111.95 46.7379 112.374 47.2199C112.509 47.3741 112.605 47.644 112.162 49.0128C112.143 49.0513 110.658 53.5046 109.714 53.7167C109.694 53.6974 109.675 53.6974 109.656 53.6974ZM106.089 47.991C106.244 48.7621 108.923 52.8684 109.617 53.1191C110.138 52.7721 111.95 48.4151 111.911 47.5669C111.179 47.2777 106.803 47.3355 106.089 47.991Z" fill="white"/>
<path d="M42.2006 89.1508C41.8729 89.1508 41.5837 88.9001 41.5259 88.5724C40.215 79.5308 37.169 74.3064 34.8363 71.5303C32.3301 68.5228 30.0938 67.636 30.0745 67.636C29.8239 67.5396 29.6504 67.289 29.6504 67.0191C29.6504 66.7492 29.8046 66.4986 30.0745 66.3829C34.4122 64.59 42.0464 62.1031 49.5072 60.021C55.31 58.4016 62.5201 56.6088 64.0046 57.1871C65.624 57.804 73.7209 61.3512 74.2607 69.641C74.7812 77.5837 76.1885 81.4972 77.3645 84.0034C77.5188 84.3504 77.3838 84.736 77.0368 84.8902C76.6898 85.0444 76.3042 84.9095 76.15 84.5625C74.9354 81.9406 73.4703 77.8922 72.9305 69.7181C72.4485 62.2573 65.007 59.0186 63.5226 58.4402C61.7683 57.8233 42.432 63.0092 31.9252 67.0962C32.9084 67.7131 34.3158 68.7927 35.8195 70.5856C38.2871 73.4967 41.5259 78.9717 42.8754 88.3989C42.9332 88.7652 42.6633 89.1122 42.297 89.17C42.2778 89.1508 42.2392 89.1508 42.2006 89.1508Z" fill="white"/>
<path d="M43.2226 69.0628C42.9527 69.0628 42.7021 68.9086 42.6057 68.6387C42.4707 68.2916 42.6249 67.9061 42.9719 67.7519C48.8904 65.342 62.5396 61.3707 63.5613 61.4864C63.9276 61.5249 64.1975 61.8719 64.159 62.2382C64.1204 62.5852 63.8119 62.8551 63.4649 62.8358C62.4239 62.913 49.7965 66.4409 43.4925 69.0049C43.3961 69.0435 43.2997 69.0628 43.2226 69.0628ZM63.3878 62.8358C63.3878 62.8358 63.4071 62.8358 63.4264 62.8358C63.4264 62.8358 63.4071 62.8358 63.3878 62.8358Z" fill="white"/>
<path d="M111.507 118.493C110.871 118.493 109.83 118.281 108.056 117.818C106.321 117.355 104.605 116.796 104.586 116.796C104.239 116.681 104.046 116.295 104.142 115.948C104.258 115.601 104.644 115.408 104.991 115.505C107.497 116.314 110.485 117.124 111.41 117.143C112.914 113.345 118.274 90.6354 118.601 87.5894C117.31 86.7605 108.866 85.4495 106.976 85.3532C106.649 85.8929 106.244 87.9172 106.032 88.9389C105.955 89.3631 105.878 89.7486 105.8 90.0764C105.723 90.4427 105.357 90.674 104.991 90.5969C104.624 90.5198 104.393 90.1535 104.47 89.7872C104.547 89.4787 104.624 89.0932 104.702 88.669C105.338 85.4303 105.743 84.0037 106.784 84.0037C107.535 84.0037 118.254 85.2953 119.662 86.7412C119.912 86.9918 119.97 87.2617 119.951 87.4352C119.893 89.6908 113.974 114.888 112.509 118.011C112.374 118.3 112.124 118.493 111.507 118.493Z" fill="white"/>
<path d="M116.461 113.538C116.345 113.538 116.23 113.519 116.133 113.461C115.805 113.287 115.69 112.863 115.863 112.536C119.892 105.268 126.331 93.4885 126.968 91.8113C126.505 91.2715 123.845 89.9606 119.044 89.0159C118.678 88.9388 118.447 88.5918 118.524 88.2255C118.601 87.8592 118.948 87.6279 119.314 87.705C120.239 87.8978 128.356 89.575 128.356 91.792C128.356 92.1005 128.356 92.5246 122.669 102.993C119.892 108.102 117.078 113.153 117.059 113.21C116.924 113.403 116.692 113.538 116.461 113.538Z" fill="white"/>
<path d="M120.047 112.863C119.681 112.863 119.372 112.555 119.372 112.189C119.372 111.861 119.372 111.861 121.011 110.261C121.898 109.393 123.131 108.217 124.462 106.926C127.758 103.764 132.578 99.1178 133.715 97.8839C133.002 97.1706 130.476 95.4356 126.91 93.3728C126.582 93.18 126.486 92.7751 126.659 92.4474C126.852 92.1197 127.257 92.0233 127.585 92.1968C129.435 93.2764 131.248 94.3945 132.559 95.3006C135.045 96.9971 135.373 97.5562 135.142 98.1731C135.007 98.5394 134.178 99.4262 125.387 107.889C123.17 110.029 120.876 112.227 120.567 112.555C120.471 112.748 120.278 112.863 120.047 112.863Z" fill="white"/>
<path d="M84.5937 169.6C81.1044 169.6 76.998 168.906 71.6579 167.19C61.5175 163.932 32.9275 152.635 30.9226 149.415C29.0718 146.466 28.0886 135.014 28.0501 134.532C28.0115 134.166 28.3007 133.838 28.667 133.8C29.0333 133.761 29.361 134.05 29.3996 134.417C29.6695 137.636 30.672 146.485 32.06 148.702C33.5637 151.092 60.2836 162.12 72.0628 165.898C82.4346 169.233 87.9675 168.597 93.5197 166.496C98.8598 164.491 127.006 147.931 129.262 145.887C129.358 144.075 129.146 132.084 128.876 130.792C128.221 129.925 122.013 127.457 114.822 124.604C112.22 123.563 109.251 122.387 106.108 121.114C105.761 120.979 105.588 120.575 105.742 120.228C105.877 119.881 106.282 119.707 106.629 119.861C109.771 121.134 112.74 122.31 115.343 123.351C127.103 128.035 129.879 129.231 130.187 130.407C130.554 131.775 130.727 145.309 130.592 146.234C130.534 146.62 130.496 146.87 125.368 150.09C122.418 151.921 118.466 154.312 114.244 156.78C106.436 161.349 97.0091 166.631 94.0209 167.768C91.0713 168.867 88.141 169.6 84.5937 169.6Z" fill="#051529"/>
<path d="M26.4116 134.841C26.3923 134.841 26.373 134.841 26.373 134.841C24.0982 134.686 16.541 133.8 14.6132 129.134C13.3601 126.069 2.19786 97.2669 0.790535 92.6208C0.0965107 90.2881 -0.366173 88.7266 0.385686 87.3963C1.13755 86.0469 3.06539 85.1601 6.362 83.9841C13.0323 81.5935 36.9569 73.3809 37.1882 73.2845C37.5352 73.1689 37.9208 73.3424 38.0365 73.7087C38.1522 74.0557 37.9786 74.4412 37.6124 74.5569C37.381 74.634 13.4565 82.8659 6.80541 85.2372C3.45096 86.4324 2.04363 87.2036 1.56167 88.0325C1.09899 88.8615 1.46528 90.1146 2.10147 92.1967C3.48951 96.8235 14.6132 125.529 15.8663 128.575C17.1579 131.698 22.1896 133.144 26.4694 133.453C26.8357 133.472 27.1249 133.8 27.0863 134.166C27.067 134.571 26.7779 134.841 26.4116 134.841Z" fill="#051529"/>
<path d="M13.2444 87.84H1.4267C1.06041 87.84 0.751953 87.5315 0.751953 87.1652C0.751953 86.7989 1.06041 86.4905 1.4267 86.4905H13.2444C13.6107 86.4905 13.9191 86.7989 13.9191 87.1652C13.9191 87.5508 13.6107 87.84 13.2444 87.84Z" fill="#051529"/>
<path d="M29.8237 132.335C29.5345 132.335 29.2839 132.161 29.1875 131.872C29.0911 131.602 20.2037 104.516 17.5819 97.7684C15.2492 91.7728 14.5552 87.3002 18.7193 84.9097C22.0352 83.0011 38.7689 78.0658 39.4822 77.8538C39.8485 77.7574 40.2148 77.9502 40.3112 78.3165C40.4075 78.6827 40.2148 79.049 39.8485 79.1454C39.675 79.2033 22.5557 84.2349 19.3748 86.0664C16.9071 87.493 15.9625 89.8642 18.835 97.2672C21.4761 104.053 30.3635 131.178 30.4599 131.448C30.5755 131.795 30.3828 132.18 30.0358 132.296C29.9586 132.335 29.8815 132.335 29.8237 132.335Z" fill="#051529"/>
<path d="M82.5117 153.194C82.396 153.194 82.2996 153.174 82.2032 153.117C81.5863 152.808 70.1927 148.49 59.1848 144.306C47.637 139.93 35.6843 135.4 32.3106 134.031C31.9636 133.896 31.7901 133.491 31.9443 133.144C32.0793 132.797 32.4841 132.624 32.8311 132.778C36.1856 134.127 48.1382 138.658 59.686 143.034C73.7014 148.355 82.2996 151.613 82.8587 151.902C83.1864 152.076 83.3214 152.48 83.1479 152.808C82.9744 153.059 82.743 153.194 82.5117 153.194Z" fill="#051529"/>
<path d="M85.3069 152.847C85.037 152.847 84.8057 152.693 84.69 152.442C84.5358 152.095 84.7093 151.709 85.037 151.555C92.5749 148.316 109.231 140.046 115.266 136.692C121.242 133.356 129.165 130.021 129.242 129.983C129.589 129.848 129.975 130.002 130.129 130.349C130.264 130.696 130.11 131.081 129.763 131.236C129.686 131.274 121.82 134.571 115.921 137.887C109.848 141.28 93.1339 149.57 85.5575 152.828C85.4804 152.828 85.4033 152.847 85.3069 152.847Z" fill="#051529"/>
<path d="M84.7867 169.6C84.4204 169.6 84.1312 169.311 84.1119 168.944C84.1119 168.867 83.842 160.867 84.3047 155.874C84.3433 155.507 84.671 155.237 85.0373 155.257C85.4036 155.295 85.6735 155.623 85.6542 155.989C85.1915 160.886 85.4614 168.809 85.4614 168.886C85.4807 169.253 85.1915 169.58 84.806 169.58C84.806 169.6 84.7867 169.6 84.7867 169.6Z" fill="#051529"/>
<path d="M110.08 140.875C110.003 140.875 109.907 140.856 109.829 140.817C109.695 140.759 95.8141 135.091 88.0063 132.335C87.6593 132.219 87.4665 131.833 87.6014 131.467C87.7171 131.12 88.1027 130.927 88.469 131.062C96.296 133.819 110.215 139.506 110.35 139.564C110.697 139.699 110.851 140.104 110.716 140.451C110.581 140.721 110.331 140.875 110.08 140.875Z" fill="white"/>
<path d="M54.3266 118.069C51.1071 118.069 48.6202 116.738 46.9044 114.117C45.1501 111.437 44.6488 107.967 44.5524 105.538C44.5331 105.171 44.8223 104.844 45.1886 104.824C45.5549 104.805 45.8826 105.094 45.9019 105.461C46.0369 108.699 46.7887 111.437 48.0418 113.365C49.507 115.62 51.6854 116.738 54.4808 116.7C54.4808 116.7 54.4808 116.7 54.5001 116.7C54.8664 116.7 55.1748 116.989 55.1748 117.355C55.1748 117.722 54.8857 118.03 54.5194 118.049C54.4423 118.069 54.3844 118.069 54.3266 118.069Z" fill="white"/>
<path d="M61.672 121.943C61.4407 121.943 61.2286 121.828 61.0937 121.616C61.0937 121.596 60.3226 120.363 59.3779 119.09C59.1466 118.801 59.2237 118.377 59.5129 118.145C59.802 117.914 60.2262 117.991 60.4575 118.28C61.46 119.611 62.2118 120.864 62.2504 120.922C62.4432 121.249 62.3468 121.654 62.019 121.847C61.9227 121.924 61.7877 121.943 61.672 121.943Z" fill="white"/>
<path d="M65.1421 119.63C64.8337 119.63 64.5445 119.399 64.4866 119.09C64.2553 117.933 64.1782 116.584 64.2167 115.1C64.236 114.733 64.5445 114.444 64.9108 114.444C65.2771 114.463 65.5855 114.772 65.5662 115.138C65.5277 116.526 65.6241 117.76 65.8169 118.84C65.894 119.206 65.6433 119.553 65.2771 119.63C65.2192 119.63 65.1807 119.63 65.1421 119.63Z" fill="white"/>
<path d="M68.689 120.786C68.5733 120.786 68.4383 120.748 68.342 120.69C68.0335 120.497 67.9178 120.073 68.1106 119.765C68.8625 118.55 70.2312 116.911 70.2891 116.834C70.5204 116.545 70.9638 116.507 71.2337 116.757C71.5229 116.989 71.5614 117.432 71.3108 117.702C71.2915 117.721 69.9421 119.341 69.248 120.459C69.1324 120.671 68.901 120.786 68.689 120.786Z" fill="white"/>
<path d="M36.2243 135.535C35.8773 135.535 35.5881 135.284 35.5496 134.918C35.511 134.552 35.7809 134.224 36.1472 134.185C40.7162 133.723 54.0954 128.73 54.2304 128.672C54.5774 128.537 54.963 128.71 55.0979 129.077C55.2329 129.424 55.0593 129.809 54.6931 129.944C54.134 130.156 41.0054 135.053 36.2629 135.535C36.2629 135.535 36.2436 135.535 36.2243 135.535Z" fill="white"/>
<path d="M57.3925 104.477C51.6089 106.463 44.3024 108.468 41.4492 109.201C38.596 109.933 37.3236 111.071 35.7428 106.54C34.8945 104.13 34.0077 101.74 33.2559 99.6964C32.7932 98.4433 32.3883 97.3252 32.0799 96.4191C31.9449 96.0335 31.8292 95.6865 31.7136 95.378C30.9617 93.1417 31.8678 91.1946 33.6029 90.5199C42.4131 87.1461 52.4765 84.5436 55.0598 83.8688C57.0647 83.3483 58.1829 83.3868 59.5131 86.5292C59.8987 87.4353 60.3035 88.592 60.7662 90.0765C60.7855 90.115 60.7855 90.1536 60.8047 90.1729C62.8483 96.8818 63.5808 99.0795 63.8315 100.583C64.1014 102.087 63.1567 102.492 57.3925 104.477Z" fill="white"/>
<path d="M38.5185 110.55C37.1883 110.55 36.128 109.721 35.087 106.771C34.2965 104.535 33.4868 102.318 32.7735 100.371L32.4458 99.4647C32.041 98.3851 31.7132 97.4405 31.4241 96.6308C31.2891 96.2452 31.1734 95.8982 31.0578 95.5898C30.2288 93.1221 31.1927 90.7316 33.3519 89.9026C39.1547 87.6663 46.8082 85.3144 54.8859 83.2323C57.2957 82.6154 58.6838 82.9046 60.1296 86.2783C60.5152 87.1844 60.9393 88.3796 61.402 89.9026C61.402 89.9219 61.4213 89.9412 61.4213 89.9797L61.4406 90.0183C61.9033 91.5413 62.3081 92.833 62.6358 93.9318C63.7926 97.7297 64.2745 99.3105 64.4866 100.506C64.8721 102.646 63.3299 103.166 57.6042 105.152C51.917 107.118 44.6491 109.104 41.6031 109.894C41.2368 109.991 40.909 110.087 40.5813 110.184C39.8102 110.376 39.1354 110.55 38.5185 110.55ZM56.5439 84.2926C56.1583 84.2926 55.7342 84.4083 55.2136 84.5432C47.1938 86.606 39.5981 88.958 33.8339 91.1557C32.3494 91.7148 31.7325 93.3728 32.3301 95.1657C32.4265 95.4741 32.5422 95.8018 32.6772 96.1874C32.9471 96.9778 33.2941 97.9225 33.6989 99.0021L34.0266 99.8889C34.7399 101.836 35.5496 104.072 36.3593 106.309C36.9377 107.967 37.4775 108.853 38.0558 109.104C38.5571 109.335 39.2511 109.123 40.1957 108.834C40.5235 108.738 40.8898 108.622 41.2753 108.526C44.3021 107.754 51.5122 105.769 57.1608 103.822C59.9176 102.877 61.6526 102.26 62.5395 101.74C63.272 101.315 63.2335 101.084 63.1756 100.699C62.9829 99.5804 62.5009 98.0381 61.3635 94.2981C61.0165 93.1993 60.6309 91.9076 60.1682 90.3846L60.1489 90.2882C59.6862 88.7845 59.3007 87.6471 58.9151 86.7988C58.0476 84.8324 57.3921 84.2926 56.5439 84.2926Z" fill="#051529"/>
<path d="M60.7657 90.0953C56.0039 91.5798 41.7571 96.1295 33.236 99.696C32.7734 98.4429 32.3685 97.3247 32.0601 96.4187C37.8629 93.9125 50.6637 88.5145 59.5126 86.5481C59.8981 87.4542 60.303 88.6109 60.7657 90.0953Z" fill="#051529"/>
<path d="M33.2361 99.9852C33.1975 99.9852 33.1589 99.9852 33.1204 99.9659C33.0433 99.9274 32.9854 99.8695 32.9662 99.7924L32.7926 99.3297C32.3878 98.2501 32.0601 97.3055 31.7709 96.5151C31.7131 96.3801 31.7902 96.2066 31.9251 96.1488C43.9163 90.9822 53.17 87.647 59.4355 86.2589C59.5704 86.2204 59.7054 86.2975 59.7632 86.4324C60.1488 87.3193 60.5536 88.4952 61.0163 90.0182C61.0548 90.1725 60.9777 90.3267 60.8235 90.3845C56.5437 91.734 41.9113 96.3801 33.3324 99.9659C33.3132 99.9659 33.2746 99.9852 33.2361 99.9852ZM32.4264 96.5729C32.6963 97.3055 33.0047 98.1537 33.3517 99.1369L33.4096 99.3105C41.8728 95.8018 55.8497 91.3292 60.3994 89.9026C60.0138 88.6687 59.6668 87.6663 59.3391 86.8759C53.1507 88.2832 44.1091 91.5412 32.4264 96.5729Z" fill="#051529"/>
<path d="M54.0566 99.3873C53.5361 99.3873 53.1891 99.2138 52.9771 98.886C52.9578 98.8668 51.3191 96.1678 52.0902 95.2424C52.6686 94.5484 55.9074 93.3531 57.1412 93.2567C57.3918 93.2375 57.7774 93.2375 58.0473 93.4881C58.722 94.0857 59.1076 96.5726 59.0498 97.1703C59.0112 97.4787 58.8955 97.7101 58.6642 97.8257C58.4907 97.9221 57.3725 98.4426 56.2544 98.8475C55.3097 99.2138 54.5964 99.3873 54.0566 99.3873ZM54.0374 98.0378C54.6736 98.0956 56.7749 97.2859 57.7003 96.8425C57.6617 96.2642 57.4111 95.0882 57.199 94.6255C56.3893 94.6833 53.9024 95.6087 53.2277 96.0521C53.2855 96.457 53.6518 97.4016 54.0374 98.0378Z" fill="#051529"/>
<path d="M59.9176 132.084C59.532 132.084 59.2236 131.833 59.1272 131.429C58.9151 130.6 59.6477 128.498 59.879 127.881C60.3417 126.628 61.055 125.047 61.7876 124.643C63.0985 123.91 69.7882 124.392 70.2316 124.488C70.5207 124.546 70.9642 124.623 71.9088 127.072C72.2944 128.055 72.7763 129.52 72.8534 130.368C72.9113 130.985 72.7378 131.371 72.3329 131.544C71.0798 132.045 66.5879 132.084 60.361 132.103L59.9176 132.084ZM65.2963 125.606C63.9468 125.606 62.7515 125.664 62.4431 125.838C61.8454 126.243 60.6309 129.481 60.4574 130.735C64.4866 130.735 69.846 130.735 71.5039 130.368C71.369 129.327 70.328 126.455 69.8267 125.799C69.1327 125.703 67.0699 125.606 65.2963 125.606Z" fill="white"/>
<path d="M55.1558 138.407C53.2472 138.407 52.6111 138.349 52.4568 137.694C52.264 136.788 54.5003 131.929 54.9052 131.332C55.1173 131.004 55.5028 130.888 56.6402 130.811C57.7391 130.734 59.5127 130.715 61.1321 130.753C64.1203 130.831 64.3131 131.043 64.5058 131.255C64.795 131.563 65.7397 133.298 66.1445 134.089C67.5904 136.826 67.4747 137.135 67.3591 137.424C67.2627 137.674 67.0506 137.867 66.7807 137.886C66.4915 137.925 63.0407 138.137 59.8212 138.272C57.8933 138.349 56.3511 138.388 55.2329 138.388C55.2136 138.407 55.1944 138.407 55.1558 138.407ZM53.9027 137.038C55.9848 137.173 63.407 136.788 65.8746 136.614C65.3541 135.419 64.0046 132.932 63.5805 132.276C62.4623 132.045 57.0451 132.026 55.9269 132.257C55.4257 133.125 54.269 135.843 53.9027 137.038Z" fill="white"/>
<path d="M68.1689 137.906C66.7615 137.906 66.2603 137.81 66.1061 137.27C66.0482 137.096 65.9326 136.692 66.8965 134.108C67.8604 131.544 68.246 131.255 68.3809 131.159C68.9207 130.754 71.7354 130.619 72.5836 130.6C76.3815 130.484 77.0369 131.004 77.249 131.159C78.2322 131.949 80.0829 135.766 79.7938 136.749C79.6974 137.077 79.4468 137.289 79.1383 137.328C78.8684 137.366 75.8417 137.578 72.7957 137.733C71.0799 137.829 69.6919 137.868 68.6894 137.887C68.4773 137.906 68.3231 137.906 68.1689 137.906ZM67.4941 136.557C69.4605 136.653 76.2658 136.229 78.3864 136.075C78.078 135.034 76.9984 132.74 76.3815 132.258C75.6489 131.756 70.2895 131.968 69.1713 132.296C68.7858 132.836 67.8026 135.4 67.4941 136.557Z" fill="white"/>
<path d="M126.524 124.276C126.235 124.276 126.004 124.257 125.869 124.238C125.56 124.161 125.329 124.006 125.213 123.775C124.944 123.216 124.23 120.96 124.134 120.71C124.018 120.363 124.211 119.977 124.577 119.861C124.924 119.746 125.31 119.939 125.426 120.305C125.695 121.115 126.1 122.368 126.332 122.965C127.681 123.062 133.272 122.271 134.602 121.866C134.641 120.44 133.445 114.56 133.021 113.365C132.559 113.268 130.862 113.191 124.519 114.02C124.153 114.059 123.806 113.808 123.768 113.442C123.71 113.075 123.98 112.728 124.346 112.69C126.775 112.362 128.684 112.169 130.149 112.054C133.137 111.822 133.812 112.034 134.12 112.536C134.506 113.172 135.335 117.509 135.335 117.548C136.241 122.31 135.913 122.599 135.605 122.869C134.93 123.428 128.78 124.276 126.524 124.276Z" fill="white"/>
<path d="M124.886 117.201C124.578 117.201 124.308 116.989 124.231 116.681C124.154 116.314 124.385 115.948 124.751 115.871C127.643 115.215 133.947 114.811 134.217 114.791C134.583 114.772 134.911 115.042 134.93 115.427C134.949 115.794 134.68 116.121 134.294 116.141C134.236 116.141 127.836 116.565 125.04 117.201C124.982 117.201 124.944 117.201 124.886 117.201Z" fill="white"/>
<path d="M125.348 119.9C125.021 119.9 124.731 119.668 124.674 119.341C124.616 118.974 124.866 118.627 125.233 118.57C128.067 118.107 134.506 117.721 134.775 117.702C135.142 117.683 135.47 117.972 135.489 118.338C135.508 118.705 135.219 119.032 134.853 119.052C134.795 119.052 128.202 119.456 125.425 119.9C125.425 119.9 125.387 119.9 125.348 119.9Z" fill="white"/>
<path d="M103.757 88.6689C103.41 88.6689 103.12 88.399 103.082 88.052C102.812 84.8132 102.388 79.7044 102.214 78.3935C101.482 78.2585 99.5347 78.2971 98.86 78.4513C98.7636 79.1646 98.9371 81.4009 99.0913 83.0781C99.1684 83.965 99.2455 84.8903 99.3034 85.7964C99.3226 86.1627 99.0527 86.4904 98.6672 86.5097C98.3009 86.529 97.9732 86.2591 97.9539 85.8735C97.896 84.9867 97.8189 84.0806 97.7418 83.1938C97.3755 78.914 97.3562 77.873 97.9346 77.4103C98.6672 76.8319 101.983 76.909 102.793 77.1404C103.159 77.2561 103.39 77.4488 103.468 77.7187C103.602 78.1236 104.065 83.5023 104.431 87.9363C104.47 88.3026 104.181 88.6303 103.815 88.6689C103.795 88.6689 103.776 88.6689 103.757 88.6689Z" fill="white"/>
<path d="M111.68 93.6814C111.834 92.9681 89.7414 75.5211 86.9845 75.7717C84.7097 75.9838 66.106 94.626 65.1421 97.4792C64.8143 98.4432 69.5954 98.6745 70.1159 98.7131C70.1737 98.7131 70.4822 98.4432 70.9834 97.9805C72.0823 106.405 74.8777 129.25 75.6488 129.327C76.5549 129.385 107.439 127.592 108.538 126.84C109.425 126.243 107.786 104.477 107.111 96.0719C108.403 96.3611 111.545 94.3176 111.68 93.6814Z" fill="white"/>
<path d="M75.7066 129.983C75.6488 129.983 75.6103 129.983 75.591 129.983C74.9741 129.944 74.762 129.597 74.2222 126.532C73.933 124.893 73.5475 122.502 73.1233 119.437C72.3329 113.827 71.4461 106.964 70.8099 101.952C70.4244 98.8478 70.0966 96.3995 69.9617 95.4548C69.9038 95.0885 70.1545 94.7415 70.5207 94.6837C70.887 94.6259 71.2341 94.8765 71.2919 95.2428C71.4268 96.2067 71.7546 98.6743 72.1401 101.778C73.1619 109.798 75.244 126.108 76.0344 128.633C79.6202 128.556 105.126 126.975 108.017 126.281C108.499 123.756 107.15 104.651 106.167 92.833C106.128 92.4667 106.417 92.1389 106.783 92.1004C107.15 92.0618 107.478 92.351 107.516 92.7173C107.516 92.7944 108.21 101.142 108.769 109.47C109.907 126.686 109.405 127.033 108.904 127.38C108.615 127.573 108.037 127.978 92.0548 129.038C85.0953 129.52 76.8826 129.983 75.7066 129.983Z" fill="#051529"/>
<path d="M82.9553 129.616C82.6275 129.616 82.3383 129.385 82.2805 129.057C81.5865 124.681 80.9117 119.938 80.4683 116.353C79.5815 108.969 79.9285 108.738 80.3719 108.468C80.9696 108.082 83.6686 107.793 84.4782 107.716C88.1411 107.369 88.4882 107.716 88.681 107.928C88.9123 108.179 89.1244 108.391 90.2232 118.55C90.763 123.466 91.2257 128.382 91.245 128.421C91.2835 128.787 91.0136 129.115 90.6473 129.154C90.2811 129.192 89.9533 128.922 89.9148 128.556C89.2593 121.751 88.1026 110.858 87.6785 108.95C86.541 108.815 82.3962 109.258 81.278 109.567C81.1238 111.186 82.1263 119.572 83.6107 128.864C83.6686 129.231 83.4179 129.578 83.0516 129.636C83.0324 129.616 82.9938 129.616 82.9553 129.616Z" fill="#051529"/>
<path d="M96.9896 119.63C95.9678 119.63 95.2353 119.341 94.9846 118.589C94.7147 117.76 94.5027 115.948 94.4063 114.502C94.2135 111.398 94.5798 110.993 95.0425 110.8C95.9293 110.434 97.9921 110.415 98.609 110.415C101.443 110.434 101.674 110.82 101.828 111.09C102.195 111.745 102.523 117.047 102.021 118.184C101.848 118.57 101.597 118.705 101.404 118.743C101.327 118.762 101.212 118.801 101.057 118.839C99.5536 119.302 98.1078 119.63 96.9896 119.63ZM95.7558 111.996C95.5823 112.998 95.8329 116.931 96.2377 118.165C96.3149 118.242 96.9125 118.647 100.653 117.586C100.71 117.567 100.749 117.567 100.807 117.548C101.057 116.603 100.826 112.979 100.653 111.938C99.7657 111.726 96.8546 111.706 95.7558 111.996Z" fill="#051529"/>
<path d="M106.822 155.121C104.566 155.121 102.427 154.562 100.846 153.464C99.6697 152.635 99.4191 151.189 99.9203 150.379C100.248 149.858 101 149.473 102.041 150.071C104.393 151.401 109.54 151.401 112.413 149.415C113.878 148.393 114.495 147.044 114.244 145.386C114.109 144.48 114.476 144.017 114.726 143.824C115.112 143.516 115.652 143.458 116.172 143.67C116.847 143.94 117.618 144.692 117.83 146.041C118.254 148.856 116.924 151.381 114.071 153.136C111.931 154.466 109.309 155.121 106.822 155.121ZM101.058 151.131C101.038 151.169 101.019 151.266 101.038 151.439C101.096 151.786 101.308 152.133 101.636 152.365C104.509 154.389 109.772 154.215 113.377 151.979C114.745 151.131 116.962 149.261 116.5 146.234C116.423 145.694 116.172 145.232 115.844 145C115.729 144.923 115.632 144.885 115.594 144.885C115.574 144.923 115.574 145.02 115.594 145.174C115.941 147.352 115.112 149.203 113.203 150.533C109.829 152.866 104.2 152.827 101.405 151.247C101.212 151.15 101.096 151.131 101.058 151.131Z" fill="#051529"/>
<path d="M163.327 80.7838C162.479 74.7111 161.688 70.9711 160.879 68.7733C159.915 66.1515 158.893 65.7081 157.621 66.0551C155.018 66.7877 146.902 68.2914 132.848 73.0724C129.378 74.2484 131.865 80.0898 133.831 85.7962C135.778 91.5026 135.296 94.8378 141.484 93.0449C143.971 92.3316 148.078 91.0206 152.126 89.7097C153.514 89.247 154.902 88.8036 156.213 88.3795C155.365 86.2589 158.642 83.2129 163.327 80.7838Z" fill="white"/>
<path d="M138.689 94.1822C137.918 94.1822 137.263 94.028 136.723 93.7195C135.238 92.8906 134.737 91.1555 134.043 88.7457C133.812 87.9167 133.542 86.9721 133.195 85.9696C133.002 85.3913 132.79 84.8129 132.597 84.2538C131.132 80.109 129.763 76.1762 130.843 73.9399C131.209 73.188 131.807 72.6675 132.636 72.3976C143.586 68.6768 150.95 66.9418 154.922 65.9971C156.021 65.7465 156.888 65.5345 157.447 65.3802C159.78 64.7248 160.859 66.7104 161.515 68.5033C162.363 70.7975 163.154 74.6532 164.002 80.6488C164.04 80.9379 163.905 81.2078 163.655 81.3428C159.028 83.7526 156.233 86.5287 156.85 88.071C156.927 88.2445 156.907 88.4373 156.83 88.6108C156.753 88.7843 156.599 88.8999 156.425 88.9578C155.115 89.3819 153.746 89.8446 152.338 90.288C148.984 91.3868 144.415 92.852 141.677 93.6424C140.482 94.028 139.499 94.1822 138.689 94.1822ZM158.295 66.6141C158.103 66.6141 157.948 66.6526 157.794 66.7104C157.197 66.884 156.368 67.0767 155.211 67.3466C151.278 68.272 143.952 70.0071 133.06 73.7085C132.578 73.882 132.25 74.1519 132.038 74.5568C131.19 76.2918 132.539 80.1282 133.85 83.8297C134.043 84.4081 134.255 84.9864 134.448 85.5648C134.795 86.5865 135.084 87.5504 135.316 88.3987C135.913 90.5 136.357 92.0038 137.359 92.5628C138.13 92.987 139.383 92.9291 141.273 92.3893C143.991 91.5989 148.541 90.1338 151.895 89.0542C153.071 88.6686 154.266 88.283 155.384 87.9167C155.192 85.719 157.775 83.0007 162.575 80.4174C161.766 74.7881 161.014 71.1638 160.223 69.0239C159.491 66.9996 158.835 66.6141 158.295 66.6141Z" fill="#051529"/>
<path d="M160.59 79.4537C160.59 81.1695 159.202 82.5768 157.486 82.5768C157.12 82.5768 156.753 82.5189 156.426 82.384C156.657 82.0177 156.792 81.5743 156.792 81.0923C156.792 79.8007 155.77 78.7211 154.479 78.6633C154.826 77.333 156.04 76.3306 157.486 76.3306C159.182 76.3498 160.59 77.7379 160.59 79.4537Z" fill="#051529"/>
<path d="M154.344 84.1962C152.628 84.1962 151.24 82.8081 151.24 81.0924C151.24 80.514 151.394 79.9549 151.702 79.473C151.895 79.1645 152.319 79.0488 152.628 79.2609C152.936 79.4537 153.052 79.8778 152.84 80.1863C152.666 80.4562 152.589 80.7839 152.589 81.0924C152.589 82.0563 153.38 82.8467 154.344 82.8467C154.96 82.8467 155.5 82.5382 155.828 82.0177C156.002 81.7478 156.098 81.4201 156.098 81.0924C156.098 80.1477 155.365 79.3766 154.421 79.338C154.382 79.338 154.363 79.338 154.344 79.338C153.977 79.338 153.669 79.0296 153.669 78.6633C153.669 78.297 153.977 77.9885 154.344 77.9885C154.401 77.9885 154.44 77.9885 154.498 77.9885C156.156 78.0656 157.447 79.4344 157.447 81.0924C157.447 81.6707 157.293 82.2491 156.985 82.731C156.406 83.6564 155.423 84.1962 154.344 84.1962Z" fill="#051529"/>
<path d="M136.954 81.6321C136.877 81.6321 136.8 81.6321 136.723 81.6128C136.26 81.555 136.009 81.3237 135.874 81.1502C135.335 80.3983 134.563 77.9692 135.007 77.2945C135.315 76.8318 136.241 76.3498 137.764 75.8486C139.248 75.3474 140.212 75.1931 140.617 75.3666C141.388 75.6944 142.063 77.6415 142.178 78.4126C142.217 78.644 142.333 79.3573 141.851 79.7428C141.369 80.167 138.458 81.6321 136.954 81.6321ZM136.915 80.3019C137.609 80.3983 140.154 79.2994 140.867 78.8175C140.867 78.3355 140.385 77.0824 140.077 76.6583C139.267 76.7354 136.819 77.5451 136.221 78.0078C136.26 78.4705 136.549 79.7043 136.915 80.3019Z" fill="#051529"/>
<path d="M177.632 100.274C177.555 100.274 177.458 100.255 177.381 100.217C171.482 97.8453 169.477 94.1824 168.841 91.5413C168.494 90.0761 168.513 88.7652 168.609 87.8013C165.737 89.2472 160.281 90.828 157.447 90.0954C156.483 89.8448 155.847 89.3436 155.558 88.6303C155.249 87.8977 155.307 87.088 155.731 86.2205C157.158 83.1937 163.019 79.4923 169.67 77.4488C170.017 77.3331 170.402 77.5452 170.518 77.8922C170.634 78.2392 170.422 78.6247 170.075 78.7404C163.963 80.6297 158.199 84.1769 156.965 86.7988C156.715 87.3193 156.676 87.7627 156.83 88.129C156.965 88.4375 157.293 88.6688 157.813 88.8038C158.218 88.9002 158.681 88.958 159.201 88.958C162.46 88.958 167.645 87.1265 169.149 85.9313C169.381 85.7385 169.708 85.7385 169.959 85.912C170.209 86.0855 170.306 86.394 170.209 86.6831C170.094 87.0109 167.723 94.915 177.882 99.0021C178.229 99.137 178.403 99.5419 178.249 99.8889C178.152 100.12 177.902 100.274 177.632 100.274Z" fill="#051529"/>
<path d="M118.909 126.031C123.328 126.031 126.91 122.449 126.91 118.03C126.91 113.612 123.328 110.03 118.909 110.03C114.491 110.03 110.909 113.612 110.909 118.03C110.909 122.449 114.491 126.031 118.909 126.031Z" fill="white"/>
<path d="M118.909 126.705C114.128 126.705 110.234 122.811 110.234 118.03C110.234 113.249 114.128 109.355 118.909 109.355C123.69 109.355 127.585 113.249 127.585 118.03C127.585 122.811 123.69 126.705 118.909 126.705ZM118.909 110.704C114.88 110.704 111.584 113.982 111.584 118.03C111.584 122.059 114.861 125.356 118.909 125.356C122.939 125.356 126.235 122.079 126.235 118.03C126.235 113.982 122.939 110.704 118.909 110.704Z" fill="#051529"/>
<path d="M121.339 119.032C121.454 119.476 121.435 119.842 121.32 120.17C121.204 120.498 120.953 120.768 120.568 120.999L120.857 122.136C120.857 122.175 120.857 122.194 120.838 122.233C120.818 122.252 120.799 122.271 120.76 122.291L119.237 122.676C119.199 122.676 119.18 122.676 119.141 122.657C119.122 122.638 119.103 122.618 119.083 122.58L118.833 121.558C118.543 121.616 118.274 121.654 118.042 121.693C118.004 121.693 117.984 121.693 117.965 121.674C117.946 121.654 117.927 121.635 117.907 121.596L117.714 120.343C117.714 120.305 117.714 120.266 117.734 120.247C117.753 120.228 117.792 120.208 117.83 120.208C117.927 120.208 118.023 120.208 118.139 120.189C118.235 120.189 118.37 120.17 118.543 120.151C118.698 120.131 118.852 120.112 118.987 120.073C119.141 120.035 119.257 119.996 119.353 119.919C119.45 119.861 119.507 119.784 119.527 119.707C119.546 119.63 119.565 119.572 119.565 119.514C119.565 119.457 119.565 119.418 119.565 119.379C119.546 119.341 119.527 119.302 119.507 119.245C119.469 119.206 119.43 119.148 119.372 119.09C119.315 119.032 119.199 118.975 119.064 118.936C118.929 118.897 118.775 118.878 118.582 118.878C118.37 118.878 118.158 118.859 117.965 118.782C117.753 118.724 117.56 118.628 117.367 118.493C117.175 118.377 117.001 118.203 116.847 117.972C116.693 117.76 116.577 117.49 116.5 117.22C116.404 116.815 116.423 116.449 116.558 116.121C116.693 115.794 116.943 115.524 117.29 115.292L117.001 114.116C117.001 114.078 117.001 114.059 117.02 114.02C117.04 113.982 117.059 113.962 117.098 113.962L118.621 113.577C118.659 113.577 118.678 113.577 118.717 113.596C118.756 113.615 118.775 113.634 118.775 113.673L119.025 114.695C119.295 114.637 119.565 114.598 119.835 114.56C119.874 114.56 119.893 114.56 119.932 114.579C119.97 114.598 119.97 114.618 119.989 114.656L120.182 115.909C120.182 115.948 120.182 115.967 120.144 116.006C120.124 116.044 120.086 116.044 120.047 116.044C119.604 116.064 119.199 116.102 118.871 116.179C118.736 116.218 118.601 116.256 118.524 116.333C118.428 116.391 118.37 116.468 118.351 116.546C118.331 116.623 118.312 116.68 118.293 116.738C118.293 116.796 118.293 116.835 118.293 116.873C118.293 116.912 118.312 116.95 118.351 117.008C118.389 117.047 118.428 117.105 118.505 117.162C118.582 117.22 118.678 117.278 118.813 117.317C118.948 117.355 119.103 117.375 119.295 117.375C119.507 117.375 119.7 117.413 119.912 117.471C120.124 117.529 120.317 117.625 120.51 117.76C120.703 117.895 120.876 118.069 121.03 118.281C121.146 118.493 121.262 118.743 121.339 119.032Z" fill="#051529"/>
<path d="M119.218 122.946C119.141 122.946 119.064 122.927 119.006 122.888C118.91 122.83 118.852 122.734 118.813 122.637L118.621 121.886C118.428 121.924 118.254 121.943 118.081 121.963C117.984 121.982 117.869 121.943 117.792 121.886C117.715 121.828 117.657 121.731 117.637 121.635V121.616L117.445 120.363C117.425 120.247 117.464 120.131 117.541 120.035C117.618 119.938 117.734 119.9 117.85 119.881C117.946 119.881 118.042 119.881 118.139 119.861C118.235 119.861 118.37 119.842 118.524 119.823C118.678 119.803 118.813 119.784 118.929 119.746C119.045 119.726 119.122 119.688 119.199 119.649C119.257 119.611 119.276 119.572 119.276 119.572C119.295 119.514 119.295 119.476 119.315 119.456C119.315 119.437 119.315 119.418 119.315 119.418C119.315 119.418 119.315 119.399 119.295 119.379C119.295 119.36 119.257 119.341 119.199 119.264C119.18 119.244 119.141 119.206 119.006 119.167C118.891 119.129 118.756 119.109 118.621 119.129C118.389 119.129 118.139 119.09 117.907 119.032C117.676 118.955 117.445 118.859 117.233 118.724C117.001 118.589 116.808 118.377 116.616 118.126C116.442 117.876 116.307 117.586 116.23 117.278C116.114 116.815 116.134 116.391 116.288 116.006C116.423 115.678 116.654 115.408 116.963 115.157L116.712 114.174C116.693 114.078 116.693 113.962 116.751 113.866C116.808 113.769 116.905 113.692 117.001 113.673L118.524 113.287C118.64 113.268 118.736 113.287 118.833 113.326C118.929 113.384 119.006 113.48 119.025 113.577L119.218 114.328C119.411 114.29 119.604 114.271 119.777 114.232C119.893 114.213 119.989 114.251 120.067 114.309C120.163 114.367 120.221 114.483 120.24 114.598L120.433 115.851C120.452 115.967 120.414 116.083 120.356 116.16C120.279 116.256 120.163 116.314 120.047 116.314C119.642 116.333 119.257 116.372 118.929 116.449C118.813 116.468 118.736 116.507 118.678 116.545C118.621 116.584 118.601 116.623 118.601 116.623C118.582 116.7 118.563 116.719 118.563 116.738C118.563 116.757 118.563 116.777 118.563 116.777C118.563 116.777 118.563 116.796 118.582 116.815C118.582 116.815 118.601 116.854 118.678 116.912C118.698 116.931 118.756 116.97 118.871 117.008C118.987 117.047 119.103 117.047 119.257 117.047C119.488 117.047 119.72 117.085 119.951 117.143C120.182 117.22 120.414 117.317 120.626 117.451C120.857 117.606 121.05 117.798 121.223 118.049C121.397 118.3 121.532 118.589 121.609 118.897C121.724 119.399 121.724 119.842 121.59 120.208C121.474 120.536 121.223 120.825 120.896 121.057L121.127 122.001C121.146 122.117 121.146 122.213 121.088 122.31C121.03 122.406 120.934 122.464 120.838 122.502L119.315 122.888C119.276 122.946 119.238 122.946 119.218 122.946ZM119.18 122.387C119.18 122.387 119.16 122.387 119.18 122.387V122.387ZM118.833 121.269C118.968 121.269 119.083 121.365 119.122 121.481L119.334 122.348L120.529 122.04L120.279 121.057C120.24 120.941 120.298 120.806 120.414 120.729C120.741 120.536 120.953 120.305 121.05 120.054C121.146 119.784 121.146 119.456 121.05 119.09C120.992 118.84 120.896 118.627 120.761 118.435C120.626 118.242 120.491 118.107 120.317 117.991C120.144 117.876 119.97 117.798 119.777 117.741C119.604 117.683 119.411 117.664 119.238 117.664C119.026 117.664 118.852 117.644 118.678 117.586C118.505 117.529 118.37 117.471 118.254 117.374C118.158 117.297 118.1 117.22 118.062 117.143C118.023 117.066 117.984 117.008 117.965 116.931C117.946 116.854 117.946 116.777 117.946 116.7C117.946 116.623 117.984 116.545 118.004 116.449C118.062 116.314 118.139 116.198 118.293 116.102C118.409 116.006 118.563 115.948 118.756 115.909C119.064 115.832 119.411 115.794 119.797 115.774L119.662 114.868C119.45 114.907 119.238 114.945 119.025 114.984C118.871 115.022 118.717 114.926 118.678 114.772L118.466 113.904L117.271 114.213L117.522 115.234C117.56 115.35 117.503 115.485 117.406 115.543C117.098 115.736 116.905 115.967 116.789 116.237C116.674 116.507 116.674 116.796 116.751 117.143C116.808 117.394 116.905 117.606 117.04 117.798C117.175 117.991 117.329 118.126 117.483 118.242C117.657 118.358 117.83 118.435 118.023 118.493C118.197 118.55 118.37 118.57 118.563 118.57C118.775 118.57 118.968 118.589 119.122 118.647C119.295 118.705 119.45 118.782 119.546 118.878C119.623 118.955 119.7 119.032 119.739 119.09C119.777 119.167 119.816 119.244 119.835 119.302C119.854 119.379 119.854 119.456 119.854 119.534C119.854 119.611 119.835 119.707 119.797 119.803C119.758 119.938 119.662 120.035 119.507 120.15C119.392 120.247 119.238 120.305 119.045 120.343C118.91 120.382 118.756 120.401 118.582 120.42C118.409 120.44 118.274 120.459 118.177 120.459C118.139 120.459 118.081 120.459 118.042 120.459L118.177 121.365C118.37 121.346 118.563 121.307 118.775 121.249C118.794 121.269 118.813 121.269 118.833 121.269ZM120.009 115.755C120.009 115.755 119.989 115.755 120.009 115.755C119.989 115.755 120.009 115.755 120.009 115.755Z" fill="#051529"/>
<path d="M65.1418 97.479C64.8141 98.4429 69.5951 98.6935 70.1157 98.7128C70.6169 98.7514 86.136 82.0562 87.5048 81.9598C88.8736 81.8635 105.858 95.0499 106.822 95.8982C107.786 96.7657 111.545 94.3752 111.68 93.6618C111.834 92.9485 89.7411 75.5016 86.9843 75.7522C84.7094 75.9835 66.1057 94.6258 65.1418 97.479Z" fill="white"/>
<path d="M70.1543 99.3877C70.135 99.3877 70.0965 99.3877 70.0579 99.3877H69.9808C65.2962 99.1178 64.8335 98.4431 64.6214 98.1153C64.4479 97.8647 64.4093 97.5563 64.5057 97.2671C65.0841 95.5513 70.5785 89.6907 75.0896 85.1795C78.0585 82.2106 85.1722 75.2704 86.9266 75.1162C87.4278 75.0776 88.9315 74.9427 99.8624 83.1167C105.337 87.223 110.909 91.7342 112.027 92.9873C112.162 93.1415 112.432 93.45 112.355 93.8355C112.162 94.7609 109.906 96.1297 108.557 96.5731C107.574 96.9008 106.841 96.843 106.379 96.4188C105.029 95.2043 89.6641 83.4059 87.5628 82.6733C86.3097 83.3673 80.1213 89.6907 76.4005 93.5078C70.964 99.0214 70.5592 99.3877 70.1543 99.3877ZM65.9131 97.4213C66.2794 97.5755 67.3011 97.8647 69.9423 98.019C70.5977 97.4599 73.0654 94.9537 75.4366 92.5246C84.2276 83.5409 86.5988 81.3431 87.4664 81.266C87.8905 81.2274 88.6038 81.1889 97.7225 88.0134C102.253 91.4064 106.745 94.9151 107.285 95.3778C107.4 95.4356 108.056 95.3971 109.232 94.7802C110.003 94.3753 110.581 93.9319 110.87 93.662C109.772 92.5632 105.318 88.8424 99.5925 84.5433C90.9943 78.085 87.6784 76.4078 87.0808 76.4271C86.2904 76.5813 82.1262 80.0707 75.9571 86.2206C70.8869 91.2715 66.742 95.9176 65.9131 97.4213Z" fill="#051529"/>
</svg>
