<svg width="328" height="212" viewBox="0 0 328 212" fill="none" xmlns="http://www.w3.org/2000/svg">
<path d="M216.33 141.613C201.614 151.945 175.291 161.947 145.593 166.29C107.065 171.908 62.8778 168.039 30.9773 143.054C29.1044 141.592 27.2727 140.049 25.4822 138.443C-37.5163 81.4546 27.7049 -11.8596 97.4951 27.553C142.279 52.8471 163.642 62.0674 221.66 34.0155C268.791 11.2323 301.185 81.9486 216.33 141.613Z" fill="#CDE1F9"/>
<path d="M324.708 22.2799C321.922 9.23088 275.2 2.26654 259.83 1.21578C244.459 0.165021 226.767 0.995859 227.183 12.1632C227.598 23.3306 229.089 57.8591 229.406 84.2014C226.596 83.175 223.688 82.2953 220.634 81.6844C220.829 79.9983 221.367 77.9701 222.686 76.0152C225.008 72.5453 225.423 68.3422 224.201 67.8535C221.636 63.4794 209.149 63.3572 204.824 65.2633L202.991 66.2163C202.502 65.6787 202.038 65.4099 201.134 65.7764C198.299 66.876 202.062 74.4269 204.481 77.628C205.41 78.8743 205.996 79.8517 206.363 80.7559C205.996 80.7803 205.605 80.8047 205.239 80.8536C193.51 82.0265 192.434 88.3311 198.275 91.4345C195.416 92.7541 194.609 95.9308 199.325 99.474C196.54 100.451 195.978 103.53 198.152 105.485C198.714 105.974 199.521 106.463 200.474 106.903C196.54 108.515 197.126 111.546 202.184 113.794C202.575 113.965 202.966 114.111 203.357 114.258C198.568 127.576 183.026 147.1 186.57 171.683C190.113 196.291 205.483 200.811 217.946 199.809C225.57 199.198 235.002 194.238 241.185 186.076C241.185 186.076 291.059 208.435 302.642 210.122C314.225 211.808 317.401 207.165 319.918 199.932C322.386 192.723 329.302 43.8326 324.708 22.2799Z" fill="#FFFEF2"/>
<path d="M295.409 192.674C292.99 192.674 289.569 191.697 284.681 189.693C268.773 183.144 246.707 175.3 246.487 175.227C246.048 175.08 245.803 174.591 245.974 174.127C246.121 173.687 246.61 173.443 247.074 173.614C247.294 173.687 269.409 181.556 285.341 188.129C291.963 190.866 295.726 191.599 297.535 190.524C299.245 189.497 299.539 186.492 299.954 182.337C300.052 181.384 300.149 180.407 300.272 179.381C303.204 154.162 306.43 72.9607 304.768 52.7519C303.986 43.3195 303.008 38.2857 299.514 35.1578C296.02 32.0544 289.911 30.6371 278.841 28.0469L273.27 26.7518C254.405 22.3532 240.769 19.1521 236.86 22.2555C236.102 22.8664 235.735 23.6972 235.735 24.8946V86.5229C235.735 86.9872 235.344 87.3781 234.88 87.3781C234.416 87.3781 234.025 86.9872 234.025 86.5229V24.8213C234.025 23.1107 234.611 21.7668 235.784 20.8382C240.329 17.2216 253.598 20.325 273.636 25.0168L279.208 26.3119C290.57 28.951 296.802 30.3928 300.638 33.8138C304.572 37.3082 305.648 42.6353 306.454 52.5565C308.116 72.8386 304.89 154.26 301.933 179.527C301.811 180.554 301.713 181.531 301.616 182.46C301.151 187.103 300.834 190.475 298.366 191.941C297.584 192.43 296.631 192.674 295.409 192.674Z" fill="#051529"/>
<path d="M306.967 211.343C305.599 211.343 304.108 211.221 302.471 210.977C290.912 209.291 242.822 187.787 240.794 186.883C240.354 186.687 240.158 186.174 240.354 185.759C240.549 185.319 241.062 185.123 241.478 185.319C241.966 185.539 291.377 207.629 302.715 209.291C314.176 210.952 316.815 206.138 319.063 199.663C320.285 196.168 322.631 157.29 324.097 116.433C325.881 66.6562 325.807 31.5168 323.852 22.4265C322.728 17.1972 313.369 12.2122 296.777 8.05801C283.704 4.78355 268.431 2.63315 259.756 2.04668C244.288 0.995922 234.342 2.48654 230.213 6.46965C228.649 7.9847 227.94 9.81742 228.013 12.1144C228.062 13.6784 228.16 15.7066 228.258 18.1013C228.844 33.2762 229.968 61.5246 230.262 84.177C230.262 84.6413 229.895 85.0323 229.406 85.0323C228.942 85.0323 228.551 84.6657 228.551 84.177C228.258 61.549 227.158 33.3251 226.547 18.1502C226.449 15.7554 226.376 13.7272 226.303 12.1633C226.205 9.40201 227.109 7.08056 229.015 5.24784C233.56 0.82487 243.653 -0.76349 259.854 0.336143C272.145 1.16698 322.435 7.69146 325.514 22.0844C328.349 35.3778 326.638 92.5587 325.783 116.506C324.439 153.649 322.069 196.168 320.651 200.225C319.478 203.573 317.988 206.969 315.104 209.071C313.027 210.61 310.388 211.343 306.967 211.343Z" fill="#051529"/>
<path d="M218.147 96.6545C218.193 96.6531 218.236 96.6517 218.277 96.6503C218.891 102.243 220.657 106.126 223.801 108.714C225.029 113.931 226.689 118.289 228.591 122.117C230.494 125.966 232.615 129.297 234.716 132.472C235.096 133.046 235.475 133.614 235.851 134.18C237.563 136.748 239.231 139.249 240.744 141.906C244.419 148.362 247.169 155.721 247.205 166.943C247.205 169.514 246.893 171.939 246.317 174.243L246.316 174.246C245.26 178.567 243.29 182.436 240.764 185.756L240.764 185.757C234.663 193.811 225.364 198.685 217.904 199.283L217.903 199.283C211.744 199.778 204.923 198.903 199.216 194.917C193.521 190.939 188.849 183.806 187.093 171.608L187.093 171.608C185.34 159.449 188.303 148.525 192.326 138.951C194.26 134.348 196.434 130.067 198.444 126.109C198.525 125.949 198.606 125.79 198.687 125.631C200.659 121.747 202.463 118.163 203.676 114.923C205.209 115.412 206.712 115.635 208.057 115.62C209.538 115.604 210.867 115.299 211.827 114.704C212.807 114.099 213.426 113.171 213.348 111.987C213.284 110.996 212.736 109.92 211.698 108.79C212.559 108.164 212.897 107.163 212.906 106.26C212.911 105.705 212.795 105.155 212.581 104.699C212.466 104.454 212.313 104.216 212.12 104.021C214.057 103.501 215.221 102.178 215.339 100.541C215.435 99.2052 214.821 97.7903 213.557 96.5933C214.632 96.6593 215.66 96.6792 216.513 96.6792C217.184 96.6792 217.749 96.6669 218.147 96.6545Z" fill="#C5C8D3" stroke="black" stroke-width="1.05674"/>
<path d="M176.032 110.885C175.332 112.985 165.412 113.973 161.687 114.261L161.728 114.837C164.939 114.837 172.286 115.084 172.286 117.327C172.266 120.126 160.864 119.9 160.864 119.9C157.55 126.733 150.429 127.536 150.141 127.577C149.853 127.618 149.05 129.841 148.824 130.973C150.244 131.405 151.109 131.59 151.109 131.59C151.109 131.59 149.853 135.089 149.071 137.744C148.289 140.399 148.021 142.354 149.544 144.186C151.726 146.799 148.989 156.822 145.593 166.31C107.065 171.929 62.8778 168.059 30.9773 143.074C40.5475 117.204 55.3246 100.986 58.4941 94.7294C59.3173 93.1241 61.3548 75.5274 60.3669 64.7841C57.4856 66.0395 51.8258 67.2332 49.0474 64.2284C45.3634 60.2151 50.5704 54.6376 55.3863 55.7284H55.4069C55.4481 55.749 55.5098 55.749 55.551 55.7696C57.074 56.1812 58.1854 57.4778 58.7411 58.6715C59.482 60.2768 61.8282 61.6558 62.3427 58.4245C62.8573 55.1933 64.2979 54.8229 64.9771 54.3083C65.6768 53.7938 66.3354 50.6038 64.9771 49.4512C66.8911 49.9658 69.793 48.5663 69.5255 45.3762C71.2955 46.8375 75.5969 46.5905 76.9552 43.2563C78.684 44.9852 80.5981 44.9852 82.0593 44.2854C93.1525 50.0892 104.163 56.5928 104.102 57.4778C104.04 58.4245 90.6827 64.0432 90.6827 63.9197C90.6827 63.7962 89.9418 93.4122 90.3535 94.997C97.3304 102.447 106.592 114.508 114.083 146.1C114.083 146.141 114.104 146.161 114.104 146.202C114.125 146.326 114.166 146.449 114.186 146.573C115.256 150.916 117.829 154.682 122.131 146.429C122.131 146.429 122.131 146.491 122.131 146.594C125.547 140.008 128.86 134.842 130.404 135.15C130.404 135.15 131.659 129.079 133.697 122.575C134.87 118.85 136.311 115.002 137.916 112.079C144.502 100.101 151.582 95.3674 161.564 92.5684C172.842 89.3784 175.312 95.0381 159.32 102.674C164.754 101.356 172.039 100.883 173.851 102.9C176.547 105.905 166.915 107.778 162.284 108.436C170.084 107.984 176.917 108.292 176.032 110.885Z" fill="#FFFEF2"/>
<path d="M27.7256 153.776C27.6639 153.776 27.6021 153.776 27.5198 153.755C27.1287 153.653 26.9229 153.241 27.0258 152.87C33.8587 128.791 45.8574 111.832 53.0196 101.706C55.2424 98.5573 57.0123 96.067 57.8562 94.3999C58.4942 93.1239 60.5523 76.8443 59.729 65.8129C56.6419 66.9243 51.332 67.7887 48.5124 64.7221C46.7424 62.8081 46.5984 60.2355 48.1419 58.0333C49.7678 55.7076 53.2666 53.9788 56.5596 55.3578C56.93 55.5018 57.0947 55.934 56.9506 56.3045C56.8065 56.6749 56.3743 56.8396 56.0039 56.6955C53.4107 55.6047 50.6117 57.0042 49.3151 58.8565C48.7594 59.6386 47.6892 61.6967 49.562 63.7342C51.9494 66.3274 57.1564 65.3807 60.0789 64.1047C60.2847 64.0224 60.5317 64.0224 60.7375 64.1458C60.9433 64.2693 61.0668 64.4751 61.0874 64.7015C62.0547 75.1978 60.1201 93.1033 59.1528 95.0379C58.2678 96.8079 56.4772 99.3188 54.2133 102.529C47.0923 112.573 35.1965 129.408 28.4253 153.241C28.3224 153.57 28.0343 153.776 27.7256 153.776Z" fill="#051529"/>
<path d="M51.27 62.0877C50.9819 62.0877 50.7143 61.9231 50.6114 61.6349C50.4673 61.2645 50.6526 60.8529 51.0024 60.6882C53.7397 59.5974 55.3862 59.5974 56.1889 59.5974C56.5799 59.5974 56.9092 59.9267 56.9092 60.3177C56.9092 60.7088 56.5799 61.0381 56.1889 61.0381C55.4274 61.0381 54.0073 61.0381 51.5376 62.026C51.4347 62.0671 51.3523 62.0877 51.27 62.0877Z" fill="#051529"/>
<path d="M74.5061 58.0333C74.0327 58.0333 73.6211 57.6423 73.6211 57.1483V54.905C73.6211 54.4316 74.0121 54.02 74.5061 54.02C74.9794 54.02 75.3911 54.4111 75.3911 54.905V57.1483C75.3911 57.6217 75 58.0333 74.5061 58.0333Z" fill="#051529"/>
<path d="M81.9768 55.399C81.5034 55.399 81.0918 55.0079 81.0918 54.514V52.2912C81.0918 51.8179 81.4828 51.4062 81.9768 51.4062C82.4501 51.4062 82.8618 51.7973 82.8618 52.2912V54.5346C82.8618 55.0079 82.4707 55.399 81.9768 55.399Z" fill="#051529"/>
<path d="M74.7942 67.3154C74.7942 67.3154 74.7736 67.3154 74.7942 67.3154C71.2542 67.2331 68.6405 64.9692 67.9407 61.3675C67.8584 60.9765 68.1259 60.606 68.517 60.5237C68.908 60.4414 69.2785 60.7089 69.3608 61.1C69.9371 64.0431 71.9746 65.813 74.8148 65.8748C75.2058 65.8748 75.5351 66.2041 75.5145 66.6157C75.5145 67.0067 75.1852 67.3154 74.7942 67.3154Z" fill="#051529"/>
<path d="M115.894 155.032C115.565 155.032 115.256 154.805 115.195 154.455C107.806 118.459 98.2154 104.423 89.8389 95.4702C89.7566 95.3879 89.6948 95.2849 89.6743 95.1615C89.5919 94.8733 89.3861 94.0913 89.6743 78.8407C89.736 74.8892 89.8389 71.0611 89.8801 68.5297C89.9212 67.1302 89.9418 65.9776 89.9624 65.1544C89.983 64.5987 89.983 64.2488 90.0036 64.0018C90.0036 63.9607 90.0036 63.9401 90.0036 63.8989H90.0241C90.0653 63.5285 90.127 63.4667 90.2711 63.3432C90.374 63.2609 90.4975 63.1992 90.621 63.1786C91.7941 62.8081 101.179 58.7331 103.196 57.3748C101.158 55.6048 90.3329 49.2453 78.8281 43.3591C78.4782 43.1739 78.3341 42.7417 78.5194 42.3918C78.7046 42.0419 79.1368 41.8979 79.4867 42.0831C85.2288 45.0056 91.5883 48.5044 96.5483 51.4063C104.966 56.3457 104.925 56.9631 104.884 57.4982C104.842 58.0333 104.801 58.5273 97.8243 61.6968C97.7626 61.7174 93.2965 63.7343 91.4648 64.4135C91.3619 68.2621 90.8062 92.0537 91.0943 94.6469C99.5943 103.764 109.247 118.027 116.656 154.167C116.738 154.558 116.491 154.929 116.1 155.011C115.997 155.032 115.956 155.032 115.894 155.032Z" fill="#051529"/>
<path d="M79.1984 106.419C77.4696 106.419 74.6706 105.575 71.4805 104.052C68.4551 102.632 63.6804 99.9361 58.0412 95.2642C57.7324 95.0173 57.6913 94.5645 57.9383 94.2558C58.1852 93.947 58.638 93.9059 58.9467 94.1529C68.9903 102.488 77.3461 105.287 79.5895 104.937C81.3389 104.67 86.7722 98.4131 89.7976 94.5233C90.0446 94.2146 90.4974 94.1528 90.8061 94.3998C91.1148 94.6468 91.1766 95.0996 90.9296 95.4083C89.5712 97.1577 82.6354 105.925 79.8159 106.357C79.6306 106.419 79.4042 106.419 79.1984 106.419Z" fill="#051529"/>
<path d="M84.3852 118.398C85.1695 118.398 85.8053 117.762 85.8053 116.977C85.8053 116.193 85.1695 115.557 84.3852 115.557C83.6009 115.557 82.9651 116.193 82.9651 116.977C82.9651 117.762 83.6009 118.398 84.3852 118.398Z" fill="#051529"/>
<path d="M84.6528 132.372C84.6528 132.948 85.2497 133.442 85.9906 133.442C86.7315 133.442 87.3284 132.969 87.3284 132.372C87.3284 131.775 86.7315 131.302 85.9906 131.302C85.2497 131.302 84.6528 131.775 84.6528 132.372Z" fill="#051529"/>
<path d="M86.2786 148.487C85.764 148.775 85.6611 149.536 86.0316 150.174C86.4021 150.812 87.1018 151.08 87.6163 150.792C88.1309 150.504 88.2338 149.742 87.8633 149.104C87.4928 148.466 86.7931 148.199 86.2786 148.487Z" fill="#051529"/>
<path d="M64.9359 113.808C64.586 113.808 64.2362 113.746 63.9069 113.623C61.6224 112.8 60.4698 109.301 59.0086 104.896C58.6175 103.744 58.2265 102.55 57.7943 101.336C57.6502 100.965 57.8561 100.554 58.2265 100.41C58.597 100.266 59.0086 100.472 59.1527 100.842C59.6054 102.077 59.9965 103.271 60.3875 104.444C61.6635 108.313 62.7749 111.668 64.4008 112.264C64.9771 112.47 65.6562 112.326 66.5001 111.812C69.155 110.165 72.3656 107.325 72.4068 107.284C72.6949 107.016 73.1683 107.037 73.4153 107.346C73.6828 107.634 73.6623 108.107 73.3535 108.354C73.2095 108.478 70.0194 111.318 67.241 113.026C66.4589 113.54 65.6768 113.808 64.9359 113.808Z" fill="#051529"/>
<path d="M93.0496 110.165C91.8559 110.165 89.6331 109.527 85.0436 106.851C84.6937 106.646 84.5908 106.213 84.776 105.863C84.9818 105.514 85.414 105.411 85.7639 105.596C91.7324 109.074 93.1937 108.765 93.42 108.662C93.4818 108.642 93.5024 108.621 93.5024 108.56C93.9757 106.687 94.6137 100.821 94.6137 100.759C94.6549 100.368 95.0048 100.08 95.4164 100.121C95.8074 100.163 96.0956 100.512 96.0544 100.924C96.0338 101.171 95.3958 106.954 94.9019 108.909C94.7784 109.424 94.4491 109.794 93.9757 110C93.7493 110.103 93.4612 110.165 93.0496 110.165Z" fill="#051529"/>
<path d="M83.6236 155.032C83.603 155.032 83.603 155.032 83.5824 155.032C83.1914 155.011 82.8827 154.682 82.9033 154.27C83.0267 152.047 83.0679 145.935 81.9359 144.288C80.6188 142.395 79.7955 139.287 81.442 136.303C82.8827 133.73 81.936 130.828 80.8246 128.317C79.4868 125.313 79.6309 117.533 80.2071 111.256C80.2483 110.865 80.5982 110.577 80.9892 110.597C81.3803 110.638 81.6684 110.988 81.6478 111.379C80.9481 119.035 81.1333 125.457 82.1418 127.721C83.3972 130.54 84.4262 133.854 82.6974 136.982C81.3597 139.39 82.0389 141.901 83.1091 143.444C84.735 145.791 84.3851 153.447 84.3439 154.311C84.3233 154.743 83.994 155.032 83.6236 155.032Z" fill="#051529"/>
<path d="M120.649 150.36C120.546 150.36 120.463 150.339 120.361 150.298C119.99 150.133 119.825 149.722 119.99 149.351C121.39 146.079 123.386 142.354 125.341 139.39C127.729 135.788 129.046 134.759 129.807 134.471C130.404 131.734 133.265 119.015 137.299 111.709C144.358 98.8661 152.035 94.4823 161.378 91.848C166.771 90.325 170.475 90.6749 171.257 92.7741C172.245 95.4085 167.903 99.3395 159.65 103.312C159.3 103.476 158.868 103.332 158.682 102.982C158.518 102.632 158.662 102.2 159.012 102.015C167.82 97.7959 170.352 94.4823 169.899 93.2886C169.59 92.4654 167.1 91.7245 161.749 93.2475C152.755 95.7789 145.366 100.019 138.554 112.408C134.232 120.27 131.145 135.13 131.124 135.274C131.042 135.644 130.692 135.891 130.322 135.85C130.013 135.912 128.758 136.817 126.391 140.46C124.538 143.321 122.645 146.861 121.328 149.928C121.184 150.195 120.937 150.36 120.649 150.36Z" fill="#051529"/>
<path d="M145.161 142.333C145.099 142.333 145.058 142.333 144.996 142.312C134.706 139.822 130.137 135.829 129.952 135.665C129.664 135.397 129.622 134.944 129.89 134.656C130.158 134.368 130.61 134.327 130.898 134.595C130.96 134.656 135.447 138.526 145.326 140.913C145.717 141.016 145.943 141.386 145.861 141.777C145.779 142.127 145.47 142.333 145.161 142.333Z" fill="#051529"/>
<path d="M149.4 155.032C149.339 155.032 149.277 155.032 149.215 155.011C148.824 154.908 148.598 154.517 148.701 154.126C150.491 147.52 149.977 146.244 148.948 144.556C147.466 142.168 147.651 140.09 148.392 137.517C148.948 135.624 149.75 133.277 150.162 132.084C147.631 131.446 139.666 129.058 133.203 123.09C132.915 122.822 132.895 122.37 133.162 122.081C133.43 121.793 133.882 121.773 134.171 122.04C141.497 128.811 151.15 130.849 151.232 130.87C151.438 130.911 151.623 131.034 151.706 131.219C151.808 131.405 151.829 131.61 151.747 131.816C151.726 131.857 150.491 135.336 149.73 137.929C148.948 140.584 149.051 142.066 150.121 143.794C151.582 146.182 151.788 148.055 150.038 154.496C149.997 154.826 149.709 155.032 149.4 155.032Z" fill="#051529"/>
<path d="M148.824 131.693C148.783 131.693 148.721 131.693 148.68 131.672C148.289 131.59 148.042 131.199 148.124 130.828C148.248 130.252 148.515 129.388 148.803 128.626C149.277 127.35 149.585 126.938 150.059 126.877C150.8 126.794 157.2 125.827 160.226 119.591C160.349 119.344 160.596 119.179 160.884 119.179C164.26 119.241 170.105 118.871 171.401 117.615C171.566 117.451 171.566 117.348 171.566 117.307C171.566 117.265 171.566 117.162 171.401 117.018C170.084 115.742 163.889 115.454 160.288 115.557C159.897 115.557 159.567 115.248 159.547 114.857C159.526 114.466 159.855 114.137 160.246 114.116C161.255 114.075 170.228 113.849 172.41 115.969C172.904 116.442 173.007 116.957 173.007 117.286C173.007 117.615 172.904 118.13 172.41 118.603C170.475 120.497 163.354 120.599 161.317 120.579C158.147 126.65 152.035 127.967 150.532 128.214C150.265 128.708 149.75 130.149 149.544 131.075C149.462 131.466 149.174 131.693 148.824 131.693Z" fill="#051529"/>
<path d="M160.144 116.71C160.082 116.71 160.02 116.71 159.958 116.689C159.567 116.586 159.341 116.195 159.444 115.804C159.732 114.672 159.65 109.157 158.436 105.04C158.333 104.649 158.538 104.258 158.929 104.155C159.3 104.053 159.712 104.258 159.814 104.649C161.049 108.807 161.214 114.693 160.843 116.175C160.741 116.504 160.452 116.71 160.144 116.71Z" fill="#051529"/>
<path d="M159.917 109.403C159.856 109.403 159.814 109.403 159.794 109.403C159.485 109.342 159.259 109.095 159.217 108.786C159.156 108.395 159.444 108.024 159.835 107.963C159.897 107.963 159.938 107.963 160 107.963C160.432 107.942 163.498 107.592 166.791 106.892C172.492 105.658 173.439 104.443 173.583 104.093C173.624 103.991 173.727 103.785 173.336 103.373C171.669 101.521 163.004 102.179 157.345 103.97C156.974 104.093 156.563 103.888 156.439 103.497C156.316 103.126 156.521 102.715 156.912 102.591C161.852 101.006 171.916 99.6068 174.427 102.406C175.374 103.476 175.085 104.402 174.818 104.855C174.53 105.369 173.665 106.913 166.73 108.374C164.013 108.951 160.679 109.403 159.917 109.403ZM160.617 108.477C160.617 108.498 160.638 108.539 160.638 108.58C160.617 108.539 160.617 108.518 160.617 108.477ZM160.041 107.983C160.102 108.004 160.164 108.024 160.226 108.045C160.185 108.004 160.102 107.983 160.041 107.983Z" fill="#051529"/>
<path d="M160.267 115.084C159.897 115.084 159.567 114.796 159.547 114.405C159.526 114.014 159.835 113.664 160.226 113.643C160.267 113.643 163.972 113.417 167.738 112.882C174.88 111.853 175.353 110.7 175.353 110.659C175.435 110.433 175.374 110.33 175.312 110.247C174.921 109.733 172.863 108.58 162.305 109.157C161.914 109.177 161.564 108.868 161.543 108.477C161.523 108.086 161.831 107.737 162.222 107.716C173.377 107.099 175.682 108.375 176.464 109.383C176.855 109.898 176.938 110.494 176.711 111.132C176.382 112.079 175.106 113.293 167.923 114.322C164.116 114.878 160.35 115.105 160.308 115.105C160.308 115.084 160.288 115.084 160.267 115.084Z" fill="#051529"/>
<path d="M148.824 125.539C148.598 125.539 148.371 125.436 148.227 125.23C148.001 124.901 148.083 124.448 148.413 124.222C151.068 122.39 152.611 120.291 152.982 117.965C153.476 114.899 151.891 111.997 150.471 110.124C150.347 109.959 150.306 109.733 150.347 109.548C150.388 109.342 150.532 109.177 150.697 109.074C152.982 107.839 156.522 105.184 156.357 103.373C156.336 103.167 156.172 103.003 155.842 102.879C154.093 102.138 149.421 102.879 145.161 106.255C144.852 106.502 144.399 106.44 144.152 106.131C143.905 105.822 143.967 105.37 144.276 105.123C148.721 101.603 154.031 100.533 156.419 101.542C157.242 101.891 157.736 102.488 157.798 103.25C158.045 106.049 153.867 108.868 152.097 109.939C153.537 112.038 154.937 115.022 154.402 118.233C153.97 120.949 152.22 123.378 149.215 125.436C149.112 125.498 148.968 125.539 148.824 125.539Z" fill="#051529"/>
<path d="M205.727 94.0003C198.152 93.8048 194.071 90.3593 193.949 87.0849C193.851 84.2258 196.735 80.8536 205.141 79.9984C205.532 79.9495 205.899 79.9251 206.289 79.9006C206.754 79.8517 207.169 80.2183 207.218 80.6826C207.267 81.1469 206.9 81.5623 206.436 81.6112C206.07 81.6356 205.703 81.66 205.336 81.7089C198.103 82.442 195.611 85.0322 195.684 87.036C195.782 89.4552 199.35 92.1432 205.776 92.3142C206.241 92.3387 206.632 92.7297 206.607 93.1939C206.583 93.6338 206.192 94.0003 205.727 94.0003Z" fill="#051529"/>
<path d="M275.64 101.185C269.946 101.185 264.766 100.647 260.123 99.5475C253.623 98.008 250.031 95.8087 248.516 94.8557C248.393 94.7824 248.296 94.7335 248.198 94.6602C239.938 89.6997 230.995 84.6658 220.487 82.5154C220.023 82.4177 219.73 81.9778 219.827 81.5135C219.925 81.0492 220.365 80.756 220.829 80.8537C231.606 83.0774 240.696 88.1846 249.078 93.2185C249.175 93.2674 249.273 93.3407 249.395 93.414C258.486 99.0099 271.754 100.745 288.811 98.5945C289.275 98.5456 289.715 98.8633 289.764 99.3276C289.813 99.7919 289.495 100.232 289.031 100.281C284.315 100.891 279.843 101.185 275.64 101.185Z" fill="#051529"/>
<path d="M206.854 80.5612L206.854 80.5612L206.852 80.5574C206.479 79.6357 205.987 78.4927 204.875 77.2511L204.875 77.2511L204.873 77.2488C202.53 74.6644 201.109 72.3572 200.493 70.492C199.874 68.6179 200.096 67.3066 200.831 66.5322C204.068 63.1562 209.603 62.075 214.639 62.4698C217.143 62.6661 219.479 63.2254 221.285 64.0158C223.119 64.819 224.291 65.8089 224.659 66.7924C225.684 69.5329 224.611 72.2612 222.273 75.7194L222.273 75.7197C220.894 77.7617 220.336 79.8764 220.133 81.6237C219.994 82.8152 220.025 83.8421 220.092 84.5733C220.115 84.8235 220.142 85.0396 220.168 85.2164C219.242 85.387 218.06 85.6285 216.791 85.9552L216.751 85.9608C216.706 85.967 216.638 85.976 216.551 85.9869C216.375 86.0086 216.118 86.0377 215.795 86.0669C215.149 86.1254 214.242 86.1839 213.205 86.1839C211.404 86.1839 209.253 86.0073 207.381 85.3776C207.453 83.4471 207.457 82.0822 206.854 80.5612Z" fill="#C5C8D3" stroke="black" stroke-width="1.05674"/>
<path d="M210.126 104.581C208.049 104.581 205.41 103.921 202.307 102.308C196.271 99.1804 195.049 96.297 195.074 94.4398C195.098 92.827 196.124 91.4341 197.884 90.6277C198.324 90.4323 198.812 90.6277 199.008 91.0432C199.203 91.483 199.008 91.9717 198.592 92.1672C197.933 92.4849 196.809 93.1936 196.784 94.4642C196.76 95.3684 197.346 97.7876 203.089 100.769C208.88 103.774 212.619 103.164 213.645 101.331C214.329 100.109 213.743 98.0808 211.275 96.6146C210.859 96.3703 210.737 95.8571 210.982 95.4417C211.226 95.0263 211.739 94.9041 212.155 95.1485C215.551 97.1767 216.235 100.207 215.136 102.162C214.354 103.628 212.643 104.581 210.126 104.581Z" fill="#051529"/>
<path d="M209.075 109.762C205.288 109.762 199.667 108.027 197.566 106.121C196.295 104.972 195.733 103.384 196.051 101.893C196.368 100.378 197.468 99.2052 199.081 98.6676C199.521 98.521 200.009 98.7654 200.156 99.2052C200.303 99.6451 200.083 100.134 199.618 100.28C198.592 100.623 197.908 101.356 197.712 102.235C197.517 103.164 197.883 104.117 198.714 104.85C200.694 106.658 206.534 108.32 209.833 108.027C211.006 107.929 211.446 107.074 211.592 106.389C211.788 105.412 211.47 104.557 211.274 104.459C210.81 104.361 210.541 103.897 210.639 103.433C210.737 102.968 211.201 102.675 211.665 102.797C212.912 103.066 213.449 104.655 213.352 106.096C213.205 108.149 211.885 109.566 209.979 109.737C209.686 109.762 209.393 109.762 209.075 109.762Z" fill="#051529"/>
<path d="M207.902 115.944C206.021 115.944 203.87 115.504 201.818 114.576C198.714 113.183 197.004 111.423 197.028 109.591C197.053 108.76 197.468 107.196 200.131 106.096C200.571 105.925 201.06 106.121 201.256 106.56C201.427 107 201.231 107.489 200.791 107.685C199.496 108.222 198.763 108.906 198.739 109.615C198.739 110.446 199.716 111.765 202.502 113.012C206.656 114.869 210.688 114.453 211.714 112.938C212.276 112.083 211.739 110.764 210.224 109.273C209.882 108.955 209.882 108.393 210.199 108.076C210.517 107.733 211.079 107.733 211.397 108.051C214.378 110.935 213.767 112.963 213.132 113.891C212.227 115.235 210.248 115.944 207.902 115.944Z" fill="#051529"/>
<path d="M234.855 112.987C234.831 112.987 234.782 112.987 234.758 112.987C224.226 111.814 219.143 107.001 217.97 97.0061C215.087 97.1039 207.536 97.1038 205.727 94.4892C205.361 93.976 205.068 93.1207 205.556 91.9722C207.902 86.6207 220.731 84.7391 222.197 84.5436C222.662 84.4703 223.102 84.8124 223.15 85.2767C223.224 85.741 222.882 86.1808 222.417 86.2297C218.728 86.7184 208.782 88.8444 207.12 92.632C206.925 93.0963 206.998 93.3162 207.12 93.4873C208.195 95.0512 214.524 95.4422 218.679 95.2222C219.143 95.1978 219.534 95.5399 219.583 96.0042C220.536 105.852 224.837 110.128 234.953 111.252C235.417 111.301 235.76 111.717 235.711 112.205C235.662 112.67 235.295 112.987 234.855 112.987Z" fill="#051529"/>
<path d="M279.281 126.207C265.181 126.207 253.012 120.562 248.564 118.51C247.855 118.192 247.147 117.85 246.902 117.777C246.511 117.826 245.192 118.388 244.019 118.876C240.354 120.416 234.244 122.982 228.991 122.737C228.526 122.713 228.16 122.322 228.184 121.833C228.209 121.369 228.6 121.002 229.088 121.027C233.951 121.247 239.84 118.779 243.359 117.312C245.558 116.384 246.487 116.017 247.098 116.091C247.44 116.14 247.88 116.335 249.273 116.97C254.38 119.341 269.897 126.525 286.538 123.959C287.002 123.886 287.442 124.203 287.516 124.668C287.589 125.132 287.271 125.572 286.807 125.645C284.266 126.036 281.749 126.207 279.281 126.207Z" fill="#051529"/>
<path d="M213.229 87.5736C210.712 87.5736 207.413 87.2314 204.945 85.8141C204.53 85.5698 204.408 85.0566 204.627 84.6412C204.872 84.2258 205.385 84.1036 205.8 84.3235C209.759 86.645 216.675 85.6431 216.748 85.6187C217.212 85.5453 217.652 85.863 217.725 86.3273C217.799 86.7916 217.481 87.2315 217.017 87.3048C216.894 87.3292 215.331 87.5736 213.229 87.5736Z" fill="#051529"/>
<path d="M213.694 71.4458C212.888 71.4458 212.008 71.397 211.055 71.3237C208.074 71.0549 205.85 70.2485 204.237 68.88C203.871 68.5624 203.822 68.0248 204.139 67.6827C204.457 67.3161 204.995 67.2672 205.337 67.5849C206.656 68.709 208.587 69.3688 211.201 69.6131C216.431 70.1018 219.388 69.0022 221.342 67.9759C221.758 67.756 222.271 67.927 222.491 68.3424C222.711 68.7578 222.54 69.271 222.124 69.4909C220.341 70.444 217.775 71.4458 213.694 71.4458Z" fill="#051529"/>
<path d="M224.299 164.866C224.299 166.454 223.957 167.749 223.273 168.751C222.588 169.753 221.489 170.462 219.974 170.901V175.08C219.974 175.202 219.925 175.3 219.851 175.398C219.778 175.471 219.656 175.52 219.534 175.52H214.011C213.889 175.52 213.791 175.471 213.693 175.398C213.62 175.324 213.571 175.202 213.571 175.08V171.366C212.545 171.317 211.592 171.243 210.761 171.146C210.663 171.121 210.566 171.072 210.492 170.975C210.419 170.877 210.37 170.779 210.37 170.657L210.81 166.21C210.834 166.063 210.883 165.965 210.981 165.892C211.079 165.819 211.201 165.794 211.348 165.819C211.69 165.892 212.032 165.965 212.398 166.014C212.765 166.063 213.229 166.136 213.791 166.21C214.353 166.283 214.891 166.307 215.38 166.307C215.917 166.332 216.357 166.258 216.748 166.112C217.115 165.965 217.383 165.794 217.53 165.574C217.677 165.354 217.799 165.159 217.848 164.988C217.897 164.817 217.945 164.646 217.945 164.523C217.945 164.377 217.921 164.206 217.848 164.01C217.799 163.839 217.677 163.595 217.506 163.326C217.334 163.057 217.017 162.789 216.601 162.52C216.162 162.251 215.648 162.055 215.013 161.909C214.304 161.738 213.62 161.469 212.96 161.054C212.301 160.663 211.69 160.174 211.128 159.563C210.566 158.976 210.101 158.219 209.759 157.339C209.417 156.46 209.246 155.482 209.246 154.456C209.246 152.99 209.613 151.768 210.37 150.766C211.128 149.764 212.178 149.031 213.596 148.542V144.241C213.596 144.119 213.645 144.021 213.718 143.924C213.791 143.826 213.913 143.777 214.036 143.777H219.558C219.68 143.777 219.778 143.826 219.876 143.924C219.974 144.021 220.022 144.119 220.022 144.241V147.956C221 148.005 221.977 148.078 222.955 148.176C223.053 148.2 223.15 148.249 223.248 148.347C223.321 148.444 223.37 148.542 223.346 148.664L222.906 153.112C222.882 153.234 222.833 153.332 222.735 153.429C222.637 153.503 222.515 153.552 222.393 153.503C220.853 153.161 219.46 152.99 218.214 152.99C217.701 152.965 217.261 153.038 216.87 153.185C216.504 153.332 216.235 153.527 216.064 153.747C215.893 153.967 215.795 154.163 215.722 154.334C215.673 154.505 215.624 154.651 215.624 154.822C215.624 154.969 215.648 155.116 215.722 155.311C215.771 155.482 215.893 155.726 216.088 155.995C216.259 156.264 216.577 156.533 217.017 156.802C217.457 157.07 217.97 157.266 218.605 157.413C219.314 157.584 219.998 157.877 220.658 158.268C221.318 158.659 221.929 159.148 222.491 159.758C223.053 160.369 223.492 161.102 223.835 161.982C224.128 162.886 224.299 163.839 224.299 164.866Z" fill="#051529"/>
<path d="M219.534 176.375H214.011C213.669 176.375 213.351 176.252 213.107 176.008C212.862 175.764 212.74 175.446 212.74 175.104V172.196C212.007 172.147 211.323 172.074 210.688 172.001C210.346 171.952 210.077 171.805 209.857 171.536C209.661 171.292 209.539 170.999 209.539 170.681C209.539 170.657 209.539 170.632 209.539 170.608L209.979 166.16C210.028 165.769 210.223 165.452 210.517 165.232C210.81 165.012 211.201 164.938 211.567 165.012C211.885 165.085 212.227 165.158 212.569 165.207C212.911 165.256 213.376 165.329 213.913 165.403C214.451 165.476 214.94 165.5 215.404 165.5C215.844 165.5 216.186 165.476 216.455 165.354C216.748 165.232 216.821 165.134 216.846 165.11C216.968 164.914 217.041 164.792 217.065 164.719C217.114 164.596 217.114 164.547 217.114 164.523C217.114 164.499 217.114 164.425 217.065 164.279C217.041 164.205 216.992 164.059 216.797 163.79C216.748 163.692 216.577 163.521 216.161 163.277C215.795 163.057 215.355 162.886 214.817 162.764C214.035 162.568 213.253 162.25 212.52 161.811C211.812 161.371 211.127 160.833 210.517 160.173C209.881 159.489 209.368 158.658 208.977 157.656C208.611 156.679 208.415 155.604 208.415 154.455C208.415 152.818 208.855 151.401 209.71 150.252C210.443 149.275 211.47 148.493 212.765 147.955V144.241C212.765 143.899 212.887 143.606 213.107 143.337C213.351 143.068 213.693 142.921 214.035 142.921H219.558C219.9 142.921 220.242 143.068 220.487 143.312C220.731 143.557 220.878 143.899 220.878 144.241V147.149C221.611 147.198 222.319 147.247 223.028 147.344H223.052C223.346 147.393 223.639 147.54 223.834 147.784C224.079 148.053 224.201 148.42 224.152 148.786L223.712 153.209V153.233C223.663 153.576 223.492 153.893 223.199 154.113C222.881 154.358 222.515 154.431 222.148 154.358C220.682 154.04 219.338 153.869 218.141 153.844C217.725 153.844 217.383 153.869 217.114 153.991C216.821 154.113 216.723 154.211 216.699 154.235C216.552 154.455 216.479 154.577 216.479 154.626C216.455 154.7 216.43 154.773 216.43 154.822C216.43 154.822 216.43 154.895 216.479 155.042C216.503 155.091 216.552 155.237 216.748 155.531C216.821 155.628 216.968 155.824 217.408 156.068C217.774 156.288 218.214 156.459 218.752 156.581C219.534 156.777 220.291 157.094 221.024 157.534C221.757 157.95 222.441 158.512 223.052 159.172C223.688 159.856 224.201 160.687 224.567 161.688C224.934 162.666 225.129 163.741 225.129 164.865C225.129 166.625 224.738 168.115 223.932 169.239C223.223 170.241 222.173 171.023 220.78 171.536V175.104C220.78 175.446 220.658 175.764 220.413 176.008C220.193 176.252 219.876 176.375 219.534 176.375ZM214.426 174.664H219.118V170.901C219.118 170.51 219.363 170.192 219.729 170.07C221.024 169.679 222.002 169.068 222.564 168.237C223.15 167.382 223.443 166.258 223.443 164.841C223.443 163.912 223.297 163.057 223.003 162.275C222.71 161.493 222.319 160.858 221.831 160.32C221.317 159.782 220.78 159.343 220.193 159C219.607 158.658 218.996 158.39 218.361 158.243C217.676 158.072 217.065 157.828 216.552 157.534C216.015 157.217 215.624 156.85 215.355 156.484C215.135 156.141 214.964 155.848 214.891 155.604C214.793 155.335 214.744 155.091 214.744 154.846C214.744 154.602 214.793 154.333 214.891 154.064C214.988 153.82 215.111 153.576 215.331 153.282C215.599 152.916 215.99 152.623 216.528 152.427C217.017 152.232 217.579 152.158 218.19 152.183C219.338 152.207 220.658 152.354 222.05 152.623L222.393 149.055C221.586 148.982 220.755 148.908 219.925 148.884C219.46 148.859 219.118 148.493 219.118 148.029V144.681H214.426V148.566C214.426 148.933 214.206 149.25 213.864 149.373C212.643 149.812 211.69 150.448 211.054 151.303C210.419 152.158 210.101 153.185 210.101 154.48C210.101 155.408 210.248 156.264 210.565 157.07C210.859 157.852 211.274 158.512 211.738 159.025C212.252 159.562 212.789 160.002 213.376 160.369C213.938 160.711 214.549 160.955 215.184 161.102C215.893 161.273 216.503 161.517 217.017 161.811C217.579 162.153 217.97 162.495 218.214 162.886C218.434 163.228 218.581 163.497 218.654 163.766C218.752 164.034 218.8 164.303 218.8 164.548C218.8 164.792 218.752 165.036 218.654 165.305C218.556 165.549 218.434 165.818 218.238 166.111C217.994 166.478 217.579 166.771 217.065 166.967C216.577 167.162 216.015 167.235 215.379 167.211C214.891 167.211 214.329 167.162 213.718 167.113C213.131 167.04 212.643 166.967 212.276 166.918C212.056 166.893 211.861 166.844 211.641 166.796L211.299 170.388C212.007 170.461 212.789 170.534 213.644 170.559C214.109 170.583 214.451 170.95 214.451 171.414V174.664H214.426ZM222.441 148.615C222.441 148.639 222.441 148.639 222.441 148.615V148.615Z" fill="#051529"/>
<path d="M176.547 58.2599C176.328 58.6986 176.52 59.2112 176.934 59.4103C177.061 59.4845 177.187 59.5088 177.308 59.5088C177.63 59.5088 177.924 59.3327 178.09 59.0005C178.173 58.8346 185.932 42.8221 188.505 37.2636C188.701 36.8474 188.531 36.3312 188.088 36.1335C187.672 35.9386 187.156 36.1089 186.959 36.5516C184.386 42.0877 176.629 58.0966 176.547 58.2599Z" fill="white" stroke="black" stroke-width="0.275258"/>
<path d="M184.699 57.2186L184.7 57.219C185.001 57.3049 185.323 57.3477 185.623 57.3477C187.256 57.3477 188.807 56.1263 189.336 54.3064C189.653 53.2696 189.612 52.2071 189.207 51.2694L189.207 51.2691C188.781 50.2903 188.032 49.5793 187.083 49.2986C185.161 48.7159 183.1 50.0573 182.445 52.2099C182.128 53.247 182.169 54.3098 182.574 55.2477L182.574 55.248C183 56.227 183.749 56.938 184.699 57.2186ZM184.165 54.5839L184.165 54.5839L184.164 54.5812C183.912 54.0189 183.89 53.3744 184.088 52.7223C184.425 51.61 185.309 50.8853 186.158 50.8853C186.313 50.8853 186.457 50.9049 186.577 50.9565L186.585 50.9598L186.593 50.9621C187.041 51.0929 187.424 51.4509 187.637 51.9538L187.637 51.9538L187.638 51.9565C187.89 52.5188 187.912 53.1632 187.714 53.8153C187.315 55.1121 186.18 55.8744 185.211 55.5761L185.209 55.5756C184.76 55.4448 184.378 55.0868 184.165 54.5839ZM185.17 55.7077L185.17 55.7077L185.17 55.7077Z" fill="white" stroke="black" stroke-width="0.275258"/>
<path d="M173.9 44.3083L173.9 44.3083L173.901 44.3101C174.092 45.3542 174.67 46.2139 175.531 46.7094C176.048 47.011 176.608 47.1396 177.164 47.1396C178.534 47.1396 179.937 46.3279 180.701 44.9084C181.84 42.9655 181.389 40.5281 179.64 39.535C177.914 38.5425 175.571 39.3501 174.451 41.3152L174.451 41.3153C173.922 42.2473 173.73 43.3084 173.9 44.3083ZM175.612 44.0141L175.612 44.0141L175.612 44.0113C175.496 43.4332 175.629 42.7878 175.966 42.1927C176.462 41.3413 177.285 40.8418 178.029 40.8418C178.317 40.8418 178.581 40.8991 178.825 41.0297C179.703 41.5548 179.924 42.8984 179.247 44.0725C178.57 45.2476 177.287 45.7197 176.41 45.2155L176.407 45.2141C175.997 44.9907 175.709 44.5573 175.612 44.0141Z" fill="white" stroke="black" stroke-width="0.275258"/>
<mask id="path-43-outside-1_763_3506" maskUnits="userSpaceOnUse" x="164.923" y="48.6272" width="9" height="11" fill="black">
<rect fill="white" x="164.923" y="48.6272" width="9" height="11"/>
<path fill-rule="evenodd" clip-rule="evenodd" d="M168.438 58.0743C168.438 58.4653 168.747 58.7946 169.158 58.7946C169.549 58.7946 169.878 58.4653 169.878 58.0743C169.878 58.0355 169.895 55.7534 169.983 53.6158C170.976 53.6309 171.835 53.6593 172.088 53.6677C172.134 53.6692 172.16 53.67 172.163 53.67C172.575 53.67 172.883 53.3613 172.904 52.9703C172.904 52.5793 172.595 52.25 172.204 52.2294C172.182 52.2294 172.09 52.2267 171.944 52.2223C171.577 52.2115 170.866 52.1904 170.057 52.1772C170.102 51.4755 170.158 50.8653 170.228 50.4593C170.29 50.0683 170.023 49.6978 169.631 49.6361C169.24 49.5743 168.87 49.8419 168.808 50.2329C168.728 50.6984 168.665 51.3867 168.616 52.1655C167.842 52.1669 167.103 52.1836 166.586 52.2294C166.195 52.2705 165.886 52.6204 165.927 53.0115C165.968 53.3819 166.277 53.67 166.647 53.67H166.709C167.168 53.6272 167.833 53.6098 168.541 53.6066C168.453 55.7246 168.438 57.9227 168.438 58.0743Z"/>
</mask>
<path fill-rule="evenodd" clip-rule="evenodd" d="M168.438 58.0743C168.438 58.4653 168.747 58.7946 169.158 58.7946C169.549 58.7946 169.878 58.4653 169.878 58.0743C169.878 58.0355 169.895 55.7534 169.983 53.6158C170.976 53.6309 171.835 53.6593 172.088 53.6677C172.134 53.6692 172.16 53.67 172.163 53.67C172.575 53.67 172.883 53.3613 172.904 52.9703C172.904 52.5793 172.595 52.25 172.204 52.2294C172.182 52.2294 172.09 52.2267 171.944 52.2223C171.577 52.2115 170.866 52.1904 170.057 52.1772C170.102 51.4755 170.158 50.8653 170.228 50.4593C170.29 50.0683 170.023 49.6978 169.631 49.6361C169.24 49.5743 168.87 49.8419 168.808 50.2329C168.728 50.6984 168.665 51.3867 168.616 52.1655C167.842 52.1669 167.103 52.1836 166.586 52.2294C166.195 52.2705 165.886 52.6204 165.927 53.0115C165.968 53.3819 166.277 53.67 166.647 53.67H166.709C167.168 53.6272 167.833 53.6098 168.541 53.6066C168.453 55.7246 168.438 57.9227 168.438 58.0743Z" fill="white"/>
<path d="M169.983 53.6158L169.987 53.3405L169.719 53.3364L169.708 53.6044L169.983 53.6158ZM172.088 53.6677L172.097 53.3926L172.097 53.3926L172.088 53.6677ZM172.904 52.9703L173.179 52.9848L173.179 52.9775V52.9703H172.904ZM172.204 52.2294L172.219 51.9545L172.211 51.9541H172.204V52.2294ZM171.944 52.2223L171.936 52.4975L171.936 52.4975L171.944 52.2223ZM170.057 52.1772L169.782 52.1595L169.764 52.4477L170.052 52.4524L170.057 52.1772ZM170.228 50.4593L170.5 50.5061L170.5 50.5022L170.228 50.4593ZM169.631 49.6361L169.589 49.9079L169.631 49.6361ZM168.808 50.2329L169.08 50.2796L169.08 50.2758L168.808 50.2329ZM168.616 52.1655L168.616 52.4407L168.874 52.4402L168.89 52.1829L168.616 52.1655ZM166.586 52.2294L166.561 51.9552L166.557 51.9556L166.586 52.2294ZM165.927 53.0115L165.653 53.0403L165.653 53.0419L165.927 53.0115ZM166.709 53.67V53.9453H166.722L166.735 53.9441L166.709 53.67ZM168.541 53.6066L168.816 53.618L168.828 53.33L168.54 53.3313L168.541 53.6066ZM169.158 58.5193C168.904 58.5193 168.713 58.3184 168.713 58.0743H168.163C168.163 58.6122 168.589 59.0699 169.158 59.0699V58.5193ZM169.603 58.0743C169.603 58.3133 169.397 58.5193 169.158 58.5193V59.0699C169.701 59.0699 170.154 58.6173 170.154 58.0743H169.603ZM169.708 53.6044C169.619 55.7468 169.603 58.0328 169.603 58.0743H170.154C170.154 58.0744 170.154 58.0739 170.154 58.0721C170.154 58.0706 170.154 58.0685 170.154 58.0658C170.154 58.0604 170.154 58.0529 170.154 58.0433C170.154 58.0241 170.154 57.9967 170.155 57.9617C170.155 57.8916 170.156 57.7912 170.158 57.665C170.161 57.4128 170.165 57.0577 170.173 56.637C170.188 55.7956 170.214 54.693 170.258 53.6271L169.708 53.6044ZM172.097 53.3926C171.844 53.3842 170.982 53.3558 169.987 53.3405L169.979 53.891C170.969 53.9061 171.827 53.9345 172.079 53.9428L172.097 53.3926ZM172.163 53.3948C172.166 53.3948 172.169 53.3949 172.167 53.3948C172.167 53.3948 172.166 53.3948 172.164 53.3947C172.161 53.3947 172.157 53.3945 172.15 53.3943C172.138 53.3939 172.12 53.3933 172.097 53.3926L172.079 53.9428C172.12 53.9441 172.154 53.9453 172.163 53.9453V53.3948ZM172.629 52.9558C172.616 53.2039 172.425 53.3948 172.163 53.3948V53.9453C172.724 53.9453 173.151 53.5188 173.179 52.9848L172.629 52.9558ZM172.19 52.5043C172.433 52.5171 172.629 52.7239 172.629 52.9703H173.179C173.179 52.4346 172.758 51.9829 172.219 51.9545L172.19 52.5043ZM171.936 52.4975C172.078 52.5017 172.176 52.5046 172.204 52.5046V51.9541C172.187 51.9541 172.102 51.9516 171.952 51.9472L171.936 52.4975ZM170.052 52.4524C170.86 52.4656 171.569 52.4866 171.936 52.4975L171.952 51.9472C171.585 51.9363 170.873 51.9152 170.061 51.9019L170.052 52.4524ZM169.957 50.4125C169.884 50.834 169.827 51.4568 169.782 52.1595L170.332 52.1948C170.377 51.4942 170.432 50.8965 170.5 50.5061L169.957 50.4125ZM169.589 49.9079C169.828 49.9458 169.995 50.1744 169.956 50.4164L170.5 50.5022C170.586 49.9621 170.217 49.4498 169.674 49.3642L169.589 49.9079ZM169.08 50.2758C169.118 50.036 169.347 49.8697 169.589 49.9079L169.674 49.3642C169.134 49.2789 168.622 49.6477 168.536 50.19L169.08 50.2758ZM168.89 52.1829C168.94 51.4054 169.002 50.7296 169.08 50.2796L168.537 50.1862C168.454 50.6672 168.39 51.368 168.341 52.148L168.89 52.1829ZM166.61 52.5036C167.114 52.4589 167.843 52.4422 168.616 52.4407L168.615 51.8902C167.841 51.8916 167.091 51.9083 166.561 51.9552L166.61 52.5036ZM166.201 52.9826C166.177 52.7563 166.361 52.5298 166.614 52.5031L166.557 51.9556C166.029 52.0112 165.595 52.4845 165.653 53.0403L166.201 52.9826ZM166.647 53.3948C166.424 53.3948 166.227 53.2189 166.201 52.9811L165.653 53.0419C165.709 53.545 166.13 53.9453 166.647 53.9453V53.3948ZM166.709 53.3948H166.647V53.9453H166.709V53.3948ZM168.54 53.3313C167.831 53.3346 167.156 53.3519 166.684 53.396L166.735 53.9441C167.181 53.9025 167.835 53.8851 168.543 53.8819L168.54 53.3313ZM168.713 58.0743C168.713 57.9254 168.729 55.7312 168.816 53.618L168.266 53.5952C168.178 55.718 168.163 57.92 168.163 58.0743H168.713Z" fill="black" mask="url(#path-43-outside-1_763_3506)"/>
<path d="M307.822 204.623C307.798 204.623 307.774 204.623 307.749 204.623C307.285 204.575 306.943 204.159 306.992 203.695C314.396 127.698 314.811 33.4228 310.828 25.9453C309.24 22.9885 297.119 18.5167 279.134 14.2404C262.786 10.355 245.583 7.59368 237.348 7.49594C236.884 7.49594 236.493 7.10496 236.493 6.64067C236.493 6.17638 236.884 5.7854 237.348 5.7854C245.705 5.88315 263.055 8.66888 279.501 12.5787C290.668 15.2178 309.753 20.3739 312.294 25.1389C314.86 29.9529 315.275 61.8422 314.811 90.0905C314.176 128.822 311.928 170.29 308.653 203.866C308.629 204.281 308.262 204.623 307.822 204.623Z" fill="#051529"/>
<path d="M76.9553 43.2562C81.9771 48.2368 88.5013 38.9136 81.5037 39.0783C86.0521 32.4923 76.4202 28.8701 74.5062 33.6449C73.1478 30.8253 67.6115 31.7926 68.3525 35.0444C64.7096 31.4839 58.1443 35.2914 59.2557 40.2925C52.6492 38.893 47.0511 47.4547 53.9046 49.7392C51.9288 50.8094 51.7436 54.905 55.3864 55.7283C56.9918 56.0987 58.1649 57.4365 58.7206 58.6714C59.4615 60.2767 61.8077 61.6556 62.3222 58.4244C62.8368 55.1932 64.2774 54.8227 64.9772 54.3082C65.6769 53.7937 66.3355 50.6036 64.9772 49.4511C66.8912 49.9656 69.7931 48.5661 69.5256 45.376C71.2955 46.8373 75.597 46.5903 76.9553 43.2562Z" fill="#051529"/>
<path d="M60.8405 61.1C59.6673 61.1 58.556 60.0503 58.062 58.9595C57.5887 57.9305 56.6008 56.7368 55.2219 56.4281C53.3284 55.9959 52.0524 54.6993 51.826 52.9293C51.6819 51.8179 51.9701 50.7271 52.5669 49.9451C50.1795 48.6896 49.7473 46.5286 50.2207 44.7998C51.0233 41.8361 54.4809 39.0989 58.4119 39.4282C58.309 37.1437 59.5439 35.0033 61.7666 33.7684C63.7424 32.6776 65.9446 32.657 67.6939 33.6243C67.9821 32.6776 68.7436 31.9161 69.8755 31.5251C71.3779 31.0105 73.2714 31.2164 74.4445 32.3277C75.1648 31.4016 76.2762 30.8459 77.5934 30.743C79.6927 30.5989 81.8537 31.7103 82.8415 33.4391C83.3355 34.3241 83.9118 36.0735 82.7386 38.4197C84.4674 38.7078 85.0231 39.6546 85.2084 40.2926C85.62 41.7538 84.5909 43.6679 82.821 44.7175C80.9687 45.8083 78.9312 45.6848 77.2024 44.3882C76.4614 45.5613 75.2883 46.3845 73.8271 46.755C72.5716 47.0637 71.275 46.9814 70.2254 46.5698C70.0608 47.6194 69.5462 48.525 68.723 49.2041C68.0438 49.7804 67.1794 50.1303 66.315 50.2332C66.4591 50.7066 66.5208 51.2417 66.5002 51.8385C66.4591 52.9499 66.1092 54.37 65.4094 54.8845C65.286 54.9874 65.1419 55.0697 64.9978 55.1521C64.2981 55.5843 63.4337 56.1194 63.0426 58.5273C62.7133 60.5648 61.7049 61.0176 61.108 61.0794C61.0257 61.1 60.9434 61.1 60.8405 61.1ZM57.8356 40.8483C54.8926 40.8483 52.2582 42.9269 51.6408 45.1908C51.1468 46.9814 52.0524 48.3397 54.1516 49.0601C54.4192 49.1424 54.625 49.3894 54.6456 49.6775C54.6662 49.9656 54.5221 50.2332 54.2751 50.3773C53.5548 50.7683 53.1432 51.7562 53.2872 52.7647C53.4519 53.9172 54.2751 54.7404 55.5717 55.0491C57.9385 55.5843 59.1117 57.7452 59.3998 58.3833C59.7702 59.1859 60.5317 59.721 60.9434 59.6799C61.2521 59.6387 61.5196 59.1242 61.6431 58.3215C62.1371 55.2344 63.4748 54.4111 64.2775 53.9378C64.401 53.8554 64.5039 53.7937 64.5862 53.7525C64.7509 53.6085 65.1213 52.6618 65.0802 51.5504C65.0596 50.8506 64.8743 50.2949 64.545 50.0274C64.2775 49.801 64.2158 49.4511 64.3598 49.1424C64.5245 48.8337 64.8538 48.6896 65.1831 48.7719C66.0269 48.9983 67.0765 48.7308 67.7968 48.1339C68.332 47.6811 68.9494 46.8579 68.8259 45.4584C68.8053 45.1703 68.9494 44.9027 69.2169 44.7587C69.4845 44.6352 69.7932 44.6557 70.0196 44.841C70.7811 45.479 72.2012 45.7054 73.4772 45.3761C74.2593 45.1909 75.6588 44.6146 76.3174 42.9887C76.3997 42.7623 76.6055 42.5976 76.8319 42.5565C77.0583 42.5153 77.3053 42.5771 77.4905 42.7623C79.4457 44.7175 81.3597 43.9148 82.08 43.4826C83.3767 42.7211 84.0352 41.4245 83.8089 40.7042C83.6442 40.1073 82.8004 39.7781 81.5244 39.8192C81.2568 39.8192 81.0098 39.6751 80.8658 39.4487C80.7423 39.2018 80.7629 38.9137 80.9069 38.6873C82.0595 36.9996 82.3064 35.456 81.5861 34.18C80.8864 32.9246 79.2399 32.1013 77.6963 32.2042C76.9965 32.2454 75.7411 32.5335 75.1854 33.9125C75.0825 34.18 74.8355 34.3447 74.5474 34.3653C74.2593 34.3653 73.9917 34.2212 73.8682 33.9536C73.292 32.7394 71.5837 32.4512 70.3489 32.8834C69.8549 33.0481 68.7641 33.5832 69.0729 34.8592C69.1346 35.1679 69.0111 35.4972 68.723 35.6413C68.4349 35.8059 68.1056 35.7442 67.8586 35.5384C66.1504 33.8919 63.8865 34.2212 62.4664 35.0238C60.9845 35.8471 59.4204 37.6788 59.9555 40.1279C60.0172 40.3749 59.9349 40.6219 59.7703 40.7865C59.6056 40.9512 59.3586 41.0335 59.1117 40.9923C58.6795 40.8894 58.2473 40.8483 57.8356 40.8483Z" fill="#051529"/>
</svg>
