<svg width="262" height="42" viewBox="0 0 262 42" fill="none" xmlns="http://www.w3.org/2000/svg">
<path d="M122.008 12.4945C121.693 14.6404 120.952 16.6104 119.786 18.4045C118.619 20.1635 117.027 21.5882 115.009 22.6788C113.051 23.7542 111.743 23.7542 108.675 23.7539H107.366L106.117 27.4433L103.224 37.6122H95.9463L98.2128 29.0242L100.64 20.5922L101.374 17.2436H108.436C111.463 17.2436 113.244 15.6606 113.78 12.4945C113.843 11.9316 113.874 11.5271 113.874 11.2808C113.874 10.1551 113.543 9.29321 112.881 8.69517C112.251 8.06195 111.274 7.74534 109.949 7.74534H105.232L100.657 7.86303L102.116 0.568848H111.699C115.167 0.568848 117.784 1.43073 119.549 3.1545C121.315 4.84308 122.197 7.1473 122.197 10.0672C122.197 10.9466 122.134 11.7557 122.008 12.4945Z" fill="#1B6ED4"/>
<path d="M137.182 37.7167C134.726 37.7167 132.56 37.2063 130.683 36.1853C128.835 35.1644 127.4 33.7295 126.379 31.8808C125.358 30.0321 124.847 27.9074 124.847 25.5068C124.847 22.1129 125.579 19.0914 127.041 16.4425C128.503 13.766 130.532 11.6827 133.125 10.1927C135.747 8.70264 138.713 7.95763 142.024 7.95763C144.507 7.95763 146.687 8.4681 148.564 9.48904C150.44 10.4824 151.889 11.9034 152.91 13.7522C153.93 15.5733 154.441 17.6704 154.441 20.0434C154.441 23.4373 153.71 26.4864 152.247 29.1905C150.785 31.867 148.743 33.9641 146.122 35.4817C143.5 36.9717 140.52 37.7167 137.182 37.7167ZM138.258 31.1772C140.079 31.1772 141.679 30.7081 143.059 29.7699C144.438 28.8318 145.501 27.5763 146.246 26.0035C147.018 24.4031 147.405 22.6785 147.405 20.8298C147.405 18.8431 146.853 17.2841 145.749 16.1528C144.645 15.0214 143.1 14.4558 141.114 14.4558C139.292 14.4558 137.678 14.9249 136.271 15.863C134.891 16.8012 133.815 18.0567 133.043 19.6295C132.298 21.1747 131.925 22.8855 131.925 24.7618C131.925 26.7485 132.477 28.3213 133.581 29.4802C134.684 30.6115 136.243 31.1772 138.258 31.1772ZM173.894 8.37152C176.902 8.37152 179.192 9.06135 180.765 10.441C182.338 11.7931 183.124 13.559 183.124 15.7389C183.124 16.3735 183.069 16.9668 182.959 17.5186C182.627 19.4501 181.786 21.1747 180.434 22.6923C179.082 24.2099 177.274 25.2861 175.012 25.9207L179.689 37.427H171.701L167.603 26.4588H165.906L163.961 37.427H156.883L162.015 8.37152H173.894ZM175.715 17.8083C175.771 17.3669 175.798 17.0771 175.798 16.9392C175.798 16.0562 175.508 15.3802 174.929 14.9111C174.377 14.4144 173.549 14.1661 172.446 14.1661H168.058L166.775 21.4506H171.163C172.459 21.4506 173.48 21.1333 174.225 20.4987C174.998 19.864 175.495 18.9673 175.715 17.8083ZM210.905 8.37152L209.953 13.9591H202.214L198.075 37.427H190.997L195.136 13.9591H187.438L188.431 8.37152H210.905ZM229.311 32.2947H218.467L215.818 37.427H208.409L224.055 8.37152H232.25L237.63 37.427H230.139L229.311 32.2947ZM228.483 26.9141L226.786 16.1528L221.24 26.9141H228.483ZM249.848 32.0464H259.119L258.167 37.427H241.818L246.95 8.37152H254.028L249.848 32.0464Z" fill="#1B6ED4"/>
<path d="M26.062 12.4945C25.7467 14.6404 25.0058 16.6104 23.8394 18.4045C22.6729 20.1635 21.0808 21.5882 19.0631 22.6788C17.1044 23.7542 15.7965 23.7542 12.7284 23.7539H11.4201L10.1706 27.4433L7.27791 37.6122H0L2.26653 29.0242L4.69333 20.5922L5.428 17.2436H12.4899C15.5164 17.2436 17.2977 15.6606 17.8336 12.4945C17.8966 11.9316 17.9282 11.5271 17.9282 11.2808C17.9282 10.1551 17.5972 9.29321 16.9351 8.69517C16.3046 8.06195 15.3273 7.74534 14.0031 7.74534H9.28571L4.71047 7.86303L6.16931 0.568848H15.7529C19.2207 0.568848 21.8374 1.43073 23.6029 3.1545C25.3684 4.84308 26.2511 7.1473 26.2511 10.0672C26.2511 10.9466 26.1881 11.7557 26.062 12.4945Z" fill="#1B6ED4"/>
<path d="M43.079 37.0195C40.3473 37.0195 37.8363 36.3848 35.5461 35.1155C33.2834 33.8463 31.4761 32.0803 30.124 29.8177C28.7996 27.5275 28.1373 24.9613 28.1373 22.1192C28.1373 19.2771 28.7996 16.7248 30.124 14.4621C31.4761 12.1995 33.2834 10.4336 35.5461 9.16428C37.8363 7.895 40.3473 7.26036 43.079 7.26036C45.8107 7.26036 48.3079 7.895 50.5705 9.16428C52.8607 10.4336 54.6543 12.1995 55.9511 14.4621C57.2756 16.7248 57.9378 19.2771 57.9378 22.1192C57.9378 24.9613 57.2756 27.5275 55.9511 29.8177C54.6267 32.0803 52.8331 33.8463 50.5705 35.1155C48.3079 36.3848 45.8107 37.0195 43.079 37.0195ZM43.079 30.5627C45.3968 30.5627 47.2455 29.7901 48.6252 28.2449C50.0324 26.6997 50.736 24.6578 50.736 22.1192C50.736 19.5531 50.0324 17.5112 48.6252 15.9936C47.2455 14.4483 45.3968 13.6757 43.079 13.6757C40.7336 13.6757 38.8572 14.4346 37.45 15.9522C36.0703 17.4698 35.3805 19.5255 35.3805 22.1192C35.3805 24.6854 36.0703 26.7411 37.45 28.2863C38.8572 29.8039 40.7336 30.5627 43.079 30.5627ZM73.3763 37.0195C71.2517 37.0195 69.3477 36.6746 67.6646 35.9847C65.9814 35.2949 64.6293 34.274 63.6084 32.9219C62.615 31.5698 62.0908 29.9418 62.0356 28.0379H69.5685C69.6789 29.1141 70.0514 29.9418 70.686 30.5213C71.3206 31.0732 72.1484 31.3491 73.1694 31.3491C74.2179 31.3491 75.0457 31.1146 75.6528 30.6455C76.2598 30.1488 76.5633 29.4728 76.5633 28.6174C76.5633 27.9 76.315 27.3067 75.8183 26.8376C75.3492 26.3685 74.756 25.9822 74.0386 25.6787C73.3487 25.3752 72.3554 25.0303 71.0585 24.644C69.1822 24.0645 67.6508 23.4851 66.4643 22.9056C65.2778 22.3262 64.2568 21.4708 63.4014 20.3395C62.5461 19.2082 62.1184 17.7319 62.1184 15.9108C62.1184 13.2067 63.0979 11.0958 65.057 9.57818C67.0161 8.03297 69.5685 7.26036 72.7141 7.26036C75.9149 7.26036 78.4948 8.03297 80.4539 9.57818C82.413 11.0958 83.4616 13.2205 83.5995 15.9522H75.9425C75.8873 15.014 75.5424 14.2828 74.9077 13.7585C74.2731 13.2067 73.4591 12.9307 72.4658 12.9307C71.6104 12.9307 70.9205 13.1653 70.3963 13.6344C69.872 14.0758 69.6099 14.7243 69.6099 15.5797C69.6099 16.5178 70.0514 17.249 70.9343 17.7733C71.8173 18.2976 73.197 18.8632 75.0733 19.4703C76.9496 20.1049 78.4672 20.712 79.6261 21.2914C80.8127 21.8709 81.8336 22.7125 82.689 23.8162C83.5444 24.9199 83.9721 26.341 83.9721 28.0793C83.9721 29.7349 83.5444 31.2387 82.689 32.5908C81.8612 33.9428 80.6471 35.019 79.0467 35.8192C77.4463 36.6194 75.5562 37.0195 73.3763 37.0195Z" fill="#1B6ED4"/>
</svg>
