<svg width="24" height="24" viewBox="0 0 24 24" fill="none" xmlns="http://www.w3.org/2000/svg">
<path fill-rule="evenodd" clip-rule="evenodd" d="M0 1C0 0.447715 0.447715 0 1 0H2.54208C3.84525 0 4.99938 0.841313 5.39817 2.08197L6.01467 4H23C23.328 4 23.6351 4.16083 23.8219 4.43041C24.0087 4.69998 24.0515 5.04403 23.9363 5.35112L21.7255 11.2468C21.1129 12.8803 19.6932 14.0764 17.9794 14.4029L9.79973 15.9609C9.66314 15.9869 9.5244 16 9.38536 16C8.42338 16 7.57142 15.379 7.27704 14.4631L3.49411 2.69399C3.36118 2.28044 2.97647 2 2.54208 2H1C0.447715 2 0 1.55228 0 1ZM6.65753 6L9.1811 13.8511C9.20962 13.9398 9.29216 14 9.38536 14C9.39883 14 9.41227 13.9987 9.4255 13.9962L17.6051 12.4382C18.6334 12.2423 19.4853 11.5247 19.8528 10.5445L21.557 6H6.65753ZM8 20C7.44772 20 7 20.4477 7 21C7 21.5523 7.44772 22 8 22C8.55228 22 9 21.5523 9 21C9 20.4477 8.55228 20 8 20ZM5 21C5 19.3431 6.34315 18 8 18C9.65685 18 11 19.3431 11 21C11 22.6569 9.65685 24 8 24C6.34315 24 5 22.6569 5 21ZM18 20C17.4477 20 17 20.4477 17 21C17 21.5523 17.4477 22 18 22C18.5523 22 19 21.5523 19 21C19 20.4477 18.5523 20 18 20ZM15 21C15 19.3431 16.3431 18 18 18C19.6569 18 21 19.3431 21 21C21 22.6569 19.6569 24 18 24C16.3431 24 15 22.6569 15 21Z" fill="#A6AABA"/>
</svg>
