<svg width="24" height="24" viewBox="0 0 24 24" fill="none" xmlns="http://www.w3.org/2000/svg">
<path d="M1 0C0.447715 0 0 0.447715 0 1C0 1.55228 0.447715 2 1 2H2.54208C2.97647 2 3.36118 2.28044 3.49411 2.69399L7.27704 14.4631C7.57142 15.379 8.42338 16 9.38536 16C9.5244 16 9.66314 15.9869 9.79973 15.9609L17.9794 14.4029C19.6932 14.0764 21.1129 12.8803 21.7255 11.2468L23.9363 5.35112C24.0515 5.04403 24.0087 4.69998 23.8219 4.43041C23.6351 4.16083 23.328 4 23 4H6.01467L5.39817 2.08197C4.99938 0.841313 3.84525 0 2.54208 0H1Z" fill="#1B6ED4"/>
<path fill-rule="evenodd" clip-rule="evenodd" d="M8 18C6.34315 18 5 19.3431 5 21C5 22.6569 6.34315 24 8 24C9.65685 24 11 22.6569 11 21C11 19.3431 9.65685 18 8 18ZM7 21C7 20.4477 7.44772 20 8 20C8.55228 20 9 20.4477 9 21C9 21.5523 8.55228 22 8 22C7.44772 22 7 21.5523 7 21Z" fill="#1B6ED4"/>
<path fill-rule="evenodd" clip-rule="evenodd" d="M18 18C16.3431 18 15 19.3431 15 21C15 22.6569 16.3431 24 18 24C19.6569 24 21 22.6569 21 21C21 19.3431 19.6569 18 18 18ZM17 21C17 20.4477 17.4477 20 18 20C18.5523 20 19 20.4477 19 21C19 21.5523 18.5523 22 18 22C17.4477 22 17 21.5523 17 21Z" fill="#1B6ED4"/>
</svg>
