<svg width="26" height="24" viewBox="0 0 26 24" fill="none" xmlns="http://www.w3.org/2000/svg">
<path fill-rule="evenodd" clip-rule="evenodd" d="M13 0C12.4527 0 11.921 0.183294 11.49 0.52065L0.383736 9.21249C-0.0511913 9.55287 -0.127839 10.1814 0.212539 10.6163C0.552917 11.0512 1.18143 11.1279 1.61635 10.7875L2.00026 10.4871L2.00004 17.0706C2.00001 18.4247 1.99998 19.5413 2.1188 20.4251C2.24354 21.3529 2.51551 22.1723 3.17162 22.8284C3.82773 23.4845 4.64715 23.7565 5.57498 23.8812C6.45874 24.0001 7.57537 24 8.9295 24H17.0706C18.4247 24 19.5413 24.0001 20.4251 23.8812C21.3529 23.7565 22.1724 23.4845 22.8285 22.8284C23.4846 22.1723 23.7565 21.3529 23.8813 20.4251C24.0001 19.5413 24.0001 18.4247 24 17.0705L23.9998 10.4871L24.3837 10.7875C24.8187 11.1279 25.4472 11.0512 25.7875 10.6163C26.1279 10.1814 26.0513 9.55287 25.6164 9.21249L14.5101 0.52065C14.079 0.183294 13.5474 0 13 0ZM4.00032 8.92179L4.00004 17C4.00004 18.4425 4.00217 19.4238 4.10096 20.1586C4.19589 20.8646 4.36326 21.1916 4.58583 21.4142C4.8084 21.6368 5.13542 21.8042 5.84148 21.8991C6.39234 21.9731 7.0817 21.9929 8.00004 21.9981L8.00004 15.9384C7.99998 15.2843 7.99992 14.6966 8.06388 14.2208C8.13371 13.7015 8.29584 13.1687 8.73228 12.7322C9.16872 12.2958 9.70153 12.1337 10.2209 12.0638C10.6966 11.9999 11.2843 11.9999 11.9384 12H14.0617C14.7158 11.9999 15.3035 11.9999 15.7792 12.0638C16.2986 12.1337 16.8314 12.2958 17.2678 12.7322C17.7043 13.1687 17.8664 13.7015 17.9362 14.2208C18.0002 14.6966 18.0001 15.2843 18 15.9384L18 21.9981C18.9184 21.9929 19.6077 21.9731 20.1586 21.8991C20.8647 21.8042 21.1917 21.6368 21.4143 21.4142C21.6368 21.1916 21.8042 20.8646 21.8991 20.1586C21.9979 19.4238 22 18.4425 22 17L21.9998 8.92179L13.2775 2.09566C13.1983 2.03368 13.1006 2 13 2C12.8995 2 12.8018 2.03368 12.7226 2.09566L4.00032 8.92179ZM16 21.9991V16C16 15.2646 15.9979 14.8137 15.954 14.4873C15.9155 14.2005 15.8606 14.1526 15.8541 14.1469L15.8531 14.1459C15.8474 14.1394 15.7995 14.0846 15.5127 14.046C15.1864 14.0021 14.7354 14 14 14H12C11.2647 14 10.8137 14.0021 10.4874 14.046C10.2005 14.0846 10.1526 14.1394 10.147 14.1459L10.146 14.1469C10.1395 14.1526 10.0846 14.2005 10.046 14.4873C10.0022 14.8137 10 15.2646 10 16V21.9991C10.3162 22 10.6489 22 11 22H15C15.3512 22 15.6839 22 16 21.9991Z" fill="#A6AABA"/>
</svg>
