<svg width="24" height="24" viewBox="0 0 24 24" fill="none" xmlns="http://www.w3.org/2000/svg">
<path d="M12.8248 0.675202L23.3248 11.1752C24.0598 11.9102 23.5395 13.1667 22.5 13.1667H21.3333V20.1667C21.3333 21.095 20.9646 21.9852 20.3082 22.6416C19.6518 23.298 18.7616 23.6667 17.8333 23.6667H16.6667V15.5C16.6667 14.6073 16.3256 13.7483 15.7132 13.0987C15.1007 12.4492 14.2632 12.0582 13.372 12.0059L13.1667 12H10.8333C9.90508 12 9.01484 12.3688 8.35846 13.0252C7.70209 13.6815 7.33334 14.5718 7.33334 15.5V23.6667H6.16667C5.23841 23.6667 4.34818 23.298 3.6918 22.6416C3.03542 21.9852 2.66667 21.095 2.66667 20.1667V13.1667H1.5C0.461671 13.1667 -0.0598287 11.9102 0.675171 11.1752L11.1752 0.675202C11.394 0.456486 11.6906 0.333618 12 0.333618C12.3094 0.333618 12.6061 0.456486 12.8248 0.675202ZM13.1667 14.3334C13.4761 14.3334 13.7728 14.4563 13.9916 14.6751C14.2104 14.8939 14.3333 15.1906 14.3333 15.5V23.6667H9.66667V15.5C9.66671 15.2143 9.77162 14.9385 9.96151 14.7249C10.1514 14.5114 10.413 14.375 10.6968 14.3415L10.8333 14.3334H13.1667Z" fill="#1B6ED4"/>
</svg>
