<svg width="28" height="28" viewBox="0 0 28 28" fill="none" xmlns="http://www.w3.org/2000/svg">
<path d="M15.5092 2.5552e-06C15.9208 2.5552e-06 16.289 0.256203 16.4276 0.639803L17.416 3.3796C17.7702 3.4678 18.074 3.556 18.3316 3.6484C18.613 3.7492 18.9756 3.9018 19.4236 4.1104L21.7252 2.8924C21.9131 2.79287 22.1282 2.75694 22.3382 2.79001C22.5482 2.82308 22.7418 2.92336 22.89 3.0758L24.9144 5.1688C25.1832 5.4474 25.2588 5.8548 25.1076 6.2104L24.0282 8.7402C24.2074 9.0692 24.3502 9.3506 24.4594 9.5858C24.577 9.842 24.7226 10.1948 24.8962 10.6498L27.412 11.7278C27.79 11.8888 28.0238 12.2668 27.9986 12.6714L27.8138 15.5764C27.8012 15.7651 27.7334 15.946 27.619 16.0966C27.5045 16.2471 27.3483 16.3608 27.1698 16.4234L24.787 17.2704C24.7184 17.5994 24.647 17.8808 24.5714 18.1188C24.4495 18.4864 24.3103 18.848 24.1542 19.2024L25.3512 21.8484C25.4357 22.0343 25.4585 22.2424 25.4161 22.4422C25.3738 22.6419 25.2686 22.8229 25.116 22.9586L22.8396 24.9914C22.6897 25.1247 22.5026 25.209 22.3035 25.233C22.1043 25.2571 21.9025 25.2196 21.7252 25.1258L19.3788 23.8826C19.0117 24.077 18.633 24.2486 18.2448 24.3964L17.22 24.78L16.31 27.3C16.2426 27.4845 16.1209 27.6444 15.961 27.7586C15.8011 27.8728 15.6105 27.9359 15.414 27.9398L12.754 28C12.5524 28.0053 12.354 27.948 12.1863 27.8359C12.0186 27.7238 11.8897 27.5625 11.8174 27.3742L10.745 24.5364C10.3791 24.4114 10.0169 24.276 9.65863 24.1304C9.36563 24.0036 9.07706 23.8668 8.79343 23.7202L6.13343 24.857C5.95816 24.9318 5.76493 24.954 5.57726 24.9209C5.3896 24.8879 5.21559 24.801 5.07643 24.6708L3.10803 22.8242C2.96148 22.6873 2.86167 22.5078 2.82273 22.3111C2.78379 22.1144 2.80768 21.9104 2.89103 21.728L4.03483 19.236C3.88271 18.9408 3.74168 18.6401 3.61203 18.3344C3.46069 17.9602 3.32062 17.5816 3.19203 17.199L0.686026 16.436C0.482327 16.3744 0.304658 16.2473 0.180612 16.0744C0.0565654 15.9015 -0.0069161 15.6925 2.61755e-05 15.4798L0.0980262 12.7904C0.105002 12.6149 0.159818 12.4447 0.256545 12.2981C0.353273 12.1516 0.488232 12.0342 0.646826 11.9588L3.27603 10.696C3.39783 10.2494 3.50423 9.9022 3.59803 9.6488C3.7301 9.31035 3.87677 8.97777 4.03763 8.652L2.89803 6.244C2.81154 6.06114 2.78528 5.85556 2.82301 5.65682C2.86075 5.45809 2.96054 5.27644 3.10803 5.138L5.07363 3.2816C5.21142 3.15164 5.38382 3.06427 5.5701 3.03C5.75639 2.99572 5.9486 3.016 6.12363 3.0884L8.78083 4.186C9.07483 3.99 9.34083 3.8318 9.58163 3.7044C9.86863 3.5518 10.2522 3.3922 10.7352 3.22L11.6592 0.642603C11.7275 0.453978 11.8524 0.291036 12.0168 0.176026C12.1811 0.0610157 12.377 -0.000456751 12.5776 2.5552e-06H15.5092ZM14.0336 9.8266C11.6998 9.8266 9.80843 11.6956 9.80843 14.0028C9.80843 16.31 11.6998 18.1804 14.0336 18.1804C16.366 18.1804 18.2574 16.31 18.2574 14.0028C18.2574 11.6956 16.3674 9.8266 14.0336 9.8266Z" fill="#1B6ED4"/>
</svg>
