<svg width="20" height="24" viewBox="0 0 20 24" fill="none" xmlns="http://www.w3.org/2000/svg">
<path d="M6.50004 3.83333H4.16671C3.54787 3.83333 2.95438 4.07917 2.51679 4.51675C2.07921 4.95434 1.83337 5.54783 1.83337 6.16667V20.1667C1.83337 20.7855 2.07921 21.379 2.51679 21.8166C2.95438 22.2542 3.54787 22.5 4.16671 22.5H15.8334C16.4522 22.5 17.0457 22.2542 17.4833 21.8166C17.9209 21.379 18.1667 20.7855 18.1667 20.1667V6.16667C18.1667 5.54783 17.9209 4.95434 17.4833 4.51675C17.0457 4.07917 16.4522 3.83333 15.8334 3.83333H13.5M6.50004 3.83333C6.50004 4.45217 6.74587 5.04566 7.18346 5.48325C7.62104 5.92083 8.21454 6.16667 8.83337 6.16667H11.1667C11.7855 6.16667 12.379 5.92083 12.8166 5.48325C13.2542 5.04566 13.5 4.45217 13.5 3.83333M6.50004 3.83333C6.50004 3.21449 6.74587 2.621 7.18346 2.18342C7.62104 1.74583 8.21454 1.5 8.83337 1.5H11.1667C11.7855 1.5 12.379 1.74583 12.8166 2.18342C13.2542 2.621 13.5 3.21449 13.5 3.83333M10 12H13.5M10 16.6667H13.5M6.50004 12H6.51171M6.50004 16.6667H6.51171" stroke="#A6AABA" stroke-width="1.83333" stroke-linecap="round" stroke-linejoin="round"/>
</svg>
