<svg width="18" height="24" viewBox="0 0 18 24" fill="none" xmlns="http://www.w3.org/2000/svg">
<path d="M7.6002 0.800049C7.22889 0.800049 6.8728 0.947548 6.61025 1.2101C6.3477 1.47265 6.2002 1.82875 6.2002 2.20005C6.2002 2.57135 6.3477 2.92745 6.61025 3.19C6.8728 3.45255 7.22889 3.60005 7.6002 3.60005H10.4002C10.7715 3.60005 11.1276 3.45255 11.3901 3.19C11.6527 2.92745 11.8002 2.57135 11.8002 2.20005C11.8002 1.82875 11.6527 1.47265 11.3901 1.2101C11.1276 0.947548 10.7715 0.800049 10.4002 0.800049H7.6002Z" fill="#1B6ED4"/>
<path fill-rule="evenodd" clip-rule="evenodd" d="M0.600098 5.00007C0.600098 4.25747 0.895097 3.54528 1.4202 3.02017C1.9453 2.49507 2.65749 2.20007 3.4001 2.20007C3.4001 3.31398 3.8426 4.38227 4.63025 5.16992C5.4179 5.95757 6.48619 6.40007 7.6001 6.40007H10.4001C11.514 6.40007 12.5823 5.95757 13.3699 5.16992C14.1576 4.38227 14.6001 3.31398 14.6001 2.20007C15.3427 2.20007 16.0549 2.49507 16.58 3.02017C17.1051 3.54528 17.4001 4.25747 17.4001 5.00007V20.4001C17.4001 21.1427 17.1051 21.8549 16.58 22.38C16.0549 22.9051 15.3427 23.2001 14.6001 23.2001H3.4001C2.65749 23.2001 1.9453 22.9051 1.4202 22.38C0.895097 21.8549 0.600098 21.1427 0.600098 20.4001V5.00007ZM4.8001 10.6001C4.42879 10.6001 4.0727 10.7476 3.81015 11.0101C3.5476 11.2727 3.4001 11.6288 3.4001 12.0001C3.4001 12.3714 3.5476 12.7275 3.81015 12.99C4.0727 13.2526 4.42879 13.4001 4.8001 13.4001H4.8141C5.1854 13.4001 5.5415 13.2526 5.80405 12.99C6.0666 12.7275 6.2141 12.3714 6.2141 12.0001C6.2141 11.6288 6.0666 11.2727 5.80405 11.0101C5.5415 10.7476 5.1854 10.6001 4.8141 10.6001H4.8001ZM9.0001 10.6001C8.62879 10.6001 8.2727 10.7476 8.01015 11.0101C7.7476 11.2727 7.6001 11.6288 7.6001 12.0001C7.6001 12.3714 7.7476 12.7275 8.01015 12.99C8.2727 13.2526 8.62879 13.4001 9.0001 13.4001H13.2001C13.5714 13.4001 13.9275 13.2526 14.19 12.99C14.4526 12.7275 14.6001 12.3714 14.6001 12.0001C14.6001 11.6288 14.4526 11.2727 14.19 11.0101C13.9275 10.7476 13.5714 10.6001 13.2001 10.6001H9.0001ZM4.8001 16.2001C4.42879 16.2001 4.0727 16.3476 3.81015 16.6101C3.5476 16.8727 3.4001 17.2288 3.4001 17.6001C3.4001 17.9714 3.5476 18.3275 3.81015 18.59C4.0727 18.8526 4.42879 19.0001 4.8001 19.0001H4.8141C5.1854 19.0001 5.5415 18.8526 5.80405 18.59C6.0666 18.3275 6.2141 17.9714 6.2141 17.6001C6.2141 17.2288 6.0666 16.8727 5.80405 16.6101C5.5415 16.3476 5.1854 16.2001 4.8141 16.2001H4.8001ZM9.0001 16.2001C8.62879 16.2001 8.2727 16.3476 8.01015 16.6101C7.7476 16.8727 7.6001 17.2288 7.6001 17.6001C7.6001 17.9714 7.7476 18.3275 8.01015 18.59C8.2727 18.8526 8.62879 19.0001 9.0001 19.0001H13.2001C13.5714 19.0001 13.9275 18.8526 14.19 18.59C14.4526 18.3275 14.6001 17.9714 14.6001 17.6001C14.6001 17.2288 14.4526 16.8727 14.19 16.6101C13.9275 16.3476 13.5714 16.2001 13.2001 16.2001H9.0001Z" fill="#1B6ED4"/>
</svg>
